<svg id="Capa_1" data-name="Capa 1" xmlns="http://www.w3.org/2000/svg" xmlns:xlink="http://www.w3.org/1999/xlink" viewBox="0 0 641.94 665"><defs><style>.cls-1,.cls-4{fill:none;}.cls-2{clip-path:url(#clip-path);}.cls-3{fill:#88aa31;}.cls-4{stroke:#b7d459;stroke-miterlimit:10;stroke-width:2px;}</style><clipPath id="clip-path"><rect class="cls-1" width="641.94" height="665"/></clipPath></defs><g class="cls-2"><path class="cls-3" d="M641.94,1097V0c-19.37,51.55-55.46,123.21-126,176-131.21,98.18-262,41.56-330,139-44.73,64.11-2.77,109.64-64,210-30.91,50.67-52,56.09-102,116-69.08,82.76-104.6,128.08-117,194-2.24,11.89-20.32,116.76,44,205,79.37,108.88,224.74,60.61,268,62,127,4.08,143.59,3.71,231,3"/><path class="cls-4" d="M365.92,540.83h0a13.08,13.08,0,0,1-13-13.11l.28-115.87a13.08,13.08,0,0,1,13.07-13h0a13.08,13.08,0,0,1,13,13.11L379,527.79A13.07,13.07,0,0,1,365.92,540.83Z"/><path class="cls-4" d="M365.88,611.41c-34.37,0-65.79-21.56-77-53.2-10.88-30.62-1.5-66,23.35-87.92a13.07,13.07,0,1,1,17.31,19.59c-16.93,15-23.37,38.91-16,59.57,7.78,21.89,30.13,36.62,54.3,35.79,21.68-.73,41-13.68,49.17-33,9.16-21.6,3.13-47-15-63.31a13.07,13.07,0,1,1,17.46-19.46c26.45,23.72,35.14,61.09,21.61,93-12.15,28.63-40.55,47.83-72.35,48.9C367.73,611.39,366.8,611.41,365.88,611.41Z"/><path class="cls-4" d="M403.92,309.11a145.15,145.15,0,0,1-18.51-1.26,8.72,8.72,0,0,1,2.24-17.29c24.85,3.22,42.88-.42,53.56-10.81,7.94-7.72,9.57-17.14,11.63-29.07,1.65-9.55,3.52-20.37,9.05-31.86,10.07-21,29.47-37.7,57.84-50a175.09,175.09,0,0,0-22.88-1.26c-18.77.21-57.81.63-92.37,28.46-23.32,18.77-35.07,42.68-40.81,59.44a8.72,8.72,0,0,1-16.49-5.66c6.49-18.92,19.81-46,46.37-67.36,39.26-31.61,84-32.1,103.1-32.3a194.48,194.48,0,0,1,58.09,8.29,8.72,8.72,0,0,1-.21,16.75c-40,11-65.9,28.19-76.94,51.16-4.47,9.31-6,18.44-7.58,27.28-2.29,13.24-4.65,26.93-16.65,38.59C441.82,303.46,425.24,309.11,403.92,309.11Z"/><path class="cls-4" d="M321.35,386.81c-.3,0-.61,0-.92-.05-36.08-3.82-63.75-16.34-82.22-37.23-16.28-18.4-20.38-37.71-24.35-56.38-3.44-16.18-6.69-31.46-17.35-47.63-16.37-24.84-45.31-42.72-86-53.14a8.72,8.72,0,0,1,1.11-17.1c4.12-.49,41.6-4.66,86.64,3.64,57.83,10.65,104.62,37.5,135.31,77.65C353.67,282.89,366.68,314,372.22,349A8.72,8.72,0,1,1,355,351.72c-5.08-32.12-17-60.57-35.3-84.56-44.2-57.82-114.19-72.42-160.15-75.28,22.4,11.32,39.65,26.05,51.52,44.06,12.46,18.91,16.38,37.33,19.83,53.59,3.83,18,7.13,33.49,20.36,48.45,15.5,17.53,39.39,28.11,71,31.45a8.71,8.71,0,0,1-.91,17.38Z"/><path class="cls-4" d="M313.77,342.43a8.72,8.72,0,0,1-8.4-6.41,99.27,99.27,0,0,0-43.73-58.3,8.71,8.71,0,1,1,9.17-14.82,116.65,116.65,0,0,1,51.36,68.5,8.7,8.7,0,0,1-6.09,10.71A8.41,8.41,0,0,1,313.77,342.43Z"/><path class="cls-4" d="M391.38,279.31a7.2,7.2,0,0,1-2-.3,7,7,0,0,1-4.64-8.7A114.92,114.92,0,0,1,437,204.14a7,7,0,1,1,7,12.06,100.85,100.85,0,0,0-46,58.17A7,7,0,0,1,391.38,279.31Z"/></g></svg>