<svg xmlns="http://www.w3.org/2000/svg" xmlns:xlink="http://www.w3.org/1999/xlink" viewBox="0 0 43 54"><defs><style>.cls-1{fill:none;}.cls-2{isolation:isolate;}.cls-3{clip-path:url(#clip-path);}.cls-4{fill:#cacaca;mix-blend-mode:multiply;}.cls-5{fill:#fff;}</style><clipPath id="clip-path"><rect class="cls-1" x="-1940" width="1920" height="1520"/></clipPath></defs><g class="cls-2"><g id="Capa_1" data-name="Capa 1"><g class="cls-3"><image width="6000" height="4000" transform="translate(-2217) scale(0.38)" xlink:href="../../../../../../../FOTOS%20GOOGLE%20DRIVE%20MAURICIO/Fotos%20Proveedores%20Buesaco%20Santa%20Maria%20Villamoreno/Editadas%20en%20campo/_PIP2887.jpg"/></g><polygon class="cls-4" points="20.67 31.69 14.65 25.64 9.28 25.64 15.31 31.69 20.67 31.69"/><path class="cls-4" d="M21.2,25.67l-.12,15.81H14.52l6,6.05h6.56l.12-15.82h5.33c.31-2.09.58-4.17.89-6.33l-5.8-5.82.11-.18a.56.56,0,0,0,0-.08l.11-.11a3.08,3.08,0,0,1,.27-.25l.16-.1a3,3,0,0,1,.31-.15l.18-.07a2,2,0,0,1,.37-.09l.17,0a3.83,3.83,0,0,1,.6,0c.46,0,.93,0,1.39,0h2.3l0-5.63-6-6,0,5.64h-2.3c-.47,0-.93,0-1.4,0a5.61,5.61,0,0,0-.59.06l-.18,0-.37.09-.18.07a2.11,2.11,0,0,0-.3.16l-.16.09a2.16,2.16,0,0,0-.27.25l-.09.08,0,0-.06.08a1.63,1.63,0,0,1-.11.17,1,1,0,0,1-.07.15.36.36,0,0,1,0,.09l0,.06c0,.12-.08.24-.11.37v0l0,.16c0,.11,0,.22-.05.34a1,1,0,0,1,0,.17c0,1.34-.08,4.31-.08,4.46l5.46,5.48-.12.86Z"/><path class="cls-5" d="M23.09,6.47c.94,0,1.88,0,2.81.1.61,0,1.22.11,1.79.17l0,5.64h-2.3c-.47,0-.93,0-1.4,0-1.49,0-2.59.61-2.67,2.48,0,1.34-.08,4.31-.08,4.46h6.22c-.3,2.17-.58,4.24-.88,6.34H21.2l-.12,15.81H14.52l.13-15.84H9.28l.05-6.3h5.39v-.47c0-1.27,0-2.54,0-3.81A16.46,16.46,0,0,1,15,12.65,7.14,7.14,0,0,1,17.84,8a8.27,8.27,0,0,1,4.73-1.47Z"/></g></g></svg>