<svg id="Capa_1" data-name="Capa 1" xmlns="http://www.w3.org/2000/svg" viewBox="0 0 851.22 891.43"><defs><style>.cls-1{fill:#87aa30;}.cls-2,.cls-3{fill:#a4a7a9;stroke:#565353;stroke-linejoin:round;stroke-width:0.2px;}.cls-3{isolation:isolate;opacity:0.99;}</style></defs><path id="path2991" class="cls-1" d="M174.94,110.62l-.12,1.49-.67.75,1.34,2.08-1.84.67-.33,1.75-1.18.41,2.52,1.67L177,119l.17-1.25,1.84.92-.67,1.75-2.35.75.34,1.24-.08.84,2.84.33,1-.83.93.83-.34,1.67-1.17,1,.25,1.66,1.09,1.75-.5,2.33-1.09.42-2.6,2,1.09,1.58,2.68.09.17.74-1.34.92.17,1.33,1-.33,3.52.58-.09,1.75-.75.59.84,1.08,2.09-.08.92-2.09,2.26.17,1.42-1,.34,2.58,1.42,2.08-.33,2.75,3.76,1.75,3.27-1,1.25.5.09,1.25,1.15,1.63-.65,1.45L198.68,154l-.34,7.83.34,1.92-.92,1.66-1.68.08-1.5,2.25.08,2-1.51.17-.83-.92-1.68.25-.83,1.75.67,1.34-1.85,3.07L185,177.49l-1.59,2-2.09-.5-1.18,1.67,1.18,2.67,3.51,1.16.42,2.58s-1.59,1.42-2,1.75.26,2.08.26,2.08l-2.18.75-1.84-2.08-3,1-3.51,2-4.52.5-1.17-.58-1.43,1-.16,2-1.85,1.5-1.75-.84-1.26-2.5-3.43-3.16-2.26.75-2.43,2.58.34,1.83,3.93,4.17-1,2.5-2,.08-4.11-5.25L144.92,194l-1.22-.91-4.16-.17-.66-2,.17-3-3.33-1.49.33-2-4,.34,1.33-1.66-.67-1.66-3-1.65.16-2,3.33-5.13-.17-3.81,1.5-2.82,1,1.16-.66,2.49,4.16.33.49,1.16.5-2.48-1-1.83,3.32-1.66,2.5-.32-.17-.83L140.88,163l-2.17-1.49.5-2,1.33-1.82V156l1-1.16,2-.82,5.16-5,.66-3.31,2.83-6.3V132l1.67-2.81,2.33-.33v1.32l-2,.66-.5,8.45L151,143.91l.83,3.48,1.16-.5v-1.82l1.34-2.31,2.66-8.45,1-5.3,1.83-1.65-.17-.67h-2.5l-3-2.48,1-3.64h1.16l3.5-1.16-.17-2.82-1.16-.83,4.16-8.44,4.49-7.29,3.16-7.78,1.5-.17-.33,1-1.33,4.3,1.33,1.16-3.33,4.8.17,1.16,1.66-2.15,1.33-.16.33-2.16,3.17,2-2.34.83-.49,4.3,2.66,1.33Zm28,459L199.14,568l-1.21,2.8.65,1.62h3.91l-.65,3.57-1.31-.65-3.07.41-1.65-.12-1.41.82-1.53-1.76v-2.46l-2.12-1.17H189.1L185.71,570l-.74-2.64-1.85-1.88-6.3-1.91-.45-2-2.12-2.69h-3.17l-2.59-3.52,1.68-3.62-3.38-.75-1.65-.12-1.65-2.22-2-.36-.7,1.17H158.9l-1.65-4.33-2.58-.11-1.18-2-1.3-.58-.91.72-2.34-1.08.89-1.65-.33-.72-1,.13-2.57-4,.2-2.18.66-.2-.33-1.44-2.18-.8-1.19-3.82-1.31-1.05L140.34,523l1-1.24L139.74,520l-1.65-.13-1,1.38-1.52-.52-.07-1.52-3.42-3.62-2.7-.14-.2.93-.91.44-.81-1.31-2.18-1.89-.7-3.41-1.4-.75.4-1.08-1.46-.39-.59-1.07-.18-1.75-1.17-.94-.83-2.46-2.12-.46-.94,1.17h-3.06l-2.47-2.81-2.12-.82-3.17-2.69L105,493l-2.7-1-2.24,1.29-2.94,1.29L94,491.73l-.23-1.87-2.06-.37-2.19-.25-1.68,1.41-2.42-1.33-.52-.45L84.13,487,82,485.49l.55-2.17.83-.47-1.3-1.05-2.23-.12-1.42-2.23.21-2.32H76.88L75,476.08l.35-.94,3.18-.23.7-.35,1.06.11.94,2.11h1.18l-.12-2.11-1.06-1.4-.82-1.41-1.65.47-.82,1.87-2,.12-1.18-1.4L73.94,474H72.53l-1,.94-1-2.93,1.17-1.29,3.18-.7,3.06-2.57,1.77.11.47-1.52,3.53-2.81,1.29-.12,1.53-1.29-.23-1.17-2.24.12L79,465l-3.06.58-1.88-1.29L71.23,464l-.12-1.17-2.47,1.64L64.17,463l-2-4.79-4.71-4.45-2.7-2.82.35-4.8.94-.47,1.53,1.06,4.36,1.76,3.64-.71,1.77-2.22-1.18-3h-.35l-.94,3.27-2.24,1.06-5.06-1.88-1.65-3.51-.47-.23-.59-1.29-2.35-1.52L53.58,437l1.65.12,2.35,2.11,2,.35.94.58,1.65-1.64-.47-2.34h.94l1.29.94,2.71.11,1.41-1.75-.47-1.64-1,2.11-.83-.12-3.35-.75-2.5-.17-1.49.34,1.33,1.32-.33.33-2.33-1-2.34-1.66-2.32.17-.84,1-2-.16-1.67.32,1.33.34-2.82,4.3L44.71,440l-.83-1.16-3.5-1.33-.33-4-1.66-.66-2-2.65.17-.83-3.33-2.49-2.33-.33-1.5-2H27.74l.16-1-4.16-3.32L19.91,419l-1.33-1h-1l-1.16,1-1-1.16-4-.33-.84-.5-1.16.83L10.59,420h4.83l.5-.66,1,.16.5,1.83,2,.66.5-.66a29,29,0,0,0,4.16,1.49c.67,0,.84,2,.84,2l2,.5.67,1.16-3.33-1.33L22.08,425l-6.16-3.31H12.59l-2.33-.5-3.49-3.48-3.5-6-.83-2.32L.61,406.07l.16-1,2.17-.5L4.1,405.9l2.84-.68-.08-1.82L5.6,401.76l-.17-1.65-1.16-.66.17-.83H6.27L6.93,397v-1l2.67-1.49-2.83.33-2.5.83-.5,1.65-1.17,2,1.34,2.15h-2l-.17-2.81,1-3L5.6,394l3.5-1,7.32-6.29v-.83l4.49-4.47h.34l.33.66h1.16l.34-1.82,1.83-1h-2l-1.17-.34.84-.66v-1l4-3.81,2.33-5.13L32.56,365l.33-2,4.16-5.8,1-.33.34.66-1.67,2,2.66-1,3.17-4,2.66-2,4-.83,4.33-2.64,3.5-6.63,1.66-4,.83-.17,2.83-2.65,2.5-1.32H66l-.33,1.32-3.16,1.49-2.17,2.49.17,1.49,5.33-4,3.49-2.81,3.16-.17,1-1h3l2.16.49,1.5-.66,2.66-1-.66-1.82h2.16l.33,2.15,1.66-.83h2L88,334.2l-2.83,3.31.67,3.48-1.34,2.15L83.32,345,85,346.29,86.65,343l1.16-.83.17-3.64,3.16-2,1.33.16.84,1.66,1.33-.17L96,335.52l.83-.16,2.33-1.49,3.33-.17-.33,1.49,1.33.83-1.67,2-3.16.66-.33-.33H97.13l-2.49,2.15,1.5,1.83h1.33l.66,1.32h1l.67-.66-1-.33-.17-1.16,1.17-.5,1.49,1.16-.16,2.15,3.16,1.33,1.33,2.65,1.17-1.66-1-2.32-1.67-.66.17-2.65,1.16-.33.17-1.33,1.5-.82,2,.33-.17.83,1.5-.5,1.16.33-.33.5,1,1.32.66,4.47,1,.66,3.66,5.14-.83,7.12h-1.66l-2.5,1.49-1.66-.33-1.5-1.49-3.66,1-1,1.82,1.66-.83,1.5.17,1.33,1a36.51,36.51,0,0,0,3.83-.16c.67-.17,1.17-.33,1.17-.33l2.66,1,.83,1.33,3.16-1.83.5-6.12-2.16-6.79V344.3l1.16-2.65,1.33-.16.17,3,2,3.15,2.49,1.49.34,2.31,1.66-.49.5-3.48-.33-2.32-1-.33.33-.83,1-.33,1.17,1.49v4l.66,2.31,4.33,3.65-.17,2.48-2,.33-1,1.82,3.82-.49,1.34-2.82-.17-2.15-3.16-2.65-.5-3.15-1.67-1.32.34-1.33h2.16l2.83-2.81h1.33l1.5,1.66h2.33l.66,4.8,2.33.66,2.17-2.15v-2.49l-.67-.5-1.83,2.16-1-2.32,1.83-4.64,1.67.17.33,3.15,4-.67,4.63-2.46,1.36-1.68,2.83.5v2.15l-1.16,1.49,1.66,1.33-.5,3.81,1.67-1,1.33,1.33,3.33,3.31.33,11.26.83,1,.34,2.49,1.49.82V365l-1.16-2.65.17-8.11,1.49-4H172l2.33,4.63,5.66,2.48-.66,3.32-2,.33-2,2,5.66-1.66,1.67-4,2.16-1.65,3.16-.33v-.5l-2.83-.5-2,1-1.83-6.46.34-10.43,2.16-2h2.5l3.16-2.15L191,334l-2.17-1.16-1.5.66-1-1.66-.34-4.8,5.83-8.94,2.33-4.47-1-1.33-1.5,1.49-1.66-2-.84-8.78L187,299.25l1-1.33,1.21-1H190l.51,1.25,1.5.25-.42-2,2.18-.91.08-2.17-1.08-.58-1.34-2,.33-.5,1.26.83,1.17-1-.92-1.08-1.17-.08.16-3.09.84-.41.08-.92-1.92.08-1.17-1.16.25-1.83,1.34-.08.16-2.84-.92-1.5.67-1,1.18.17.75-1.58-1-1.42.92-.91,1.34.25,1-1.5-.59-1.42-1.17-.33.17-.92,1.84-.42.84.59,1.25-.5-.17-2,1.34-.83.59.08.84-1.17-.92-1.75,1.5-.66,1.26-5,1.09-.75.58-4.5,1-1.24V249l-2.35-1.42-.67-.83-.83-.41-.09-.83,1.17-.59.84.5,2.09-.17L205,244l.16-2.58L203,239.54l.5-1.75,2.85-1.08.25-1.75,1.5-1.17,1.3,2.59-.71,2.82-.95,8.37-1.18,11.78-.12,10.95,1.3,1.88,1.66,8.13.71,7.42,2.48,10.13,6.39,10.72,8.88,8.6.71,2.59,1.42,1.76-.35,5.19-3,3.3-6,2.47-.23,1.53-1.43,1.06.83,1.18-.71,2.71,3.79,2.35,7.93.95,1.78,1.88,2.84.94,7.84,11.76,5.11,18v4.48l2,7.3-.47,9.19,2.48,13.07,1.78,3.65-.12,2.72L253,416.57l-.59,4.24-3.43,4.12-.83,3.3-2.25,8.36-.47,6.84,2.13.82,1.66,1.41,2.48-.12,4.86-3.29,7.34-8,.23-2,1.66-.24,3.19-2.71v-2.36l.83-.94,2.37.94,1.42-.59-.71-1.17-.95.23-1.06-.7.71-1.3-1.78-1.18-.35-1.53,4.5.83.94-1.3-1.42-.94.71-1.42,1.66,1.54H277l.12-.71.83-.12-.47,1.65,1.18,2.24.12.82,1.42-.11,1.66.23L281,422l-.12-1.77,1.3-.47,2.61.47.59-1.53-1.19-.47-.71-1.42,1.78-.23,1.3.59.47-1.41-.35-.83-.12-2-2.48-.83.23-2.35-.94-.83.71-1.65,1.06,1.65,2.84-.59,1.3-1.76.83-.12.71,1.88,3.32,1.42.47-2.24,2-1.65h0l1,1.06.71,3.89-.24,10.48-1,3.52v1.06l-.47,1.06L295.51,430,294,433.87l.71,4.48.95,7.3-.12,5.07,0,10.15.23,7.41-.56,3.67.36,6.72L296,480l-1.54,4.48-1.07,1.06,1.17,4,1.19.94-.71,1.89-1.54.58,1.3.95-.24,3.53,1.54,1.3-1.42.82.12,1.77-1.54-.71-1.42.83.59,1.29-2.13-.47-1.18.71-1.3-1.18-.6-.47-1.77.35-.36-1.65.95-.82-.59-.82-1.66-.36-.71-.71-2.48-1.41-.6.71-2.36-.71-1.31-1.41.48-.71-1.07-.83-2.13.24-.71-1.88.48-.83-.6-.35-1.42.12-.83-.59.95-.94-.35-.83-2.61.12.47-1.53,1.9-.83-2.49-2.7-2,.11-1.66.83-1.3-.12-1.54-2.12-.82.83,1.53,1.76-1.18.82-.59,1.3L259.61,484l-.71.24-.59,1.53-.59.24-.24,1.29-1.65-1.53.82-2.59-1.3-1.18-1.54,1.18.24,1.18-1,1.88-2.6-1.06.47,1.53-1.42.83v1.06l1.54.12,1.42,2.23-1.89.59-2.84-2.47-1.42.35-1.42,1-.83-1.3-.71.23-1,2.36h-1.89l-.71,1.77-1.31-1-.71.12-1.18,1.89-2.49.82-.59.59-.59-.94L231.09,496v2.47h-1.9l-1.18-.59-1.3.47-.36,1.77-1.42-.47-1-1.06-.94.12-1.31,1.53-2.13-.94-.82.11.11,1.65-.94,1.3h-2.37l.71,2.59-1.78.82,2.13,1.42-.11,1.65-1.66,1.65.71.94,2.25.23-.59,1.77-1.42-.24-.95.95.59,2.59L205.1,569.61ZM68.34,332.54l2-.66h1.5l1-1.16,3.82-.66v-.83H73.5l-3,1.33-2.16,1.32Zm42.27,2.82-.83.33-1.33,1.16-2.66-.17-.34-.49-1.33-1.49v-2.32l-1.33-1-.33-1,1.5-.49,2,.49,3.65-1.16.34-1.32,3.16-2.65,2.5-.17.33,2-.17,1.82.5,1.82-1.33.67-2.16-.5-.67,1,.33,2ZM95.8,325.59l3.33-.17,1-1h2.66l.67-2.15-2.83-.33-.57.94-2.09.38-2.5,1.33Z"/><path id="path4483" class="cls-2" d="M598.84,675.57l-2.1.26-1.86-.16-1.46,1.54-1.14,1.93-3.48,1.05-1.54.24-3.33,3.88-.24,2.34-2.19,1.61H579l.22,2.06,2.13,1.06,2.13-.7,2.13.82-.59,1.18.59,2.94,3.2-.47,2,3-1.3,2.23,1.54,2.83,1.54.59,5.44,3,3.2-.71,1.3,2.12a21.09,21.09,0,0,0,2.37.35c.59,0,2.25-1.76,2.25-1.76l4.38.11,3.67,2.83,2,.35,1.42-3.29,2.84-.71,6.51.35,1.42-1.29,2,.47.59,1.06,1.31.23,7.45,3.42,5.09,2.12,6.16,6.36,4.26,2.35.71,2.24,4.5.71,1.42,1.89,5.56.47,2.72-1.42,2.73,1.89,1.18,3.77-1.06,3.18.82,3.06,1.31.82.59,2.59,1.06.71.48,2,3.31.95a15.2,15.2,0,0,1,2.61-1.3c1.3-.47,2,1.18,2,1.18l1.06,1.88,3.56,3,.35,1.17,6.75,3.3,1.52,2.86,5.88,4.28,7.55,7,4.27,1.49,10.66-39.29-8.93-3.82-3.91.71-6.15-1.53-3-4.36-2.25-1.42-3.2-4.12s-.83-4.24-.83-4.71-2.25-7.89-2.25-7.89l-.59-4.48L693.37,694l-3.79-1.64-.23-1.65-3.44-.36-7.1,1.53-6.63,1.89-3.79-.59-1.65-.82-5.21.11-3.55-2.7-5-1.3a22.91,22.91,0,0,1-3.79,1.3h-4.74l-.83,1.29h-8.16L634,688.67l-3.08.23-.59,1.77-2.49,1.06s-1.89,2.47-2.36,2.47-3.2-.24-3.2-.24L619.62,695l-1.06-2.23-3.31-.12L611,689.61l.47-2.12s-2.12-2.71-2.12-3.18.11-2.36-.36-2.71-4-2.59-4-2.59l-2.49-.12-1.18-2.24-2.44-1.08Z"/><path id="path2873" class="cls-2" d="M813,451.12l-5-4.74h-3.08l-4-3.65-5.92-2.47-5.32-4.95-4.38-3.06-2.61-5.54-1-2.7-2.68-.36-6.74,2.94-1.66-.35L761.68,430l4,2.12.23,3.53-4.38,2.83L760.37,441l-1.52,2.71,2,.23L762.5,446l-.12,3.89,1.54,3.42a30.93,30.93,0,0,0,3.43,1.05c.48,0,2.25,1.77,2.25,1.77h3.2l6.51-3.53,3.55-4.13,3.79.95,0,.55,4.52-2.83,10.21.5,1.18,2.33,8,2.66,1.37-.36.47.88,2.6-.13-.55-1.16-1.52-.77Z"/><path id="path2875" class="cls-2" d="M786.68,450l0-.55-3.79-.95-3.55,4.13-6.51,3.53h-3.2s-1.77-1.77-2.25-1.77a30.71,30.71,0,0,1-3.43-1.06l-1.54-3.41.12-3.89-1.66-2.12-2-.24-1.32,3.77-.12,2.59-2.13,5.07-2.06,1.33-2.32,1.26-.95,2.12.95,3.06V465l-3.67,2.12-1.18,1.65.59,2.36-2.25,2.74,1,.67.94,1.89,4.15.35.42.5,4,.88,5-.5,1.34-3.5.83-.16,3.19.33,1-1.83,2.18-1,4.35-5-.17-2.67,1.17-2.83,10.55-8.5,2.34-2.49Z"/><path id="path2879" class="cls-2" d="M759.17,386.72l.09-2.09,1.39-1,.41-1.95,4-3.34,1.16-4.49,3.14-2.53,2.57.46,4.66-.58.69-1.17,3.17-.16,3.94.76.16-1,2-.9,1.37-.17.94,1.28,11.14-.43,2.23-3.08h2.4l2.39-1.8,2.83-.43,1.29-.68,4.19,3.94.43,4.11,2.74,1.8,2.06,4,.17,6.43,1.62,1.19,1.46,5,1.57.69-4.46.06-1,2.74-2.8,1.71-2.36,2.36-3.55,2.21-1.78-.7-3,1.76-2.25,1-1.77.49-1.77-2.07-1.91-4.58-5.21-3.18L790,389.62l-4.73,1.05-1-.23-.47-2.48-3.32-1.41-5,3.65-4-1.53-.24-2.24-3.67-.7-7.34,3.53h-2.72l-2.07-.69Z"/><path id="path2883" class="cls-2" d="M744.38,473.84l-2.3-1.65-3.61.34-3,1.89-2.84-.6-2.6-2.23-1.9-.24-2.13,1.3-2.6.35-5.09-.82-.31-1.06,1.85-2.48,3-2.59,2.36-4.59-1.3-3.18,1.78-3.07-1.54-3,1-9.43L727,442l1.93-3,1.5,1.44,2.25.95,2.6,2.47.24,1.77,2.84,2.35,3.55-.12,3.32.59,1.3,1.77,3.43.24,1.07.94-.12,2.12,1.9,1.41.45,1.44-2.35,1.27-.95,2.12.95,3.06V465l-3.67,2.12-1.18,1.65.59,2.36-2.26,2.72Z"/><path id="path2885" class="cls-2" d="M753.24,456.42l2-1.32,2.13-5.07.12-2.59,1.31-3.76,1.53-2.71,1.18-2.48,4.38-2.83-.23-3.53-4-2.13-3.43,1.17-3.45-1.39-2.25-2.95-2.73-2.24-.71-5.18-2.48-.71-3.55-1.41-2.37-.47.24,4.48-1.07,5.41-2.13,3.54-3,1.17-3.55,4.13-1.18,1.88-1.14,1.62,1.49,1.44,2.25.95,2.6,2.47.24,1.77,2.84,2.35,3.55-.12,3.32.59,1.3,1.77,3.43.24,1.07.94-.12,2.12,1.9,1.41.44,1.44Z"/><path id="path2887" class="cls-2" d="M751.24,389.77l-4.62.18-1.87.52-3.14,1.38-3.61-.92-3-1.61-2,.69-1.87,2.41-.81-.34V389.2l.93-2.19v-1.49l-1.11-.58-2.5-1.73v-2.07l-2.57,1.38-.93,1.5H723l-.35,1.61-3.61-.34-.94-.92-1.39,1.72-1.87-.8-.31-1.43-3,1.14-1.15,2.28-2.31.81-1.32-.81h-1.31l-1.49.81-2.8.17-1.5,1.29,3.72,1.46-.18,2.84,1.19,1.18-2.61,3,1.07.7-1,1.88,3.79,1.3,1.9-.59,2.84,3,5.32.94,1.42,6.24,2.37,2.36v6.48l2.37.82,1.89,1.77.83,4.71,1.9,1.29-.36,8.13,2.76,2.11,1.15-1.64,1.18-1.88,3.55-4.13,3-1.17,2.13-3.54L741,421.3l-.24-4.48,2.37.47,3.55,1.41,2.48.71.71,5.18,2.73,2.24h0l2.25,2.95,3.43,1.39,1-3.87-3.32-2.82,1.07-2-2-2.59.36-7.54-5.65-7.53-.74-4.83H747l.6-2.12,2.72-3.77Z"/><path id="path2891" class="cls-2" d="M688.46,530.37l3,5.58-.34,1.66,1.68,4.34,1.67,1.66,4.69,5.67,3.68,1,6.7-1,1.68,1-.68,2.67,3.69,5.33,7.36,4.33,4,3,5.69,1,6.7-2.33,3.35-2.33,2,.66,3.28,3.09-1.36,1.51v3.52l-2.12,1.65,1.65,3.29,2.6,2.35L745,581.77l-2.13,2.12,1.19,2.11-.48,4,.48,5.65,2.12,6.34-.47,3.53-.24,6.82-1.89,3.06,1.18.94,1.89,5.64,2.37,2.59,4.49.7,1.88,2.82,1,4.47,1.18,1.17,1.66,3.3,1.65,1.17L760.6,642l-3.54,5.18-2.83,1.64-1.42,4-3.55,5.64-.71,4.7,1.18,4.94-.94,4-1.65,2.11-.4,3.21-.75,3.4-3.33,6.45-.5,4.47-6,7-5.33,2.15L728.18,703l.83,3,2.67,3.31-1,1.85L728.53,710l-1.78-3.29-1.66-1.06-.47-2.24,1.66-1.65-1.19-1.65-3.55-.82-.94-1.89,2-1.18-.71-3.3-1.54.36-9.23-5.3-2.73-.36-.59-2.94-6.51-2.48L695.62,679l-.24-2.12-4.26-2.71s-2,.7-2.6.47a27.5,27.5,0,0,1-3-2.24l-1.42.94h-3.79l-4.62-2.82-1.18-2.95-3.2-2.24-1.89-.12-3.91-4.35-3.44-.62.48-2.21,2.49-1.65,1.18-3.06,3.91-3.65,1.06-2.24.72-.12,1.18-1.64L670.64,644l-.11-1.77.82-.71.6-3.65.47-.71.35-2.59-.82-1.41v-2.36l1.54-2,1.3.12,1.06-2.47-2.25-2.12-.35-2.12-3-.12-2-3-.71-2.47-1.54-.35-.36-1,.71-2.12-1.54-.82-.83-.35v-1.54l1.54-1.06.83-2.23,2.72-.94.71-2.71,2.37-2.36-.83-.83-.23-2-3.44-5.89-3.19-1.06-1-1.88-1.54-.35-3.31-2.6-.48-4.94-1.06-3.89-3.08-5.89-3.91-3.3-3.89-1.88,1.88-2.71,1.07-2.24-1.15-1.36,1.59-.93.5-1.17-2.42-3.16.92-3.08,1.59-.33,1.92-3.5-1-3.17-.92.42L649,544.7v-2l.84-.16,3.43-3.83-.25-2.17,3.35-3.66,2.34-2,1.34-2.75,4.77-2.08.67-2.17.25-2.74,1-.79,1.2,2.25,1.3.94v1.54l2.37,2.58,2.84.59,2.25,3.54,1.3-.12L680.7,527l.6-.23,1.06,3.64,1.66,1.06,4.44-1Z"/><path id="path2893" class="cls-2" d="M662.09,660.27,659,661.54l-2.84-.33-4.52.83-.84-2-.5-2.5-4-8.82-2.34-1.67-1.51-6.33,1-.83v-3l-3.19,1.5-5.35-.33h-5.36l-1.5-3-3-1-1.34-1.83,1-2.34-.34-2.5-3.18.34L617.65,626l2.8-1.81,1.17-4.66-.67-1.5.84-3,2.34-.33-.5-1.67,3.18-2,3.35-3.66.17-3.17,1.84-1.66,1.84.33,2.51-2.17,4-2.49,2.68-3.5,2.68-.67,1.84-3.16-1.17-2.34-1.51-6.16s.84-6.16.17-6.83a21,21,0,0,1-2-3.49l-1.34-.84H640l-1.25-2.2,2.38-.89,3.08.24.71-1.3,1.24-.35,4,1.88,3.91,3.3,3.08,5.89,1.06,3.89.48,4.94,3.31,2.6,1.54.35,1,1.88,3.19,1.06,3.44,5.89.23,2,.83.83-2.37,2.35-.71,2.71-2.72.95-.83,2.23L664,610.57v1.54l.83.35,1.54.82-.71,2.12.36,1,1.54.35.71,2.47,2,3,3,.12.35,2.12,2.25,2.12L674.79,629l-1.3-.12-1.54,2v2.36l.82,1.41-.35,2.59-.47.71-.6,3.65-.82.71.11,1.77,2.49,1.65L672,647.32l-.72.12-1.06,2.24-3.91,3.65-1.18,3.06L662.59,658l-.5,2.23Z"/><path id="path2895" class="cls-2" d="M727.91,729.44l-9-3.79-3.91.71-6.15-1.54-3-4.35-2.25-1.42-3.2-4.12s-.83-4.24-.83-4.71-2.25-7.89-2.25-7.89l-.59-4.48L693.37,694l-3.79-1.65-.23-1.64-3.44-.36-7.1,1.53-6.63,1.89-3.79-.59-1.65-.83-5.21.12L658,689.72l-5-1.29a23,23,0,0,1-3.79,1.29h-4.74l-.83,1.3h-8.16L634,688.66l-3.08.24-.59,1.77-2.49,1.06s-1.89,2.47-2.36,2.47-3.2-.24-3.2-.24L619.62,695l-1.06-2.23-3.31-.12L611,689.61l.47-2.12s-2.12-2.71-2.12-3.19.11-2.35-.36-2.7-4-2.6-4-2.6l-2.49-.11-1.18-2.24-2.37-1.06,2.72-3.41.36-2.36,1.77-1.3.24-1.29-1.29-1.94,2-1.24.83-3.54,1.18-2.59-.83-2.94-2.13-3.3-.12-2.94,1-1.18-1-1.77-2.72-3.06v-2.36l.83-2.35-.32-.64,3.16-.54.48-2.83,2.36-1.29.36-3.07.94-1.29,1.07.47,2.72-1.53-.47-1.41.74-1,2.64-.17,2.19,1.3,3.5,1.7,3.18-.34.34,2.5-1,2.34,1.34,1.83,3,1,1.5,3h5.36l5.35.33,3.19-1.5v3l-1,.83,1.51,6.33,2.34,1.67,4,8.82.5,2.5.84,2,4.52-.83,2.84.33,3.15-1.27,3.45.6,3.91,4.35,1.89.12,3.2,2.24,1.18,2.95,4.62,2.82h3.79l1.42-.94a27.5,27.5,0,0,0,3,2.24c.59.23,2.6-.47,2.6-.47l4.26,2.71.24,2.11,5.68,3.18,6.51,2.48.59,2.94,2.73.36,9.23,5.3,1.54-.36.71,3.3-2,1.18.94,1.89,3.55.82,1.19,1.65-1.66,1.65.47,2.23,1.66,1.06,1.78,3.3,2.13,1.09.6,3.28L730.09,716l.7,2.22Z"/><path id="path2897" class="cls-2" d="M691.67,764.69l-6.85-2.37-4.51-4.48.35-1.38-.69-2.88-7.17-1.38-.69.92-3-1-1.27-1.15h-4.39l-14.34-4.72L648,745l-3,.92-3.81-2.07-.81-2L637.08,740l-3.69-.11-4.86-3.22-.58-1.5h-4.74l-3.46.81-6.24-.58-1.62-1.49-2.65-.09-4.36-6-1.5-6.17-1.68-2-1.67-.17-2.18-2.66-2.51-2.5-2-1.34-3.18-.16-.5-.5L587.3,715h-2l-3.35.34-4.19-.67-2.84,1-2.68-2-.33-3.33-1.71-1.86.77-3.69-1.42-1.53-.11-3.65-.6-.47v-3.42l2.25-.94.36-2.48,1.54-1.52,3-.48,1.42.71,2-.71,2.07,1.06,2.13-.7,2.13.82-.59,1.18.59,2.94,3.2-.47,2,3-1.3,2.23,1.54,2.83,1.54.59,5.44,3,3.2-.71,1.3,2.12a21.09,21.09,0,0,0,2.37.35c.59,0,2.25-1.76,2.25-1.76l4.38.11,3.67,2.83,2,.35,1.42-3.29,2.84-.71,6.51.35,1.42-1.29,2,.47.59,1.06,1.31.23,7.45,3.42,5.09,2.12,6.16,6.36,4.26,2.36.71,2.23,4.5.71,1.42,1.89,5.56.47,2.72-1.42,2.73,1.89,1.18,3.77-1.06,3.18.82,3.06,1.31.82.59,2.59,1.06.71.48,2,3.31.95a15.2,15.2,0,0,1,2.61-1.3c1.3-.47,2,1.18,2,1.18l1.06,1.88,3.56,3,.35,1.18,6.75,3.29,1.52,2.87,6,4.34,7.36,7,4.33,1.53L713,784.23l-9.22-2.1-.69-2.65L698,776.62l-.14-3.65-4-5.73Z"/><path id="path2901" class="cls-2" d="M601.43,637.36l.32.66-.83,2.35v2.36l2.72,3.06,1,1.77-1,1.18.12,2.94,2.13,3.3.83,2.94-1.18,2.59-.83,3.54-2,1.23-2.61-1.47h-2.25l-2.84,3.3-1.89-.94-2.84-.36L588,667.46H586.6l-1.78-1.41-3-.71-5.09-2.59-5.56-1.06-2.61,1.53L564,663l-.83-1.19-.36-2.11L561,657.45l-2.48-.71-.83-1.88-1.9-2.47.24-1.7,2.49.87,5.8-1.76,4.49-.59,3.67-2,5-.59,3.9-2.59,7-2,3.66-2.71,1.07-3.3,4.14.12,4.18,1.23Z"/><path id="path2903" class="cls-2" d="M556.06,650.7l2.49.86,5.8-1.76,4.49-.59,3.67-2,5-.59,3.9-2.59,7-2,3.66-2.71,1.08-3.3L592,634.84h-1.89L589,633.66v-2.12L587.19,630l.24-4.36.83-.82L589,622l-1.9-1.06-3.43-.47-3.2,2-3.07-.24-4.62-1.53-1-1.41-3.43-.71-.24-1.06-1.32-.91-.45,1.85.35,1.18-2,.94h-2.37l-1.06,1.3.24,1.77L560,624.83l.22,2,.83.7.24,7.78-1.9,6.59-2.6,5.07-.71,3.73Z"/><path id="path2907" class="cls-2" d="M612.8,624.89l2.63-.16,2.21,1.32,2.81-1.82,1.17-4.66-.67-1.5.84-3,2.34-.33-.5-1.67,3.18-2,3.35-3.66.17-3.17,1.84-1.66,1.84.33,2.51-2.17,4-2.49,2.68-3.5,2.68-.67,1.84-3.16-1.17-2.34-1.51-6.16s.84-6.16.17-6.83a21,21,0,0,1-2-3.49l-1.34-.84H640l-1.23-2.16-3.12.66-2.52,3.17-3,6-4.52,3.5-9.54,4.5s-5.19,0-6-.17-5.35-1.83-5.35-1.83l-3.94-1.58.92,2.58,1.17,1-1.17,2.16,1.68,2.84-.84,3.16-1.68.83-.16,1.17.67,2,.16,2.66,1.64,2.36,1.3,2-1.77.59-.59,2.94.82,2.48H604l.71.94,4.26.59,1.78,3.29,1.3,1.53-.71,3.19,1.46,3.24Z"/><path id="path2909" class="cls-1" d="M638.76,569.09l2.41-.92,3.08.24.71-1.3,1.3-.35,1.89-2.71,1.07-2.24-1.15-1.37-2,.33-1.92-1.08-1.32-3.2-3.12,0-1.5-1.84,1-2.41-.55-1.4-3,1.23-1.34.5-7.45-.83-1-1.17-7.95-1.75L615.43,547s-3.1-.17-3.85-.17-1.76-1.25-1.76-1.25h-1.67l-1.93,1.75-3.68-.75-1.17-.92-6.78-.5-1.76-.75.08-2.41-1.58-.32-.34,3.57-1.34,3-.34,1.84,1.85,1,.16,3-.67,1.66,3,2.17.35,2.51,1.1,1.36.36,3.06,3.43,3.54,2,4.47,1.07,1.06.35,7.42-1.59,2,4,1.6s4.52,1.67,5.35,1.83,6,.17,6,.17l9.54-4.5,4.52-3.5,3-6,2.52-3.17,3.07-.67Z"/><path id="path2911" class="cls-2" d="M648.07,560.43l1.59-.91.5-1.17-2.42-3.16.92-3.09,1.59-.32,1.92-3.51-1-3.16-.92.42-1.26-.84v-2l.84-.16,3.43-3.83-.25-2.17,3.35-3.66,2.34-2,1.34-2.75,4.77-2.08.67-2.17.25-2.75,1-.78,0-1.76-.83-1.41,1.18-2.12-1.77-2.24,1.21-4.14-2-.92-2.37,1.65-.36,1.88-6-.47-6.16,2.36-1.77,2.47-2.37.47-2,4.6-3.08,1.17-.24,6.83,2,1.06V534l1.89,2.47-1.3,12.13,1.06,5-1,2.82,1.36,3.3,1.92,1.08,2-.33Z"/><path id="path2913" class="cls-2" d="M601.53,601.77l-.16-2.69-.67-2,.16-1.17,1.68-.83.84-3.16-1.68-2.84,1.17-2.16-1.17-1-1-2.61,1.59-1.95-.35-7.42-1.07-1.06-2-4.47-3.43-3.54-.36-3.06L594,560.44l-1.51,1.14-.12,1.53L591,564.75v1.54l-1.78,1.41-3.78.35-1.07,1.77.71,2-2.72,1.53-4.85.71-1.19,1.18-1.18-1.89-1.54-.59-3.2-3.65.24-1.29-1.24-2.23L566,568.26l-1.5.67-.32,1.5.13,2.1-1,.94-.71,3.42-2,.88,1.59,1.83v1.29l-.82,2v2.24l1.29,2s-.47,2-.59,2.6-3.07,2.82-3.31,3.29-1.3,5.89-1.42,6.36-2,1.06-2,1.06l2,5.66,3.67,2,.71,1.65.75.12,2.68.7,1.42,1.53,5.09-1.18,1.66-2.82,2.72-.12,5.45-4,3.31-.12v-2.48l2.73-.47,4.26,3.77h3.66l1.07-.94,4.87-2Z"/><path id="path2915" class="cls-2" d="M594,560.5l-.35-2.56-3-2.17.67-1.66-.16-3-1.85-1,.34-1.84,1.34-3,.33-3.5L589,540l-.84-4.83-1.34-2,.84-2.17,3-2.16,1-2.67L590,524.19l-1.51-.42h-.94L584.82,526l-1.77-.24-2.61.47-2,1.77-2.2-.83L574.58,530l1,4.17,1.67,2.5-2.18,3.83-.67,5-1.33,2-1.51,10.33-2.51,3.16.32,4.67,1.24,2.22-.24,1.29,3.2,3.65,1.54.59,1.18,1.89,1.19-1.18,4.85-.71,2.72-1.52-.71-2,1.07-1.76,3.78-.36,1.78-1.41v-1.53l1.42-1.65.12-1.53,1.5-1.08Z"/><path id="path2917" class="cls-2" d="M638.66,550.8,635.6,552l-1.34.5-7.45-.83-1-1.17-7.95-1.75L615.43,547s-3.1-.17-3.85-.17-1.76-1.25-1.76-1.25h-1.67l-1.93,1.75-3.68-.75-1.17-.92-6.78-.5-1.76-.75.08-2.41-1.65-.32L589,540l-.84-4.83-1.34-2,.84-2.17,3-2.16,1-2.67L590,524.18l1.72-1.59h1.66l.12-2.59-2.73-2,.83-2.47,4-5.06h1.9c.59,0,1.89-1.3,1.89-1.3l-.29-5.64,2.19-.22,3,.25,1.25,2.33,1.93.09,1.09,3.16-1,1.92.5,2.25,2.77,1.08.83,1.75-.08,2.91L610,520.46l1.25,4.16,1,2.67,2.34.58,1.51,2.92,3.35.25,4.26,2.41,1.18-1,2.51.92,1.42,4.91,1.68.75,2.26,5.83,2.17-.17,2.09.75.17,2.5,1.68,1.09-.21,1.77Z"/><path id="path2919" class="cls-2" d="M642.76,556.5l1-2.93-1.06-5,1.3-12.13L642.12,534v-4.25l-2-1.06.24-6.83,3.08-1.17,2-4.6,2.37-.47,1.77-2.47,6.16-2.36,6,.47.36-1.88,2.37-1.65,2,.92,2.09-.45.71-1.53,2.72-1.3V502.8l1.54-.47-.23-2.36-2.25-.58-1.78-2.83,1.42-3.65-1-4.12.59-4.59-3.66,3.64-2.37.48-.83.82.24,2.83-1.54,1.76-2,1.18-.59,1.77-1.78,2.24-4.14.7-1.66-1.88h-2l-1.9,2.94-3.9,3.07.35,2.35-1.54,1.77-2.48.24-2.73,2.47-2,5.18-1.77.24-2.13,2.23-3.2-2.23-.71-4.25-1.54-.82,1.66-5.89-1.54-1.18-.27-3.4-2.47-2.1-5.63-2.19L616,493.52l-4,.57-.12,2.12-1.42,1.53-.47,3.65-2.25,1.53-.31,3,1.09,3.17-1,1.92.5,2.25,2.77,1.08.83,1.75-.08,2.91L610,520.46l1.25,4.16,1,2.67,2.34.58,1.51,2.92,3.35.25,4.26,2.41,1.18-1,2.51.92,1.42,4.91,1.68.75,2.26,5.83,2.17-.17,2.09.75.17,2.5,1.68,1.09-.21,1.78.54,1.38-1,2.41,1.5,1.84,3.06.06Z"/><path id="path2921" class="cls-2" d="M688.46,530.36l2.9-2.35,5.21-9.07v-3.65l1.18-2.12,1.3-.59,2.61-9S700,502,700,501.27s-.24-3.06-.24-3.06l-5.09-3.89-3.43-.94-1.89-3.53.59-2.36-1.78-1.41-.71-8.13,1.3-2.47s3.08-.12,3.67-.71S694,473,694,473l.55-3.16-3.15-1.43-.71-3.3-1.07-.71-4.49,1.65-3.44-4.47-2.37-3.07.6-3.53-1.66-.35-3.2.12-3.43-1.89-1.18-5.42-1.87-3.4-1.57-.13-2.6,2.59-.12,3,.71,4.18,3.55,2.6,1.54-.24,2.49,2.24-.24,5.06-1.54,1,.59,3.18,1.78,1.88v2.24l-1.78,3.3-1.89.59.47,3.77,1.3,1.18-.83,3.79-.59,4.57,1,4.12-1.42,3.65,1.78,2.83,2.25.58.23,2.36-1.54.47v2.59l-2.72,1.3-.71,1.53-2.08.43-1.23,4.16,1.77,2.24-1.18,2.12.83,1.41v1.77l1.18,2.24,1.3.94v1.53l2.37,2.59,2.84.59,2.25,3.54,1.3-.12L680.7,527l.6-.24,1.06,3.65,1.66,1.06,4.44-1.06Z"/><path id="path2923" class="cls-2" d="M670.41,484.19l.82-3.76-1.3-1.18-.47-3.77,1.89-.59,1.78-3.3v-2.24l-1.78-1.88-.59-3.18,1.54-1,.24-5.06L670.05,456l-1.54.24-3.55-2.6-.72-4.23-1.72,1.23-4.07-2.51-4.35,1.16-4.86-3.66-3-.67-1.51-3.66-4.52-1.5-.33-2.5-2.52-.34-2.57,1.49-.24,2,1.42,2.24-1.18,2.83-1.66.35.35,1.42.83.82.71,3.77,1.07.59,1.18,2.94-.47,3.18-1.07.47v2.12l-1.89,1.65-2.37,2.24-1.42.35-3.31,2.36-.36.94,1.42.36v1.17l-2.13,1.65-2-.7-2.49.94-.47,1.17-1.07-.82-1.65.82-1.3-1.64-2.73-.71-2.6,1.29-1.9,2.48-2-2-1.77-1.65-3.08-.35-3-.45-1.52,1.86-.24,2.94-1.65,2,1.06,4.47,1.42.94,1.54,2.71v1.18l-2.13,2v1.06a24.16,24.16,0,0,1,.36,2.95,9.4,9.4,0,0,1-1,2.82l2.37.83.82,1.18-.59,1.65-1.89,1.17.12,1.3.79,2.14,2.17-.23,3,.25,1.25,2.33,1.93.09.31-3.05,2.25-1.53.47-3.65,1.42-1.53.12-2.12,4-.57,2.22,2.65,5.63,2.19,2.47,2.1.27,3.4,1.54,1.18-1.66,5.89,1.54.82.71,4.25,3.2,2.23,2.13-2.23,1.77-.24,2-5.19,2.73-2.47,2.48-.23,1.54-1.77-.35-2.35,3.9-3.07,1.9-2.94h2l1.66,1.88,4.14-.7,1.78-2.24.59-1.77,2-1.18,1.54-1.77-.24-2.82.83-.83,2.37-.47,3.67-3.65Z"/><path id="path2925" class="cls-2" d="M681.12,388.73l3.71,1.58.09,1.53,2,1.13-1.47,2.72v3.17l1.85,3-.17,3.66-1.17,1.34-1.18,4.66,2.18,3.83.17,3-2.85,3.83-.33,5.16,1.5,4.83-2.84,2.5v1.67l-6.2,1.83-1.5,3.67-2.48,1.21-2-.79-1,.35-.81,1.42,1.88,3.41,1.18,5.42,3.43,1.88,3.2-.11,1.66.35-.6,3.53,2.37,3.07,3.44,4.47,4.49-1.65,1.07.71.71,3.3,3.12,1.41,2.8-.12.35,1.07,7.81,1.29,3.44-1.06,2.13.24,1.54-.83,5.54.63,1.8-2.4,3-2.59,2.36-4.59-1.3-3.18,1.78-3.06-1.54-3.06.94-9.43,1.9-.7,1.93-3-2.76-2.1.36-8.13-1.9-1.29-.83-4.71-1.89-1.77-2.37-.83v-6.47l-2.37-2.36-1.42-6.24-5.32-.94-2.84-3-1.9.59-3.79-1.3,1-1.88-1.07-.7,2.61-3-1.19-1.18.14-2.85-3.65-1.44-4.29.81-1.16,1-2.3-.17-.17-.81-2-1-2.3-1.3v-1.47l-1.49.17-1.31,1.14Z"/><path id="path2933" class="cls-2" d="M590,524.18l1.71-1.59h1.66l.12-2.59-2.73-2,.83-2.47,4-5.06h1.9c.59,0,1.89-1.3,1.89-1.3l-.27-5.66-.79-2.11-.12-1.3,1.89-1.17.59-1.65-.82-1.18-2.37-.83a9.4,9.4,0,0,0,1-2.82,24.16,24.16,0,0,0-.36-2.95v-1.06l2.13-2v-1.18l-1.54-2.71-1.42-.94-1.06-4.47,1.65-2,.24-2.94,1.52-1.83,0-2.88-2.6-1.53V465l2.25-2.12,1.18-2.94-.71-2.36.71-2.12,1.78-1.53.47-2.71-.78-2-4.57.1L596.18,451l-2.35.83-2.51,2.5v3.33l.51,1.67-1.34,2.33-1.18,4.16-2.84.5-4.35,4-.34,1.17-3.51-.34-2.39,1.26-.46,1.41-1.17.33L573.08,476l-.51,3.67-2.84,4.16-2.51,1.33-1,3.84,1,2.66-.17,2.67-1.68,1.49-.33,4-.84.83v4l2.18,3.5,2.51,2.33,2.68,2.83,2-1.33.67-1.17,1.17.84-.5,2-2.35,3.16.84,4.66,2.34,2.84.47,2.87,2.21.84,2-1.76,2.61-.47,1.77.24,2.73-2.24h.94l1.49.41Z"/><path id="path2935" class="cls-2" d="M599.61,470.32v-2.85l-2.6-1.53V465l2.25-2.12,1.18-2.94-.71-2.36.71-2.12,1.78-1.53.47-2.71-.78-2,.66-1.44,4.14-4.48,2.73-1.29,1.77-2.36-1-1.77.6-2.12,2.24-.23,1.9-2.36-.48-2.24s1.07-.47,1.07-.94,1.18-6.12,1.18-6.12l-2.25-1.77-.94-2.71.09-2.25-1.55-1.26,5.47-1.15h3.68l1.5,1,1.17-2.33h1l2.84-1.83,2.17,1,3.35-2.33,1.11,2.2,1,.94-1,1.77L633,416.35l-.71,1.17-2.37,1.18.24,2.71,2.49,1.65,1.42,2.36.23,5.53-.59,1.3.36,1.41,2.84.71.53,2.6-2.66,1.52-.24,2,1.42,2.24-1.18,2.83-1.66.35.35,1.41.83.83.71,3.77,1.07.59,1.18,2.94-.47,3.18-1.07.47v2.12l-1.89,1.65-2.37,2.24-1.42.35-3.31,2.36-.36.94,1.42.36v1.17l-2.13,1.65-2-.7-2.49.93-.47,1.18-1.07-.82-1.65.82-1.3-1.64-2.73-.71-2.6,1.29-1.89,2.48-2-2-1.77-1.65-3.08-.36-3-.44Z"/><path id="path2937" class="cls-2" d="M680.39,390.05l-1.32-1.31v-1.46l-2.8-1.3h-2l-1.49-.82H670l-3.13-.16-2.14-1.14h-3l-2.38-1.26-3,1.54-1.33.06-.55,1-1.33-.5L651,386.34l-1.36-.85-3.34,1.83-3,7.79,1.55,2.36-3.68,3.31-.56,1.89-1.65-.39-.84,1.33-3.68,1.17-.16,2.32-1,3.21,1.1,2.15,1,.94-1,1.77L633,416.35l-.71,1.17-2.37,1.18.24,2.71,2.49,1.65,1.42,2.36.23,5.53-.59,1.3.36,1.41,2.84.71.55,2.69,2.41.28.33,2.49,4.52,1.51,1.51,3.66,3,.67,4.86,3.66,4.35-1.17,4.06,2.5,1.74-1.22.12-2.94,2.6-2.59,1.54.12.83-1.42,1.07-.35,2,.77,2.48-1.19,1.5-3.67,6.2-1.83v-1.67l2.84-2.5-1.5-4.83.33-5.16,2.85-3.83-.17-3-2.18-3.83,1.18-4.67,1.17-1.33.17-3.66-1.85-3v-3.17l1.47-2.74h0l-2-1.1v-1.5l-3.82-1.59Z"/><path id="path2941" class="cls-2" d="M519.18,697.8l-1.85.22-1.51-1.08-1-1.08-2.76-1.67-2.26-.25.58-2.33-2.34-2.42-1.84-2.83-1-.9-1-1.6,1.23-3.54-1.62-4.45,3.29-4.56.72-4.56,2.18-2.12,2.18.46,1.73-4,1.17-2.62,1.18-.05.16-1.66,2.35-.71h2.34l1.51,2.83,1.84,1.16,3.62.17-.11,1.38-.61,1.55-2.35,2.28-1.17,1.83-1.12,5-3.85,5.66.34,2.34,4.91,2.61-.33.93-4.92,1-.27,2.55,2.84,3.57.84,3.17-2,1.83v1.33a20,20,0,0,1,3.52,1.33c.67.5,2.18-2.65,2.18-2.65l3.51,1.37,1.17,1.27.25,1.39-1.5,1.08-.42,2.84-1.76.66-3.1-3.33-2.42.12-2.26-1.5-.33-2Z"/><path id="path2939" class="cls-2" d="M522.12,712.54,520,711.41l-1.8-1-.47-2.34-3.18-1.29h-1.77l-1.76-1.4-.35-1.76-2.59-1.87-3.06.94-1.18,3.62-4.59,2.23h-4.59l-.82-1.29-1.93-.2.53-1.59,1.68-.91-.93-1V701.6l-2.42-.75L487,695.44l-1.42-.58-.5-2.92,1.25-.83,1.26-2.08,2.84-.5,1.84-2.33-1.5-1.67-.34-1.75,1.12-2.18,1.31-.23,1.67-.92,4.19.08,1.17,2.17,2.74,2.46,1.58-.27.95,1.55,1.05.92,1.84,2.83,2.34,2.42-.58,2.33,2.26.25,2.76,1.67,1,1.08,1.51,1.08,1.86-.23.31,2,2,1.34-.07,3,1.34.75.92,2.25,1.34.83-.84,1.5-.83.75-.28,2.4Z"/><path id="path2943" class="cls-2" d="M528.13,660.21l3.09-2.67,3.19-2.66,4-1.33h3l4.18-1.84,3.18-.16,1.59-1.67-.42-1.16.17-1.67.5-1.33-1.5-1.67L546,645.72l-8.21-.5-2.67-1.17-2.85,1.34-1.84-1.51-.34-2.49-2.68-.5-1.17-2.33-3.51,1.83-3.35-2.24L517.66,641l1.18,2.5-1.18,1-.33,2.33h-2.51l-.34,1.5-2.34,3-3.73-.5L507,646.07l-3.36-2.35-1.84-4.16-4.35-4h-3.35l-2.49-1.36-3.4-.43-2.4.38L485,638l-3.56.69-2.28,2,.7,2.7-1,1-1.33,1.81-.95,2-2.6.36-2.25,1.88-.12,2.12-2.25,1.89-2.13-.59-1.07.59-1.3,2.12-1.54.59.71,4.36,3.55,2.35h3.67l3,1.88,2.25,3.54,2.37,2,3.67,5.77,4.26,2.24h2l2.66,1.26,1.41-.26,1.67-.91,4.19.08,1.17,2.17,2.76,2.47,1.59-.31,1.23-3.54-1.62-4.45,3.29-4.56.72-4.56,2.18-2.12,2.18.46,1.73-4,1.17-2.62,1.18-.05.16-1.66,2.35-.71h2.34l1.51,2.83,1.84,1.16Z"/><path id="path2945" class="cls-2" d="M550,648.72l.41,1.19,2.6-.59,3.08,1.33.71-3.68,2.6-5.07,1.9-6.59-.24-7.78-.83-.7-.21-2-7.6-.72-4,1.06-2.13,3.3-3,1.17H541l-1.31,1.3-.35,1.53-2.6-.23-3.44-1.65-6.63-1.06L522,624.47l-2.72-1.77-2-4,.71-6.48-1.1-3.74-2.21,0-1.42,1.4-2.61.12-2-1.76-1.4.45L506,609.74l-1.09,1.58-.34,5.5-.92.75-2.26.25-3.43,1.83-4.85.5-1.76-.33-.42.91.84,2.75,2.76,2.67-.25,1.08-1.59.83-.25,4.08-.89,2,2.56,1.4h3.35l4.35,4,1.84,4.16,3.36,2.35,1.45,4.73,3.73.51,2.34-3,.34-1.5h2.51l.33-2.33,1.18-1-1.18-2.5,1.68-2.83,3.35,2.24,3.51-1.83,1.17,2.33,2.68.5.34,2.49,1.84,1.5,2.84-1.33,2.68,1.17,8.21.5,3.18-1.67,1.5,1.67-.5,1.33-.17,1.67Z"/><path id="path2949" class="cls-2" d="M560.73,577.77l2-.88.71-3.42,1-.94-.13-2.13-1.89.48L561,569.7l-.35-3.77-1.31-2.23,1.54-4.48.24-2.71L559,554.39,557.36,549s.12-2.71.12-3.18a11.76,11.76,0,0,0-1.3-2.47s-.59-4.48-.71-5a1.75,1.75,0,0,0-.59-.82l.35-7.19L551.09,527l-2.19.2,2.22,3.25.92,2.79L551,535.43l1.18,4.71L550,544.85l.36,3.53-1.9,1.77-.23,3.77-2.37.7-1.78,1-.35,2.83-1.66,2.12-.24,3.76L540.32,567l6.15,3.07,3.08-.12,3.55.59,1.54,2.23,6.09,5Z"/><path id="path2951" class="cls-2" d="M507.25,608.67l-1.3,1.07-1.09,1.58-.34,5.5-.92.75-2.26.25-3.43,1.83-4.85.5-1.76-.33-.42.91.84,2.75,2.76,2.67-.25,1.08-1.59.83-.25,4.08-.89,2.1-3.33-.47-2.4.38L485,638l-3.56.69-2.28,2,.7,2.7-1,1-1.33,1.82-2.72-.23-2.61-2.11-.24-1.77-3.55-1.65-1.89.94-.71,1.18-9-.59-3.67-3.3L450.47,631l-3.2-1.89-2.95-.47-3.2-2.94-.49-2.46,0-3.08-1.19-2.35-1.54-.71.24-.82-1.42-.47-.59-1.18,1-1.3-.71-.47-2.49,1.06-3.08.47-1.18-.59.35-1.18-.71-1.76,1.07-1.65,1.77-2.59.12-2.59-1.42-2,.71-3.53-2.13-2.12-1.89-2.47-1.31-2.36.83-1.64,2.61-1.18,3.19-3.54,1.9-3.88,3-3.07,4.38-3.3,7.93-7.53,2-3.07-.35-4.12,1.06-3.3,1.3-1.65v-5.65l-2.25-2.83.12-3.41-2.49-1.89-2.95.24-.48,1.06-1.42,1.06-1.06-2.36-3.79-3.18v-1.88l1.07-1.53-.48-.35-2.13.23-2-.94.24-1.77,1.06-1.41v-4.36L436,525.3l.59-2.83,1.19-.59.47-.47,1.42,1.77h2.72l2.37,1.18,1.89,2.47s2.72-2.59,3.2-2.83,4.14-6.36,4.14-6.36l-.12-1.29,3.2-5,1.89-5.65.12-7.07-1.3-1.65V494.2l2.37-4,3.55-1.77,1.42.95,1.4-.58.89,1.09.42-.33,1,.17-.34,2.33,1,.41,1.5-.41.67.5.59,1.33h1.09l.67,1.33-.92,4,1.25.08,1.17,1.17v2.41l-.83,1-.59,1.42-.75.42v1l2.17.59.17,7-1.42.67.67,1.42-1.09.41L472.8,516l-1,.42-.51,1.5-1.17.5-.33,2.16.84.42-3.1,3.58h-1.17l-.84,1.17.33,1.83-1.59,2.58-1.42.75V533L464,534l-.08,3.5,1.67,4.08,1,2.08.16,3.33,1.93,2.17.92,4.41,3.18,3.5,2.85,1.58,5.6,5.75,1.6.67,1.92,3.58,4.35,3.24,5.19,6.5,5.44,2.66,4.86,1.09,1.92,2.58-.25,13.08.92,2.16-.75,6.25-1.34.58Z"/><path id="path2953" class="cls-2" d="M516.84,608.46l.16-3.3,1.06-.36,2-4.24-2.36-2,.71-1.77h2.72l5.09-3.53,4.26-8.6-2.6-1.53v-1.65l2.72-2.35,1.54-5.78-3-4.47,1.42-3.3,2-1.77.71-2.47-.83-3.77,1-3.65.83-3.89,2.72-4.36,4-1.29,4.85-4.24.59-4,2.13-1,2.49-4.72-2.25-3.24-1,1.48-1.89.7-.48,1-3-1.18-.82-1.3-3.91.12-.83-4,1.19-3.89.59-.35.71-2.24-1.07-1.89-.59-3.77,1.06-1.41.72-1.3-.83-1.4.11-3.19.72-1.41.47-.35.35-3.54,1-1.41-2.25-1.65-1,.94-4.73-.23-1.3.71-.24.94-2.84.35-.59.59v2.24l-.83,1.41-1.66.12-.83,2.83.48,2.82-.71,2.95-1.07,3.3-1.42-.95h-2.13l-3.55-1.76.71-2-3.31-2.47-2-4.71h-2.48l.94-2-.11-1.42-3-.82-.83-2,.83-1.77-1.19-2.59-7.34.71-.83-1.3-2.36,2.24H494v-1.77L490.72,491,489.06,488l1.18-1.77-1.3-2-2.48.7L483,483.61l-.23-1.3-2.13-.82.23-1.18s1.07,0,1.3-.59a9.26,9.26,0,0,0,.24-2.24l-2.6-.82-.48-2-1.65-.82-2.49-2.24.36-2L472,468.3l-.71,2.82-1.77-.35-2.25.12-.95-1.77-2.6-.94-.24-2,1.3-.58V463.7l-1.06-.24-1.42,1.65-2.74.91.09,2.22,1.76,1.09-.51.49-2.34.34-.17,1.25,1.84,1.5,2.52.08,1.84,2.41-.76,2.09-2,1.16.67.84,1.33.49-.25,2.17,1,.42,2.34-2.09,1.51.84-.34,1.66.93.83-1,.92-1.42-1.58-.67,1.58-1.59,1,1.59,1.33.65,1.77.85,1.06.42-.33,1,.17-.34,2.33,1,.42,1.5-.42.67.5.59,1.33h1.09l.67,1.34-.92,4,1.25.09,1.17,1.16v2.42l-.83,1-.59,1.41-.75.42v1l2.17.58.17,7-1.42.67.67,1.41-1.09.42-1.09-.75-1,.42-.51,1.49-1.17.5-.33,2.17.84.42-3.1,3.58h-1.17l-.84,1.16.33,1.83-1.59,2.59-1.42.75V533L464,534l-.08,3.5,1.67,4.08,1,2.08.16,3.34,1.93,2.16.92,4.41,3.18,3.5,2.85,1.59,5.6,5.74,1.6.67,1.92,3.58,4.35,3.25,5.19,6.49,5.44,2.67,4.86,1.08,1.92,2.58-.25,13.08.92,2.16-.75,6.25-1.34.59,2.15,1.92,1.33-.45,2,1.77,2.61-.12,1.42-1.41h2.21Z"/><path id="path2955" class="cls-2" d="M564.23,570.4l.31-1.47,1.5-.67,3.35-2.66-.33-4.67,2.51-3.16,1.51-10.33,1.33-2,.67-5,2.18-3.83-1.67-2.5-1-4.17,1.65-2.78-.48-2.88-2.34-2.84-.84-4.66,2.35-3.16.5-2-1.17-.83-.67,1.16-2,1.34-2.68-2.84-2.51-2.33-2.18-3.5v-4l.84-.84.33-4,1.68-1.49.17-2.67-1-2.66,1-3.83,2.51-1.34,2.84-4.16.52-3.64-2.71-.42-2.6.71v1.42l-3.91,1.41-2.13-.94.12-2.12-1.42-.36-4.62,1.42-1.3-1.54-2.37-.35-2.72,1.3-1.54-1.06-.12-4.48-.94-2.12,2-2.35-.36-1.65-3.78-2.12-6.87.35-1.54-.82-1.42.94-2.13.11-.47.24.35,1.18-1.42,1.53-1.18-.71-.36-2.47-1.18-.24-.59,1.06-2.73-.35.36-2.12L524,459.69V457.1l-1.54-.94-.83,1.06-3,.94-.72-1.29-2.13-.95-.59-3.53-2.37.12-2.6-2.83-3-.82-1.42.11-.12-1.41-1.07-1.18-2.95-.59,1.3-1.53-.48-2.12L500.78,441l1.89-1.3V438l-1.18-.24-.71-2.12,1.54-.23,1.54-3.42-.59-1.53.23-1.88-.71-3.18-1.54-.35-.35-2-1.07-.47-.71-.82.95-.83.94.12.95-1.77-.95-1.41h-1.53l-.71-1.88.12-1.89-1.31-.24-.83,1.65-.7.24-1.31-.94.95-2.12-1.3.35-2.61-.71-.94.59.11,1.18-1.89.59-.95-1.77.6-.59.23-1.29,1.66-.59-1.78-1.06-1.65.59-2.13-1.3-1.43-.24L482,409.52l1.42.94-2.13.94-.71,2.71-2.84,2.83-.71-1.3-5.09-.35-1.19,1.65-.94-1.18-3.08-.23.35,1.41-1.53,1.53-1.11-1.13-2.65-.66-2,.17v2.33l1.51,2.67-1.34,1.5h-2.68l-1.17,1.5,1.84,2,.17,2.33,5-.67,1.34,1.34L463.09,431l-2.51.17-1,2.16-2.35,1.17V436l2,.34-.67,1.66-2,.17-1.51,2.17,1.34,1.16-1.17,1,.67,3.5-3.85-.83-.83-2-2.35,1.66v1.84l-2.51.66-1.34,3-1.51.67.72,2.65h1.88l1,2.34,1.34.16.08.92-1.09,1.25-.17,1,1.51.66.17,3.17.83.58.09,3.16,1,.42.59-1.66,2.84-.84.92.59-1.42,1.33,1.09.92,1.92-.51-.5-1.41,2-1.08,1.26,1.35,2.73-.9,1.42-1.65,1.06.24v1.88l-1.3.59.24,2,2.6.95.95,1.76,2.25-.11,1.77.35.71-2.83,3.56,1.3-.36,2,2.49,2.24,1.65.82.48,2,2.6.83a9.26,9.26,0,0,1-.24,2.24c-.23.59-1.3.59-1.3.59l-.23,1.17,2.13.83.23,1.3,3.44,1.29,2.48-.71,1.3,2L489.06,488l1.66,3.06,3.31,1.42v1.77h1.78l2.36-2.24.83,1.29,7.34-.71,1.19,2.6-.83,1.76.83,2,3,.82.11,1.41-.94,2h2.48l2,4.71,3.31,2.47-.71,2,3.55,1.77h2.13l1.42.94,1.07-3.3.71-2.94-.48-2.83.83-2.82,1.66-.12.83-1.42v-2.23l.59-.59,2.84-.35.24-.95,1.3-.7,4.74.23.94-.94,2.25,1.65-1,1.41-.35,3.53-.47.36-.72,1.41-.11,3.18.83,1.41-.72,1.3-1.06,1.41.59,3.77,1.07,1.89-.71,2.23-.59.36L537,523.88l.83,4,3.91-.12.82,1.3,3,1.17.48-.94,1.89-.71.93-1.47,2.27-.18,4.14,3.42-.35,7.18a1.8,1.8,0,0,1,.59.83c.12.47.71,5,.71,5a11.76,11.76,0,0,1,1.3,2.47c0,.47-.12,3.18-.12,3.18l1.66,5.42,2.13,2.12-.24,2.71-1.54,4.47,1.31,2.24.35,3.77,1.3,1.18,1.9-.48Z"/><path id="path2957" class="cls-2" d="M573.05,476l-2.67-.41-2.6.71v1.41l-3.91,1.42-2.13-.94.12-2.12-1.42-.36-4.62,1.42-1.3-1.54-2.37-.35-2.72,1.29-1.54-1.06-.12-4.47-.94-2.12,2-2.36-.36-1.65-3.78-2.11-6.87.35-1.54-.83-1.42.94-2.13.12-.47.24.35,1.18-1.42,1.53-1.18-.71-.36-2.47-1.18-.24-.59,1.06-2.73-.35.36-2.12L524,459.69V457.1l-1.54-.94-.83,1.06-3,.94-.72-1.3-2.13-.94-.59-3.53-2.37.12-2.6-2.83-3-.82-1.42.11-.12-1.41-1.07-1.18-2.95-.59,1.3-1.53-.48-2.12L500.78,441l1.89-1.29V438l-1.18-.24-.71-2.12,1.54-.23,1.54-3.42-.59-1.53.23-1.88-.71-3.18-1.54-.36-.35-2-1.07-.47-.71-.82.95-.83.94.12.95-1.77-.95-1.41h-1.53l-.71-1.88.12-1.89-1.31-.24-.83,1.65-.7.24-1.31-.94.95-2.12-1.3.35-2.61-.71-.94.59.12,1.18-1.9.59-.95-1.77.6-.59.23-1.29,1.66-.59-1.78-1.06-1.65.59-2.13-1.3-1.43-.24L482,409.51l1.42.95-2.13.94-.71,2.71-2.84,2.83-.71-1.3-5.09-.35-1.19,1.65-.94-1.18-3.08-.24.35,1.42-1.53,1.53-1.17-1.21-.91-2.57.33-2.17-1.84-.33-.17,1.33-2,1-2.34-1-.5-2.67-1.34-1-.34-4.26-1.07-.69.9-1.21,1.34.17,2.52-2,.67-3.83,3.18-1.34,1-2,1.67-.17-.5-1.67-1.67-.33.5-1.33h1.34l1.51-.67-.5-2,1.17-1.33,2.51.17,1.17-1.84-1.51-1.16,1-.5h1.84l-1.17-2,3.51-2,3.52.17,4.18,3.16.84-.83-.84-2,2.52.67.83,2.66-.5,2.5h2.18l.5-3-.34-1.66,1.34-1.33.67,3.33h2.34l2.68,2-.17,1.67-1.33.83-.5,2.34,2.34.49,1.51,2,2.67-.33.84,2-1.17.33v.67l-1.17.5-1.17.83.49,1,3.19.67,1.17,1.83,2.34.5,1.68,2.16-2,.17-.84,1.33,2.35.67,1.33.67,1.68.16-.5,3-1.18.83,1,1.34h2.68l1.17-1.67,1.51,1.83h2.34L515,409l2.35,1.17,3.18-1.34,3.85,2.5.17,2.5,1.84,1,.17,2,2.51-.17,2.84-1.16,3,.5,2.84,3.33,3.85.5-.16,2.5,3,6.16,3.85,7.33,2.85,1.17.33,3.83,3.18,4.16-.67,2.17,1.34,1.33,3.68,1,1.68,3.5,1,.5L565,456l-.17,2.67.5,4.66,1.85,3.83,3.18.34,3.85,2.33,1.65,2.59-.48,1.41-1.17.33-1.2,1.85Z"/><path id="path2959" class="cls-2" d="M575.88,472.41l-1.63-2.59-3.85-2.33-3.18-.34-1.85-3.83-.5-4.66L565,456l-3.35-2.5-1-.5L559,449.5l-3.68-1L554,447.17l.67-2.17-3.18-4.16-.33-3.83-2.85-1.17-3.85-7.33-3-6.16.16-2.5-3.85-.5L534.91,416l-3-.5-2.84,1.16-2.51.17-.17-2-1.84-1-.17-2.5-3.85-2.49-3.18,1.33L515,409l-.16,2.33h-2.34L511,409.52l-1.17,1.67h-2.68l-1-1.34,1.18-.83.5-3-1.68-.16-1.34-.67-2.34-.67.84-1.33,2-.17-1.68-2.16-2.34-.5-1.17-1.83-3.19-.67-.49-1,1.17-.83,1.17-.5v-.67l1.17-.33-.84-2-2.67.33-1.51-2-2.34-.5.5-2.34,1.33-.83.17-1.67-2.68-2h-2.34l-.67-3.33-1.34,1.33.34,1.66-.5,3h-2.18l.5-2.5-.84-2.66-2.51-.67.84,2-.84.83L478.16,380l-3.52-.17-3.51,2,1.17,2h-1.84l-1,.5,1.51,1.16-1.17,1.84-2.51-.17-1.17,1.33.5,2-1.51.67h-1.34l-.5,1.33,1.67.33.5,1.67-1.67.17-1,2L459.58,398l-.67,3.83-2.52,2-1.34-.17-.93,1.26-1.16.8H452l-1.3-1.65-.83-.35-1.3,1.65h-2v-.95l-1.42-1.65-.36.95-1.9.35L441.83,403l.47-1.06-1.06-3.53-1.42-1.77-.24-2-.95-1.42-2.13.12-3.67-1.77-2.6-3.17-.24-2-2.36-1.88-2,1.06-.94,1.18-4.15-.48-.35-3.06-2.37-3.53-2.6-.35-.12-1.89-1.9-.94-.35-1.89.83-.82.47-1.42h1.07l.83-1.29,3.19-.71,1.42.59.24.94,1.66,1.06,1.42,1.53h3l.72-1.53.82-.47.48-5.3-.48-2,1.19-1.18V362.4l2-1.53,1.54.48,1.3-2.13,2.13.59,1.19-1.53-.95-1.76.24-.95h4l.59-.7-1.18-1.54.12-1.64,1.42-.83.12.94,1.65.36.48-2.36-1.07-.82-.95-4.13.59-1.52-1.65-1.65-1.3-.36V340l2-2,2.37-.11,3.55-2,7.1-.59,1.66-1.29,6.27.12,1.06,2,1.19-.94,2.72-.36-.24-2.71,1.9-1.17,1,.94,1.18-1.65.24-1.89,3.07-3.17v-2l1.66-1.41.21-2.45,3.83-1.58h3.51l4.86,1.17,7.86,4.5,1.51.16,5.86,3,1.34,2.83,5,1.72,5-1.08,2.45-2.44s1.14.49,1.8.82.49,3.09.49,3.09l4.74,3.41,3.43-2.76,1.63.32,1,2.44,3.11,2.12-1.8,5.36,3.11,1.79,2.78-.16,1.14,1.79-2.45,2.6v3.26l-2.94,1.62.34.76,2.17,1.83.34,2.83-.34,3.66-.17,10.16s1.51,2.34,2.35,3.67a4,4,0,0,1,.33,3l2,3.66,3.18,2.83,1.17,3.17a19.05,19.05,0,0,0-1,2.33c-.17.66,1.17,6,1.17,6l4.52,5.49.17,3.5,2.51,3.16,4,5.34,8.7,2.66,6,.83,3.18-2.16,3-.34h1.84l4.69-2.49,4.35-2.17h1.51l4.69-1.5,4.33,1.52-.47.43-2.34-.33-1,1.66,1.51,1.66,1.66-1.16.84.66,2-.16.66,2.32h1.34l1.84,2h4.34l2.49-2.29,1.63,1.33-.09,2.25.94,2.71,2.25,1.77s-1.18,5.65-1.18,6.12-1.07.94-1.07.94l.48,2.24-1.9,2.36-2.24.23-.6,2.12,1,1.77L609.44,442l-2.72,1.29-4.14,4.48-.64,1.43-4.59.1L596.18,451l-2.35.83-2.51,2.5v3.33l.5,1.67-1.33,2.33-1.18,4.16-2.84.5-4.35,4-.34,1.17-3.51-.34-2.39,1.26Z"/><path id="path2961" class="cls-2" d="M599.17,411l-4.33-1.5-4.69,1.5h-1.51l-4.35,2.17-4.69,2.49h-1.84l-3,.34-3.18,2.16-6-.83-8.7-2.66-4-5.34-2.51-3.16-.17-3.5-4.52-5.49s-1.34-5.34-1.17-6a19.05,19.05,0,0,1,1-2.33l-1.17-3.17-3.18-2.83-2-3.67a4,4,0,0,0-.33-3c-.84-1.33-2.35-3.67-2.35-3.67l.17-10.16.34-3.66-.34-2.83-2.17-1.83-.34-.76,2.94-1.63v-3.25l2.45-2.6L538.32,344l-2.78.16-3.11-1.79,1.8-5.36-3.11-2.12-1-2.44-1.63-.32-3.43,2.76-4.74-3.41s.16-2.77-.49-3.09-1.8-.82-1.8-.82L515.6,330l-4.8,1.15-.5-3,.17-1.66,1.34-.67,1-3.83-1.17-3,2-4.66,1.67-.5,2.51-2.66,1.84-.67.67,1.33,2.68-2.5.17-3.49-1.84-3.17-3-1.66-1-2.67,3.18-4.33.63-2.3,2-.65,4.17-.26,2.25,2.43,4.07,1.56,1.78,2.89,2.84.16,1.34,2,2.84,1.83h2.84l2.92,2.91.92.91-.67,4.49,1.34,1-.17,1.49-3.68,4.66v1.33l-2.83,3.16v2.49l-.51,1.5,1.17,1.33,1.67,2.49-.66,2,3.51,1.49,3.34,3,2.5,1.5,1.34-.5,1.17.33-1.17,2.83h-1.5l-.17,1.66-1.51.83,2.68.67.5,2.32-1.84,1.17V349l3.68,3.33,3,.5,2.34,1.49,1.17-1.33,1.51-.33,1.33,1.5.84-2.17,3.51-.16.67,1-1.34,2.32,1.84,1.33h1.17l1,1,1.67-1h2.84v1.16l1,3.33,1.34.33,1.84,3.33-.17,2.32,2.17,3.83,2.84,2-1.67,1.83h-2l-.84,1.83-1.84.17v1l2.51.5-.84,2.5,2,1,1.84-2v2.33l1,.5,1.67-2.33,2.17.17,3,3h1.84l1.17,4.16-1.51,1v3.49L598.7,394v1.67l-1.5.83.33,1.33-1.67,1.49,2,1.17v3c0,.66,1.5,1,1.5,1l-.17,3,1.17,2.33-1.2,1.21Z"/><path id="path2963" class="cls-3" d="M633.33,410.28l1-3.18.16-2.32,3.68-1.17.84-1.33,1.65.39.56-1.89,3.68-3.31-1.55-2.36,3-7.79,3.34-1.83,1.37.78-.63-3.9.33-2.33-1.17-2.33s-.5,1-1.34.83a11.7,11.7,0,0,1-2.34-1l-.34-1.5-2.34-.17-3,1.34h-6.53l-2.34-2s-.16,0-.16-1.17-2.35-3.83-2.35-3.83l.5-3.83-.67-6.33-2.17-2.33.5-7,1.34-2.83-.33-2.83,2.17-3-5.69-9.66-3.85-1.33-2.35.5-.5,1.5-1.67,1.83-1.17-.17-1.34-3.66-2.68-1-3.52,1.34-3.85-.67-2-1.83-2.35,2.17-1.5-1-1.51-1.83-1.17.84-3.69.66-3.18-1.33-2-1.17-3-.33-.5-2.5-2.68-1.33-1.17-3.83.33-1.83,1.17-.84-.67-2.83-6.69-2.83-1.51-1.83-1.84-.33-3.85.33L564,307.74l.16-2.83-3.35.34-2.17-2.83s.67-2.67-.17-2.67-3.18-1.5-3.18-1.5l-2.84,1.67.66,2.16-2,.34-3,2.27,1,.88-.67,4.49,1.34,1-.17,1.5-3.68,4.66v1.33l-2.83,3.15v2.5l-.51,1.5,1.17,1.32,1.67,2.5-.66,2,3.51,1.49,3.34,3,2.5,1.5,1.34-.5,1.17.33-1.17,2.83h-1.5l-.17,1.66-1.51.83,2.68.66.5,2.33-1.84,1.17V349l3.68,3.32,3,.5,2.33,1.5,1.17-1.33,1.51-.34,1.33,1.5.84-2.16,3.51-.17.67,1-1.34,2.33,1.84,1.33h1.17l1,1,1.67-1h2.84v1.16l1,3.33,1.34.33,1.84,3.33-.17,2.32,2.17,3.83,2.84,2-1.67,1.83h-2l-.84,1.83-1.84.17v1l2.51.5-.84,2.5,2,1,1.84-2v2.33l1,.49,1.67-2.32,2.17.16,3,3h1.84l1.17,4.15-1.51,1v3.49L598.7,394v1.66l-1.5.83.33,1.33-1.67,1.5,2,1.17v3c0,.66,1.5,1,1.5,1l-.17,3,1.17,2.33-1.2,1.2-.47.46-2.34-.33-1,1.66,1.51,1.66,1.66-1.17.84.67,2-.17.66,2.33h1.34l1.84,2h4.34l2.36-2.15,5.68-1.21h3.68l1.5,1,1.17-2.33h1l2.84-1.83,2.17,1,3.37-2.32Z"/><path id="path2965" class="cls-2" d="M659.14,380l.82-2.78,1.32-4.23,2.64-2.76,2.3-4.4,1.32-2.12-.16-2.6,1.31-2.28L670,358v-3.74l.83-2.44,1.15-1.14-1.32-1.14V348L669.35,345l-2.14-1.3.33-1.47,1-1.46.5-3.54-.49-1.63v-2.11L670,331l.33-1.62,2.47-1.79V325.3l.17-2.61.82-2.11.82-1.31.47-2.6-1.19-1.87-2.08-2-3.17-.18-5.86-5-1.33-1.83.16-2.5,2.85-1.67-1.34-1.33-1.67-2-5.53.67-9.88-2.83-7.86-1.5-8.54-3.67h-7.2l-1.68-1.16,1.35-2.67,4.52-11,6.19-6.5,1.34-2.16.17-2.35-3.13.26-.82,1.06-1.78.35-6-.7L621.16,265l-2.6.59-1.07,1.17-2.6.47-2.37-1.05-1.77-2.71-1.07-.71-.71-.82-2.13.35-1,1.17-3.43,1.06-.71,1.65-5.44,9.66-1.78,1.65-2.25,4.71-1.77,2.95-3.79,1.18-1.19-.48-2.36.24-9.83-2.95-1.89-1.53-13.26-8.83-2.25-2.47-5.8-2-5.68-.11-2.61,1.29-1.18.83-1.18-.24-1.66.83L534.4,274l-1.66.82.83,2-.47,3.89-1.31,1.3-.23,2.82-4.27,4.6,0,1.48,2.22,2.44,4.07,1.56,1.78,2.9,2.84.16,1.34,2,2.84,1.82h2.84l2.91,2.92,3-2.24,2-.34-.66-2.16,2.84-1.67s2.34,1.5,3.18,1.5.17,2.67.17,2.67l2.17,2.83,3.35-.34-.16,2.83,1.67,1.34,3.85-.33,1.84.33,1.51,1.83,6.69,2.83.67,2.83-1.17.84-.33,1.83,1.17,3.83,2.68,1.33.5,2.5,3,.33,2,1.17,3.18,1.33,3.69-.66,1.17-.84,1.51,1.83,1.5,1,2.35-2.17,2,1.83,3.85.67,3.52-1.34,2.68,1,1.34,3.66,1.17.17,1.67-1.83.5-1.5,2.35-.5,3.85,1.33,5.69,9.66-2.17,3,.33,2.83L627,350.72l-.5,7,2.17,2.33.67,6.33-.5,3.83s2.35,2.66,2.35,3.83.16,1.17.16,1.17l2.34,2h6.53l3-1.34,2.34.17.34,1.5a11.7,11.7,0,0,0,2.34,1c.84.17,1.34-.83,1.34-.83l1.17,2.33-.33,2.33.62,3.93,2.15-1.64,1.33.5.55-1,1.3-.05,3-1.57Z"/><path id="path2967" class="cls-2" d="M676.45,316h1l1.06-3.86V310.7l3.63-1.14h2.3l2.8-1.3,1.81-2.93,1.82-1.47,1.48-2.44-.82-1.14-.33-.49.49-1,.33-2.12,1-1-1.15-1.3v-2.61l.82-1.62,2-.33,3.75-1.86,2.47-.16,1.32.65L703,288v-2.11l-1.48-2.12v-1l1.32-.65,2.8-1.79.66-3.25,1.33-1.77-.72-1.12-1.48-3L705,268l-1.56-3-2.89-2.12h-1.64l-2.31-1.14-1.32.16-1.32.82-3.29.48-4.28-4.39-3.46-2.44v-2.28l-1.82-2.45-3.29-1.46-5.11-.16-1.81-2-1-3.09-3.79-2.28L661,241.08l-1.15-2.6,1.32-2.44,2-6.19,1.65-5.86,4-7.33,1.85-6-4.17,2.18-5.3,5.39-2-.93-1.66.59-.59,1.89-3.08,2.82-.94,5.89-2.14,4.72-2.24,2.11.71,2.48,1.77,2,2.13,3.65,2.14,1.77,6.68,3.76L666,253.8l-1.42,5.85.51,6,.77,4.71-4.37,2.14-3.61-.88-4.5.47-1.74,1.44-3.27.35-3.33-2.32-1.32-4.23-3-6.45-3.57,1.79-2.74,2.45-.22,2.35-1.34,2.16-6.19,6.5-4.52,11-1.35,2.67,1.68,1.16h7.2l8.54,3.67,7.86,1.5,9.88,2.83,5.53-.67,1.67,2,1.34,1.33-2.85,1.67-.16,2.5,1.33,1.83,5.86,5,3.18.2,2.08,2,1.17,1.9Z"/><path id="path2971" class="cls-1" d="M346.75,669.4l2.28-4.8,3.6-4.07L375,652.24l4.58-.81,13.4-6.84,1.15-2.92,3.59-2.93-.16-2.28L395,635.33l-.33-2,2.81-3.68,22.45-1.44,20.73-5.07.49,2.47,3.2,2.94,3,.47,3.19,1.89,2.72,7.77,3.67,3.3,9,.59.71-1.18,1.89-.94,3.55,1.65.24,1.77,2.61,2.11,2.72.24-.95,2-2.6.36-2.25,1.88-.12,2.12-2.25,1.88-2.13-.58-1.07.58-1.3,2.13-1.54.58.71,4.36,3.55,2.36h3.67l3,1.88,2.25,3.54,2.37,2,3.67,5.77,4.26,2.24h2l2.71,1.3-1.07,2.12.34,1.75,1.5,1.66-1.84,2.34-2.84.5-1.26,2.08-1.25.83.5,2.92,1.42.58,3.77,5.41,2.42.75v1.92l.93,1-1.68.91-.56,1.62-1.1-.07-1.88-2-2.71,1.58-1.65-.36-2.12,1.18-2.35.11-1.41,2.93h-2.36l-1.29-1-2.71.7L468.8,715l-1.41.12-.12,2.69-2.82,1.87-1.67,1.58-1.88.23-2.93-1-2.67.87-5.1-.21-2.8-1.6-2,.09-.4-.85-4.38-.66-.72-.52-6.09-.46-.92.66-2.09-.46-4.71-2.23-.33-.65h-.65l-1.18,1.31-2.42-.66-.2-1-.72-.59-6-.59-.26-.39-3.14-.4-1-1.5.06-1.38-1.18-.39H408l-1.05-.59L403,703.57l-.52-1.31-2.29-.4-.13-.59-.73-1.11-.85-.72L394,697.61l-.39-.92-1.44-1.64-2.16-.39-1-.79-.66-1.11-3.27-1.9h-4.06l-1.31-.91-.06-.72-1.83-1.31-1.84-.26-1.31.33-2-1-.52-1.37.39-.66-.52-.52-2,.52-1.7-.26-.32-.59-.46-.26-.72,1.11-3-.39-1.71-1.44-.58-1.18-2.34-.72-.49-1.65-2.55-.5-.18-1.92.62-1.79-1-2.93L349.78,669Z"/><path id="path2973" class="cls-2" d="M282.37,586,353,572.22l1.85-2.65-1.39-.8,1-2.19,3.12-1.72-.46-1.61-1.27-.81.46-.57,1.39-.69.35-2,.8-.69-.8-1.84-2.55-.11-2.31-.81-.35-2.41.9-.74,1.42,1,.95-1.18-.59-.71,1.66-.47v1.3l1.3.23.35,1.18h.71v-2l1.07-.59v-.83h1.42l.59-.7-.71-1.06-1.3-.12-.95-3.3h.59l.24-.94-.95-1.06,1.78.24,3.31.7v1.18l1.19,1.18,4.14-.36,2.13-2.11,8.41-2.6,5.56-1.65,1.06-3.3.6-.59-.24-1.76-3.32-3.65-1.3-4.48.71-4.12-.83-3.65.12-4.59,1.78-6.25-1.54-1.88,1.06-.94-.47-4.36-1.06-2.59H380l-.47-1.53,1.66-.83,1.77-2.12-.12-1.06,1.31-.82,1.65.58,1.07-1.17-1.54-1.65.47-1.77,2.73-1.29-.12-1.77.95-.59.82.59,2-.59-.36-.71.71-.82,1.07.35.82,2.48h.95l.36-1.42,1.18-.7-.83-1.89-.24-3.06,1.43,1.3H399l.83-1.54,1.06-.23.24.35,1.3.59.6,1.65,1.18,1.06.71-1.41,1.42-.12.36-.71,1.06-.23.71,1.77,1.89.93,6.43.77,3.84,3.33,2.69-1.74,2.14,1.53h1.18l1.06,1.65.83-1.29h2l1.9.94-.36-1.41,1.9-1.77,2.72-.83,3.31-3.65v-5.53l-1.18-1.07.83-.82.95-4.12-.36-4.24,1.66-4,1.89-2,.36-3.46,1.9,0,1,2.34,1.33.16.09.92-1.09,1.25-.17,1,1.51.66.17,3.17.83.58.09,3.17,1,.41.59-1.66,2.84-.83.92.58-1.42,1.33,1.09.92,1.92-.5-.5-1.42,2-1.08,1.26,1.41.08,2.17,1.76,1.08-.51.5-2.34.34-.17,1.24,1.84,1.5,2.52.09,1.84,2.41-.76,2.08-2,1.17.67.83,1.33.5-.25,2.17,1,.41,2.34-2.08,1.51.83-.34,1.67.92.83-1,.92-1.42-1.58-.67,1.58-1.59,1,1.59,1.33.65,1.7-1.44.62-1.42-.95-3.55,1.77-2.37,4V497l1.3,1.65-.12,7.07-1.89,5.65-3.2,5,.12,1.29s-3.67,6.13-4.14,6.36-3.2,2.83-3.2,2.83l-1.89-2.47-2.37-1.18H439.7l-1.42-1.77-.47.47-1.19.59L436,525.3l1.42.94v4.36L436.39,532l-.24,1.77,2,.94,2.13-.23.48.35-1.07,1.53v1.88l3.79,3.19,1.06,2.35,1.42-1.06.48-1.06,2.95-.23,2.49,1.88-.12,3.41,2.25,2.83v5.65l-1.3,1.65-1.06,3.3.35,4.12-2,3.07-7.93,7.53-4.38,3.3-3,3.07-1.9,3.88-3.19,3.54L427,589.85l-.83,1.64,1.31,2.36,1.89,2.47,2.13,2.12-.71,3.53,1.42,2-.12,2.59-1.77,2.59-1.07,1.65.71,1.77-.35,1.17,1.18.59,3.08-.47,2.49-1.06.71.47-1,1.3.59,1.18,1.42.47-.24.82,1.54.71,1.19,2.35v3h0l-20.75,5.09-22.45,1.44-2.81,3.68.32,2,2.62,1.13.16,2.28-3.59,2.93L393,644.59l-13.4,6.84-4.58.81-22.39,8.29L349,664.6l-2.31,4.85v0l-1.72.27-2.7,2.51-4,1.79-7.2-2.51-2-2.69-3.61-.71-2.16-2.33-3.06-2v-1.61l2.71-.54.71-4.84-1.25-2.51-.19-4.3-3.06-3.22-.34-2.25-2.74-2.36-1.13.19-6.52-3.49-2.36-.38L305,637v-.75l.94-.38-.38-.94-1.88-2.17-1.42,1-.28-.38-1.32-.37-.76-.47-.38-1.8-2.64-2.17-1.79-.19-1.7-1.89-1.23-.37-1.7-2.84-2.08-.56v-.95l.27-.33,1.53-.55.15-1-1-1-.3-1.49,2.08-1.63,2.53-.6.44-2.08,2.68-.74,3,1.34,1.33-2.22-2.6-1.94,2.12-2.27-1.79-2.1-2.28,1.62-2.93-2.11,2.11-.81-1-1.61-2.28-1.46-1.79,1.62L288,601l1-2.43-3.42-2.75L284,592.53l1-2.43Z"/><path id="path2977" class="cls-2" d="M305.05,361.29l-1-2.91-2.6-3.33-2.26-1.34.5-1.58-.16-2.33-1.09-.75-.67-2,1.17-.83,1-2.42-.5-.83v-2l-2-1.63-1.56-2-.92-4.78,1-.33,1.26-.76-1.85-.49-.75-1.76-1.26-.83.79-3,1.34-1.33.84.08,1.34-1.67-1.93-.75-.42-.66,1.68-.84.42-2.24-2.35-.42-.42.58-2.43.67-.66-3.17.83-1.74-.92-1.17-.5-1.58,1.84-.51.09-2.66-1.73-4.46-1.68-.75-.5-1,1.17-.41-.7-.84-1.53-3.32-.93-.75-.16-1.33.67-.33,1.25.49.76-.24-.09-1.67-1.17-1,.92-1-.67-.75.84-1.5.67-.41,1.42-1.92-1.17-.33-.59-1.59.09-2.08,1.17-.67,1.17-2.24,1.2-5.17,1.51-2.08.33-2.83-1.5-1.5-2.74-3.75,1-1.41.09-5.42,3.44-4.33-1.09-1.58-2.14.41-2.6-1.37-4.69-.52-1.67-1.7-.1-3.54,1.52-2.89-3.39-1-2.08,1.16-3.71.35-2-3.28,2.38-3-2.93-.83-3.53,1.72-1.85-2.16.1-2.73,2.25-2.29-2.76-2.78H263.3l-1-.66.42-1.34.75-.25.34.51.92-.34.08-.91-.65-.81,1.37-1.33-1.39-1,.15-1.71,2.23-.36-1.84-3.24-2.48-.44-1.59.38-1.34-.09-1.76-1-.33-1.58.22-1.79-2-1.16-2.07.26h-1.17l-1.5-1.25.92-2.58.83-.42L252,205l-1-.91h-1.92l-1.76-.92.75-2.08,3.56.89.08-1.75.58-.25-.42-.91-1.33-.17-1.09-1.33.08-1.75-1-.25.92-.83-.83-2.4-1.35,0,.55-1.05-.08-.85-1.81-.53-1.42,1.77-.05,2.16-1.25,1.61-1.42-.47-.12-3.42,2.37-2.24V187l-1.66-.24-2.13.83-4.73-3.42-.71-3.42-3.08-8-1.3-1.17-.12-2.24,1.66-.47-.12-1.77.94-1.06.12-1.06-4.49-1.65-.6,1.53-1.06,1.3-1.36,0-1.25,3.45-4.85,7.3L217.63,186l-1.3,4.24.83,10.24,1.42,1.42-.71,4.12-1.18,1.53-.36,3.89L214,216.82l-.59,4.36-1.66,2.95-1.77,6.59-.59,5.68-.71,2.8-.95,8.37-1.18,11.78-.12,10.95,1.3,1.88,1.66,8.13.71,7.42,2.48,10.13,6.39,10.72,8.88,8.6.71,2.59,1.42,1.76-.35,5.19-3,3.3-6,2.47-.23,1.53-1.43,1.06.83,1.18-.71,2.71,3.79,2.35,7.93.95,1.78,1.88,2.84.94,7.84,11.76,5.11,18v4.48l2,7.3-.47,9.19,2.48,13.07,1.78,3.65-.12,2.72L253,416.57l-.59,4.24-3.43,4.12-.83,3.3-2.25,8.36-.47,6.84,2.13.82,1.66,1.41,2.48-.12,4.86-3.29,7.34-8,.23-2,1.66-.23,3.19-2.71v-2.36l.83-.94,2.37.94,1.42-.59-.71-1.18-.95.24-1.06-.7.71-1.3-1.78-1.18-.35-1.53,4.5.83.94-1.3-1.42-.94.71-1.42,1.66,1.53H277l.12-.7.83-.12-.47,1.65,1.18,2.24.12.82,1.42-.11,1.66.23L281,422l-.12-1.77,1.3-.47,2.61.47.59-1.53-1.19-.47-.71-1.42,1.78-.23,1.3.59.47-1.41-.35-.83-.12-2-2.48-.83.23-2.35-.94-.83.71-1.65,1.06,1.65,2.84-.59,1.3-1.76.83-.12.71,1.88,3.32,1.42.47-2.24,2-1.67.8-1.86-.94-1.06,2.24-2.71h.71l2.14-1.77v-1.77l1.3-2.35-.24-2.47h.83l1.89-1.77,1.78.12,2.6-3.18v-2.36l-1.18-2,.24-2-1.19-.7-1.3-4.24-1.77-.47-.6-2.12,2.13-.12,1.19-1.65v-1.76l1.65-.24.83-1.18-1.65-.59,1.53-1.65.27-2.11-.95-1.18-.35-1.41-1.78,1.32Z"/><path id="path2987" class="cls-2" d="M236.35,39.87h-.94l-1.88-2.34h-1.41l-1.65-1.17h-2.12l-.23.59-2.24,1.17-.47,1.4L224.12,38l-1.53-.58-1-2.23-1.08-1.49-.23-.82,1.06-.82,4-4.48,2.82-.7.71-1.06,1.53-.11,2.12,1.17,3.65,4,1.64,3.86-.7,1.17.43,1.9-.9.91ZM246.79,69l-.83-.09-1.25-1.07-1.5-.33-.74.41-1.67-1.24-.91-2.9-1.5-1-.33-1.74-.84-.5-1.74.33-2.83-1.24-.34-.91h1.75l1.16-1.66,1.5-.82-.66-.58-1.25,1.16h-1.33l-1.67.74-1.49-.33-1-2.24-1.17-.91-.83-4.63-2.58-1.91L221,47.22l-4.16-3.81L215.26,41l.91-.74.42-1,1.66-.82.5-.58,1.08-.25,1.33.74L225,40.1l2.33.08,1.42,1.24,2.41-.57.91-1.58L233.4,39l.41,1.25-.83,1,.5.5.75-.25.66.58h1.17l1.41,1-1.08,1.07-.17,4.56,1.09,1,.5,2.4-.59,2.15,1.67.83-.17-.75.67-.58.33-2.81-1.66-1.41V40.43l.49-.33.25-.66.75-.25.58.74,1.34.34,1.16,1.49.08,1.4,3.17,3.15,3.41,2.07h2.08l2.16,2.07L253.7,52l-.42.66,1.09.75-.67,2.65L250,59.56l-.49,2.9,1.91.33-.08,1-3.58,1.66-.34,2.15Zm20.8,17.8-1.49-3.89,4-2.74-.33-2.89-1.5-1-2.66.5-1-2.24,1-1-.33-5,1.24-4.14-3.66-8.28-2.66-1-1.33-1.5-3.16-.32L254,58.73l-1.66,1,.5,5.3-3.33,2-.83,2.15,4.49,3,.33,3.32-3.33-3.81L243.05,71l-3-1.82-1.5,1.16,1.5,2.16L238.55,74l2.5,1.82-1.33,3,.17,3.32-.84,3-2.16-3.64.83-1.66-.33-3.64-1.17-1.33-.33-3.31-3.66-3,1.17-2.15-1.34-.66-1.66.16-3-4.3-.66-6.79-2.33-3-5-1.32-3.67-3.31L213.59,44l-2,1.33-3.28,2.94-.75,2.08,1.21,3-1.43-.13-1.76-1.68-2.15,2.58-1.83,4-.24,2.07,3,.61.74.73,1.7.37.86,1.59L204,63.14l-4.27,2.07-1.1-.24,2-2.44-4.51-1.59-2,1.19-2.83,4L191,72.89l5.49,3.64.83,5.8-2-2.32-1.16-3.31-1.5.83-1,2.65-1.33,1.16,5.16,3.47,1.5,3v2l4.16,3.15L207,95.08l-1.66.66-6.82-3-3.67-1.65.17-4-5.16-3.81-.83-3.8.83-2-1-1.16L187,76.7l-1.83,5V83l-1.5,2.32H181l-.33,2.15-.5-2.32,3.83-4-1-.83-5.33,5.8L173.36,89l-.34,4,3.83-.17,3.33,1.16L183,98.06l.66-2.81,1-1,1.83,1.16-2.66,3.15,1.83,1.16.33-1.66,1.67-1.66.5,3.15-2.17,5-.16,1.82,2,2.32-.84,4-1.66-4-5-1,2-2,2,.33.66-2.48-2.66-3.65-.66-1.32L180,96.08l-4.49-.34-1.33,1.82,1.16,1.16,3,.33.83,2.32L177,103.86l-2.83.49-.67,2.15,3,.5.33,2.32L175,110.64l-.16,1.47-.67.75,1.34,2.08-1.84.67-.33,1.75-1.18.41,2.52,1.67L177,119l.17-1.25,1.84.92-.67,1.75-2.35.75.34,1.24-.08.84,2.84.33,1-.83.93.83-.34,1.67-1.17,1,.25,1.66,1.09,1.75-.5,2.33-1.09.42-2.6,2,1.09,1.58,2.68.08.17.75-1.34.92.17,1.33,1-.33,3.52.58-.09,1.75-.75.59.84,1.08,2.09-.09.92-2.08,2.26.17,1.42-1,.34,2.58,1.42,2.08-.33,2.75,3.76,1.75,3.27-1,1.25.5.09,1.25,1.11,1.63h0l2.94-.2,2.78.83,2.25,4.18.12,4.35,4.56,2.89h6.45l2.9.82.65,1.42,1.07.56,1.48,0,1.06-1.29.6-1.53L232.9,165l-.12,1.06-.94,1.06.12,1.76-1.66.48.12,2.23,1.3,1.18,3.08,8,.71,3.41,4.73,3.42,2.13-.82L244,187v2.24l-2.37,2.24.12,3.41,1.42.48,1.25-1.62.05-2.15,1.42-1.77,1.8.51,2.77-1.21,4,.33.75-.83-3.18-1.59-4.35.09-2.51-3-2.52-6.83.84-.92-.92-1.41L242,172.9l.92-1.33-1-2.08-.25-4.33-.67-2.33,1-1.42-1.59-1.24L242,158.5v-3l6.19-8.83,2.43-5.16,2-1.83-.51-5.42,2.68-2.17.17-1.74,1.67-1.08v-.84l-1.5-1.5-.51-9,2-6.08,1.17-2.67.76-7.83M238.47,67.09l-2,.08-.25,1-.66.49-1-.74.17-2.07L233,64.52h-1.5L228.4,61.3l-1-3,1.34-.82.66,1.32,3.91,2,1.75,1.66,3,1.15,1.16,2.07Z"/><path id="path2989" class="cls-2" d="M188,298l1.26-1H190l.51,1.25,1.5.25-.42-2,2.18-.92.08-2.16-1.08-.58-1.34-2,.33-.5,1.26.83,1.17-1-.92-1.08-1.17-.09.16-3.08.84-.42.08-.91-1.92.08-1.17-1.16.25-1.84,1.34-.08.16-2.83-.92-1.5.67-1,1.18.17.75-1.59-1-1.41.92-.92,1.34.25,1-1.5-.59-1.41-1.17-.34.17-.91,1.84-.42.84.59,1.25-.51-.17-2,1.34-.84.59.09.84-1.17-.92-1.75,1.5-.67,1.26-5,1.09-.75.58-4.5,1-1.25V249l-2.35-1.42-.67-.83-.83-.42-.09-.83,1.17-.58.84.5,2.09-.17L205,244l.16-2.58L203,239.54l.5-1.75,2.85-1.09.25-1.75,1.5-1.16,1.3,2.6.59-5.67,1.77-6.59,1.66-2.95.59-4.36,2.37-5.42.36-3.88,1.18-1.53.71-4.12-1.42-1.42-.83-10.25,1.3-4.24,1.66-9.07,4.85-7.3,1.21-3.3-1.15-.7-.65-1.42-2.9-.82H214.2l-4.56-2.89-.12-4.35-2.25-4.18-2.78-.83-2.89.15-.66,1.5L198.68,154l-.34,7.83.34,1.92-.92,1.66-1.68.08-1.5,2.25.08,2-1.51.17-.83-.92-1.68.25-.83,1.75.67,1.33-1.85,3.08L185,177.49l-1.59,2-2.09-.5-1.18,1.67,1.18,2.67,3.51,1.16.42,2.58s-1.59,1.42-2,1.75.25,2.08.25,2.08l-2.17.75-1.84-2.08-3,1-3.51,2-4.52.5-1.17-.58-1.43,1-.16,2-1.85,1.5-1.75-.84-1.26-2.5-3.43-3.16-2.26.75-2.43,2.58.34,1.83,3.93,4.17-1,2.5-2,.08-4.11-5.25-6.18-4L142,193l.5,1.22-.83,3.8,1,1.33.16,5.79L144.7,207v1.82l-2-.17-5,3.65,2.33-.5.67,1.16-.83,1.65,3.32,4.47.84,4.48-1.33,1.32-2.67-4,1.67-2-1.17-.66-1.49,1-.84-2-5.32-.66-.83,1.16,1,3.31.17,8.12,5.33,9.6,4,1.65,7.32-1.32,4.16-2.32,2,2-2.66.17-5.49,2.65-7,.49L139.71,241h-1.16v3.15l3.32,5.3.84,8.44-1,5.8L140,268.28l2.5,2.48,2.16-.33.17-2.32,2.5,1.83,1.49.16.5-5.8,4-3.81-.34-3,.5-.16h1.34l.49-2.32.84,1.65v2.82l7.65,2.32,2.67,2.48,1.16,4.31,2.5.66.49.83-1,.83,1.33,1.49-.17,1,.5,1.33-1.33-.33-1,1.15,1,.17.17,1.82-1.67.17-1.66,1.65-.33,5.47,2,1.82-.16,7.62,2.83,5h3l3.33-3.14,1.66.66h6.33Zm-63.89-99.73,1.33.91h1.91l1.33-1.9,4.08-.66h2.91l3.08-1.33.58-1.74-1.16-2.4-.17-2.32-.33-.33H136l-.75-.91-.42-1.82-4.16-.08L129,187.14l-3.17,2.15-1.33,5.38V196l-.66,1.16Zm5.07,15.9-1.41-1.49-.34-2.4-2.49-6-.67-1,.59-1.49h.41l.75,1.49,1.17.75.08-3.48,1.33-.08,3-1.25.74-1.4,3.91-.34.67,1.08.83-.91h1.09l-.09-1.24.75-.41.42-1.41.91-.58-.16,3.39.58.83.16,6.79,1.59.91.66,1.33H142l-2.75,2.56-1.25.08-.66.83-.75.17-.75-.91h-1l-.66,2-2.92,1.65-.83,1.58h-1Z"/><path id="path2993" class="cls-2" d="M815.64,525.35l-3.34-.23-1-1.17-2.84.51.33,2-2.85,3.17h-1.84l-.5-2.33-1-1.34-3,.17s.34-2.17-1-2.33a22.39,22.39,0,0,0-2.51-.17l-.34-2.66-4.35-1.17-5,2s-.5,1.33-1.17,1.33-2.85-2.16-2.85-2.16l-.84-1.84-1-1.33-2.18-5.66-3.68-2.83-1.84-2.83-1-7.17-1.17-.5-4.85-6.16L759.9,491l-2.51-5.66H755L750,483l-3.51-1,.33-2.17,4-2.54,4.07.88,5-.5,1.34-3.5.84-.16,3.18.33,1-1.83,2.18-1,4.35-5-.17-2.67,1.17-2.83,10.55-8.5,2.34-2.49,4.52-2.83,10.21.5,1.18,2.33,8,2.66,1.37-.36.47.88,2.59-.13.89,2.58-.48,1,1.3,1.23h.82l.88,1.49-.4,1.07,3.32,0,5.4-2.58,1.77,1.58,1.4,6.45,2.09,6-1.39,3.22L828.08,479l-.46,4.61,1.16,2.3-.93,3.45-.46,5.3.44,2.6-1.75,3.5.61,3.89-2.75,2.39-1.18,2.82-2.13,1.41-.27,1.91-1.53.82-.39.8.76,1.72,1.12,2,1.84.92.71,2.64-1.22,1.33-1.22.2-.72,1.43-2.81,2.43Z"/><path id="path6892" class="cls-2" d="M759.8,414.32l2,2.45,3.84,1.28,3.62-3.62-1.17-1.28-6.07-.42-2-4.16,7-1.07,3.31-.85,3.29.13,2.76-.1,3.15,2.13,4.61-1.18,1,.24-.59,6.48-2.43,6.77L781.7,424l-2.75-.35-6.74,2.94-1.66-.35L761.72,430l-3.48,1.14,1-3.83-3.32-2.82,1.07-2-2-2.59.36-7.53,1.82,1.7Z"/><path id="path6894" class="cls-2" d="M757.14,414.11l2.66.21,2,2.45,3.84,1.28,3.62-3.62-1.17-1.28-6.07-.42-2-4.16,7-1.07,3.31-.85,3.29.13,2.89-.11,3.13-.68,6.28-5.31.35-1.18,3.44-1.54,2-4,1.75-1.51L790,389.61l-4.73,1.06-1-.24-.47-2.47-3.32-1.41-5,3.65-4-1.53-.24-2.24-3.67-.7-7.34,3.53h-2.72l-2-.69-3.37.16-.84,1.06-1,4.3-2.72,3.77L747,400h1.9l.74,4.84,5.82,7.58Z"/><path id="path6937" class="cls-2" d="M373.68,74.66l-2.13,1.88-2.36,1.18L368,77.13l-.94,2.23,1.18,2.94.94.94v2.47l-1.3.71-1.77-.24-1.77,2v3.64l1.77,2.12V99.7l-.71.94-1.89-.94v1.06l1.54,1.17-.48,1.06-1.06-.24-.94.82-.12,2L361.28,103l.23-.94,1.18-.23-1.18-1.53.59-.36.36-1.88.71-.35,1.89,1.53-.12-1.53-.59-1.3L364,93l-1.41-.71-.36-1.17.71-1.18,1.18-3.76,1.54-.71,1.53-.82-.59-2.35-.83-3.41L367,75.72l1.18.35,2.48-.24,2-1.76-.7-2-2.59,1h-2.09l-1.75,1-2.44,3.3-.52-.17.52-1.91,4.36-4.86,1.92-.52.52-1.74-2.44-2.42L365.49,65l.18-4-1.4-3.82-2.44-1.91-.17-6.94-1.57-2.43-.35-8.67-2.09-3.3-1.57-.34-1.4.69L354,37l-2.79,2.08-2.1.17-1.39,1.22.35,1.9,1.39-.87,2.44.35,1.75,3.47.69,2.43-1.57,2.78-1.39,2.08.18-4.86,1-1.21-.52-1.91-3.66-1.74-1.57-.86L346,38.94l2.09-1.73,1.74.17,2.44-2.08,1.22-2.43-1.74-1.39-.7-2.6-.35-1.73-1.92-1.91-.17-3.65,1.4-2.08-.7-2.6-1-.69L345,17.42h-3l-.84-.16-1.83,1-1.17,3.5.5,8.64L338,33.05v3.82l1.5,3v7.82l-1,1.83v6.32l.34,3.82,3.67,5.82,1,4.49-.33,5.48-1.17.17-.17,1.83-1.5.66-1.17-4.49V72.12l-.83-1-.51-1.83,2-.16.83-1L339.5,67l-2.17.33-1.67-1.83.5-1.33.84.33,1-.83.5-1.66-.83-.67-.34-4.15L336.5,56l.33-10.14-1-10.14-.33-5.32,1.16-1.83-1-4.49,1.17-3.82,1.67-4.82L342,11.77l.84-2L341.34,7l-2.17-.33L336,6.78l-1.68-1.49-1.83-2.17-.67,1.67L333,6.12V8l-1.17.66-.5-1.16.33-1.33-1-1,.33-2-1-.33-2.67,1.33-6.69,1.67L317.28,6l-3.17.83-.34,1.33,1,2,2,.16,1,1.83-.5,1L319,14.26l.17,1.33.84.5,1.33-1,.5,1.32v3h-1.5v2.66l-1.17.66v1.33L321,26.9l1.17,4.49,2.34,5.15.83,8,.32,4.61L330.17,51l.84,2.67-1.76,1.91,1.26,2.25,3,1.33-1.42,5.13,1.76,1.42L332.65,67,334,71.6l-.05,2,.71,3.74.58,4.29,1.63,3.94-.1,24-.58,2.08.42,2.08-.25,6.66.41,4.34-.83,2.33-1.34,1.58,1.25,6.58-1.34,4.5-.41,13.07-1.51,7.08-2.26,23.82-1.42,2.75,1.52,10.66L328,200.25l-.75,2.17,1.79,4.65-1.09,3.24.19,5.73,2.54-1.15.83.71,4.14-.71.59-1.3,2,1.42v.82l3.55,2.12,3.67-.59,2.25,1.06-.48,1-1.18.47-.24.94-1.06.47,1.82.79,3,.59.24,1.65h1.77l1.3,1.06.95-.71-.47-1.17,1.77-.12.83.94,1.19-1.06,1.42,2.24,2.24-2.24.83-.24.24,1.18-1.66,1.06-.12,1.3,1.07.23,1.3,1.41,2.72.24-.35,1.77.71,1.41h1.66l1.06-3.06-.55-1.8-2.5-.29,1.46-1.1.29-2.11,1.54,1.88,1.06-.12,1.19-1.88,2-.59,1.54.24,1.18-.59,2.13.82.59,3.54h2.37l2-2v-1.76l1.31.11-.36,2.6.83,1.17,1.54-1.29.12-2.12.94-.24.83,1.06,1.18,1.89L390,224l-.71-1.29,1,.11,1.3,1.89,2.6.35,1.07,1.53,1.07.12.59.95,1.42-.24.35,1.06-2,1.41.24.83,1.65-.83,1.78-.35,2-.59.48-1.77,1.3.71,2.13-1.53.47-3.89-.47-.82.95-.47,1.53.23,1.19-.71-.59-1.18.94-1.05.83,1.05,2.49-1.76-.48-1.65-1.3-.47,1.54-1.06,1.07.12v2.59l.71,1.53-.24,2.24-.83.7-.23.83,3.19-.35.12.7-1.42.71-.71,1.65.83,1.18L418,225l.94.35.36,2.36,1.66-.59,2,1.17,2.72-.47.12-1.41h1.77l1.19-.47,3.9.35,1.07.94,2.49.12.94,2-.12,1.53.71,1.3,2-.35,1.18.23-.12,1.06-3.33,7.18,1.07,2,3.23,3.11,1.07.56-.11,2,1.32.56L443,250.78l2.51,2,3.2,1.06.11.71-1.18,1.88,1.07.59.47,3.3,1.07,1.06-.48,1.88-2.37,2.12,1.19,3,1,2V272l3,2.25H454l-.1,2-1.53.31.2,1.53,3,2.56,1.43.1,4,3.58.82,2.56,2.15.82,1.43-.2.82.4.4,2.46,3.07,1.12,4.15-.61,5.68-2.47h3.08l3.67-.59,3-2.12,4.38-.47,5.21-1.53,1.18.94s3.55.47,4.26.59a5.7,5.7,0,0,1,1.9,1.18l3.31.59,7.22,4.23,4.75.51,1.76-.62,4.16-.25,0-1.52,4.27-4.59.23-2.83,1.3-1.3.48-3.88-.83-2,1.66-.83,3.43-3.06,1.66-.83,1.18.24,1.18-.82,2.61-1.3,5.68.12,5.8,2,2.25,2.47,13.26,8.84,1.89,1.53,9.83,2.94,2.36-.23,1.19.47,3.78-1.18,1.78-2.94,2.25-4.71,1.78-1.66,5.44-9.65.71-1.65,3.43-1.06,1-1.18,2.13-.35.71.82,1.07.71,1.77,2.71,2.37,1.06,2.6-.47,1.07-1.18,2.6-.59,1.42,1.06,6,.71,1.78-.36.82-1.06,3.14-.23h0l2.78-2.48,3.57-1.78,2.94,6.31,1.48,4.44,3.31,2.23,3.31-.36,1.65-1.41,4.5-.47,3.61.87,4.37-2.13-.77-4.72-.51-6L666,253.8,661.94,249l-6.68-3.76-2.14-1.76L651,239.8l-1.77-2-.71-2.47,2.24-2.12,2.14-4.71.94-5.89,3.08-2.83.59-1.88,1.66-.59,2,.91,5.28-5.41,4.19-2.15,2-3.08-.68-4.95-1.49-1.24-.15-4.88-3.48-.34-2.07-5.2v-3.34l3.34-1.86.19-4.83-5-3.7-2.78-4.82-2.15-3-2.58,1-.41,1.92-2.4.53-3.44-1.61-1.69-.05-3-2-1.55-.64-2.8.63-4-1.63-3,.52-2.56-.83-1.17-.85-6.18.54-1.54,1.67-1.56.22-3.46,2.74-.43,3.45-2.88,1.88-3.17.14-2,2-1.87.43-.72.87-4.47,2.73h-2.3l-.72-.86-10.26,1.9-1.44-1-1.73.29-4.54,3-3.24-1.39-4.47.21-1.42-1.67-2.5-.19-1.36,2L564.21,187l-2,2.28-2.79.77-3.82-.77-1.26,1-3.31.26-6.73,4.25-.62,4.11L545.4,206l2,7.07,1.65.82-.23,1.65-1.42.71-.36.94,2.25.83,1.3,1.76L549,221.89l.47,3.18,2.13-.47,1-1.18,1.77.71-1.18,3.42,2.13.82-1.18,1.3.94.82-.35.94.47,2.71,1.78,1.3-1.07.7-.12,1.06-.83.71,1.78,1.18.47,1.41,1,.83-.22,3.54,1.1,1.21,2.28,1.32V249l-5.4-.23-.48-.61-3.6-.59h-4.68L546,245.6l-1.08-.12L541.67,248l-.48,1.44-2.76.24-.36,1.08-2-1.08-1.92-.84-1.92.95.12,1.8-1.08,1.68L529,254.59l-.24,3.36-4.56,5.64-2.76.12-.12,1-2-.36-1.8-2.28-1.56-.24-1.08.84-8.77-.48-1.91-1.44h-2.4l-8.29-4.91-5.63-5-1.81.11-2.28-1.8-.83-1.19-2.41-1.08-1.56.24-.11-1.2-2.53-1.69-1.55-2.28-1,.6-.36.84h-1.56l-.24-.84-3.37-.84v-.84l-.6-.24L466,242l-1.8-.84-2.52-3.48v-3.84l-4.69-7.92L452,221l-11.64-6.72-7.2-1.07-3.84-2-1.92-4.32.12-2.52-4.56-5.4-1.2-1-.24-1.2,1.68-3.48v-2.52l2.88-2.4,1.32-.48v-1.56l-1.08-1v-.59l1.92-1.44-.12-.73-1.92-.71,1.08-2,3.48-1.2,1.68-2.28-.84-4.32-2.28-2.28-.72-5.28-8.16-8.28-.86-1.67L418,146.63,412.14,135l-9.23-6.71-11.6-3.42-5-7.79-.6-5.18-1.53-1.42-.24-5.07-.71-1.17V102.8l2.48-1.06v-.95L384.58,99l.8-3.56-3-2.09-3.74-.92V84.85l1.51-1,.69-2.76L378.44,79l-3-.46v-3.1l-1.37-2.34ZM342.43,5.55l-1.66-1.82h-1.48l-.18.59-4.91.06L333,2.49l-1.24-.12-.29-.88,2.78-.88,4.44.06.77.7,3.61,1.83L343.91,5l-.12.64-1.36-.06Z"/><path id="path6953" class="cls-2" d="M559,246.07l2.28,1.32V249l-5.4-.24-.48-.6-3.6-.6h-4.68L546,245.59l-1.08-.12L541.67,248l-.48,1.44-2.76.24-.36,1.08-2-1.08-1.92-.84-1.92,1,.12,1.8-1.08,1.68L529,254.59l-.24,3.36-4.56,5.64-2.76.12-.12,1-2-.36-1.8-2.28-1.56-.24-1.08.84-8.77-.48-1.91-1.44h-2.4l-8.29-4.92-5.63-5-1.81.12-2.28-1.8-.83-1.2-2.41-1.08-1.56.24-.11-1.2-2.53-1.68-1.55-2.28-1,.6-.36.84h-1.56l-.24-.84-3.37-.84v-.84l-.6-.24L466,242l-1.8-.84-2.52-3.48v-3.84l-4.69-7.92L452,221l-11.64-6.72-7.2-1.08-3.84-2-1.92-4.32.12-2.52-4.56-5.4-1.2-1-.24-1.2,1.68-3.48v-2.52l2.88-2.4,1.32-.48v-1.56l-1.08-1v-.6l1.92-1.44-.12-.72-1.92-.72,1.08-2,3.48-1.2,1.68-2.28-.84-4.32-2.28-2.28-.72-5.28-8.16-8.28-.86-1.67L418,146.63,412.14,135l-9.23-6.71-11.6-3.42-5-7.79-.6-5.18-1.53-1.41-.24-5.07-.71-1.17v-1.42l2.48-1.06v-.94L384.58,99l.81-3.57-3-2.09-3.74-.92,0-2.3V84.84l1.5-1,.69-2.76L378.44,79l-3-.46V75.41L374,73.16l.49-1.79-1.42-1.53.6-.88-.52-1.21h-1.92l-1.92-2.09-.17-6.59L368.11,57,366,56l-1.4-2.09-.52-3.29-.17-9-1.75-5.37-1.57-1.74-.35-2.25.18-1.39-2.27-2.08h-3l-2.1-2.26-.52-2.08,1.05-1.21L355,19.51l.53-1L354,16.74l-.16-1.65,1.34-2,2.51-.34L359,13.92l2.51.83h2.68l1,1,.16,1-2.51-.33-.5.83.84.5,1.67,2.34v1.49l2.51,1.17-.5,1.5-1.17.83.5,1,1.68-1,1.33.17,1.85,3.33,3.51,3.5,1.34,2.83-.84,2.33-4,2.67-1,2.83,1.51,3.66,4.18,3.84,3.18.66.51,2L383,56.4l2.35.17,1-2.33h1.51l3.35,2.33h1.34l2.84,1.83,1.84,2.67,4.52,3.83h1.85l1.17-.5-.17-1.5,1.51-1.17,1.34.67,2-.17-2.18-1h-1.67l-1.68,1.16h-1.67l-2.18-2-4.35-4.33-3.18-1.17-2.18-1.33-1.84-.34-2.18.67-2.51.17-2.35-1.67-.66-2.49,1-1.84,3.35-2.66,1.84-2V40.24l-.84-3-1-1.16h-2.51L380,34.91l-1.51-1-.5-3.33-.84-2-1.34-2.16-.16-1.51.5-1.49-.17-1.67,1.84-2.17,2.35-6.16,1.17-3.5,2.17-1.16.51-1,2.34-.34,1.51,1L387,9.59l-2,.5-.83,1,1.17,1.5,2.51.33.84,1.33-.17,5,1.67,2-.16,2.5-2.85,3.16,2.68-1.66L391,23.92l.84-2.67-.67-5.5-2-2.83V10.75l1.5-1,1.34-.5h2.35l.33-1.16L396,6.92h1.34l1.34-.83-.33-1,1.17-1.17,3.35-1.49,1.17-.17,2.18,2.33,3,1.67.17,1.16-2,1.17-2.68.33-.84,1.5,1.17,1,1.18-1.5h1.84l3.3,3.59h2.35l1.21,1.81,2,1.07.63,2.28,2,1.87,1,3.46,3.11,3,.72,3-2.26,1.18L420,30.63l-1.07,1.89v2.13l1.43,1.54,1.3,1.65-2.73,2-2.26.71v.71h2.62l1.66-.94,2.14.59.95-2-1.42-2.6-3-1.78.23-2.24,2.38-.36,2.14-.24L425.79,30V28l-1.42-1.54-2.74-4.14V19.16l1.91-1.07,1.69-2.23,5.3,5,.1,3.55,3.09,3,4.35,13.36,2.22,3.62,1.77,11.52-2.36,4.62L441.47,72,446,80.52l2.84,2,.41,1.57-1,2.58L450.1,92l-.47,1.3,2,4.25-1.16,3.79,2.55,3.82,6.31,4.69.28,4,1.87,6.43,4.92,5.08.17,2.55,2,4.14-1.71,4.12,2.57,4.1.48,2.82,1.54,1.6.52,3.39,2.71,2.1,1.09,3.34,3.74,4.59,2.61.68.42,6,.08,1.13.9,4.79,1.62,2.89,3,.36,2.9,2.72,4.29,5.29,4.32-.51,8.13,2,3.3,3.55,4.57,2,.77,4.31,4.06.26,8.38,3,4.32,1.78,3.31-.26,5.07-3.3,2.6,0-.57,4L545.4,206l2,7.06,1.65.83-.23,1.65-1.42.71-.36.94,2.25.82,1.3,1.77L549,221.89l.47,3.18,2.13-.47,1-1.18,1.77.71-1.18,3.41,2.13.83-1.18,1.29.94.83-.35.94.47,2.71,1.78,1.29-1.07.71-.12,1.06-.82.71,1.77,1.17.47,1.42,1,.82-.22,3.54ZM382.08,45.62l-3.24,1.61h-1.95l-.81-1.45-4.38-2.91V41.58l1.62-.65,1.95-1.61,1.78-.48,1-2.26,1.13-.81,1.14,1,3.73.81,1.13,1,.49,4.2-1.14.48-.32,1.62Z"/><path id="path7017" class="cls-2" d="M328.08,216.07l-2.39,2,.63,1.82,2.54-.34,1.21.94.47,1.42L328,222l.51,2.34-.34,5-2,.17v1.17l1.68,1.66V234l3.18,1.16.5,3-2.85,1.66H327l-1.34.84.67,2.33-2.18,3.33-1.67.66-2.12-.32-2.28-2-2.72-4.63,1.18-2.42-.09-6.58,1.43-1.33-.09-1.58-1.84-1.5-.67-3.33,1.26-1.25h1l1.26-2.42-1.59-.58-.92-2.33,1.84-2.75,1-.17-.08-1.25-1.26-.25.34-3.83-2-.58.5-6.41-1.09-1-.17-4.75L314,195l-.75-1.17,1.92-.83v-1.5L314,190.34l-.92.25L312,185.34l1.26-1.08.25-1.92,1.25-.83.34-2.75-1.84-1.16-.09-2,1.93-1.41,1.59-.41,1.11-2.1-.17-7.21-2.43-11.16-1.76-1,.08-.67,1.26-.34.09-2-1.26-1.76.84-3.44,2.34-.67,2-3.19-3.53-5.45.67-3.27,1.85-1.26.92-3.6-2.24-2.13-1.68-2.25.17-2.17-1-3.25-1.43-1.5-.67-2.33,1.18-.75,1.42-3.83,1.67-3,1.51-7,1.67-1.75,1.26-4.58,1-1.09.09-1.66-2.77-1.83-.5-2.34,1.17-.16,1,.41,1.34-1.16-1.17-1.92-1.09.33-.84-2.16h-1l-.84,2.5-1.67-1.42c0-.26-1.76-1.3-1.76-1.3l-.62.55-.36,2.51-1.53.12-1.35-2.08-.67-.06-1.16,1.1-2-.25-1-1.83.12-5.08-1-4.29-.44-3L302,66.6l.25-1,1.17-1.82-2.66-.25-.92-2.4-2.16-1.32,1-1.41,2.33-.08.66-2.82,3.08-2.15,1.5.58.91-2.57L304,46.81l-.75-7.54,5-9,1.5-.17,1,1.08,2.79.18.77.88,2.19.33,2.67,2.83,1.5,2.49v1.66L322,40l.84,2.16-.34,1.17,1.34,1.49.33,1.83-.83.83-.5,2.16-.34,2.83-1.33,4,.16,3.49-.16,4.32-2.34,1.83.67,1.33h1.16l1.51.67.17,1.16,1,1.17,1.67-.34-.17-.83-2-2.16-.34-2.83.5-5.82,2.84-6.15-.19-3.18L330.17,51l.84,2.66-1.76,1.92,1.26,2.25,3,1.33-1.42,5.13,1.76,1.42L332.65,67,334,71.6l-.05,2,.71,3.74.58,4.29,1.63,3.93-.1,24-.58,2.08.42,2.08-.25,6.66.41,4.33-.83,2.34-1.34,1.58,1.25,6.58-1.34,4.5-.41,13.07-1.51,7.08-2.26,23.82-1.42,2.75,1.52,10.66L328,200.25l-.75,2.17,1.79,4.65-1.09,3.24ZM285.9,10.37,282.84,10,280,7.15l-1.17-.06L277,9.66l.47,5.74,2.89,6.73,3.82,5.8.12,3.69.65.76,2.58.06.77.82,1.29.06-.29-4.22,2.29-2h1.53l1.36,2.29.88-.47.29-1.82L298.31,26l1-1.29,2.77-.59.94-1.58L301.19,21l-.7-10.89,1.7-1.87.42-1.76L300.9,6l-1.12-1-2.53-.23-1.06.87-2.88.06-5,4.22-2.42.41ZM298.45,54.9l2.6-1.41.66-1.59,2.19-.47.71-1.12-2.19-2.71-1.9-6.42.12-3.36,1.07-.64,1.83-3.59L306,30.52,307,27.58l1.6-1.36-1.42-2.53-1.95-1.41-.83-1.65h-.77l.12,3.95-2.19,2.88-4.14-.06-1.72,2.42-.3,1.35-1.77.12-1-2.12-1.54.29-.65,3.3L291.94,35l.83,4.77-.59,2.77.95,1.23,2.3.24.54,5.24.59.47,1.54.18.23,1.35-1.66,1-.41,1.06,1.66.7.53.94Z"/><path id="path7012" class="cls-2" d="M314.35,246.15l-2.07-.05-1.45.21-1.31.2-4.33,1.7-3.14.16-3.05-.94-3.72,1.06-.91,3.33-2.16.37-2.6-1.37-4.69-.52-1.67-1.7-.1-3.55,1.52-2.88-3.39-1-2.08,1.16-3.71.35-2-3.28,2.38-3-2.93-.83-3.53,1.72-1.85-2.16.1-2.73,2.25-2.29-2.76-2.78H263.3l-1-.66.42-1.34.75-.25.34.51.92-.34.08-.91-.65-.81,1.37-1.33-1.39-1,.15-1.71,2.23-.36-1.84-3.24-2.48-.45-1.59.38-1.34-.08-1.76-1-.33-1.58.22-1.79-2-1.16-2.07.26h-1.17l-1.5-1.25.92-2.58.83-.42L252,205l-1-.92h-1.92l-1.76-.91.75-2.08,3.55.89.09-1.75.58-.25-.42-.91-1.33-.17-1.09-1.33.08-1.75-1-.25.92-.83-.83-2.41-1.35,0,.55-1-.08-.91,2.76-1.17,4,.33.75-.83-3.18-1.58-4.35.08-2.51-3-2.52-6.83.84-.91-.92-1.42-.67-2.08.92-1.33-1-2.09-.25-4.33-.67-2.33,1-1.42-1.59-1.24L242,158.5v-3l6.19-8.82,2.43-5.17,2-1.83-.51-5.41,2.68-2.17.17-1.75,1.67-1.08v-.83l-1.5-1.5-.51-9,2-6.08,1.17-2.67.76-7.82,2.26-6,2.2-1,1.81-3,.29-2.19,2.48-2.48.78-3.17,2.08-.33,1.08-4.47-.75-5.3-1.91.66-1.67-1.32.17-1.41.83-.25-.33-2.81,1.33-2.07-.58-5.88-3-4.8L262.19,54v-.82L260.36,53l.25-1.74,1.41-.5-.25-1.16-2.91.5v1l-5.24-1.32-4.75-4.56-1.16-6.62-4.16-7-.92-2-1.5-.75.25-.58,1.25-.41.17-1.91,9.32-8.28,2.16-.41.5-.83,9.65-4,3.42-.33,1.08,1.07-.59,2.15h-.75L267,17.75l-3.16,2.56-.08,3.48-3.08.83-1.25,1.32-1.58-.33-.42.83,2.5.5,2.75-1.49,1.83-.17.91-1.16,1.42.09.16,5,2.25,2.07.17,3.65-2.5.74-1,.83-1.16-.17.08,1.66,1.25.33,1.24-.83,3,.42,2.83,9.44-.25,4.38-1.75.75L272.92,55l3.91.92-.75,1.49-1.75.66-.41,7.62,1,1.82-.67.58,1.75.16,4.16,4.39.08,3.89-.83.91.67,3.07.83.58-.33,1.65-.67.17-1,2.57-1.08.66,1.08,2,.34,5-2.92,1.82-3.24-2.07-1.5-3-.75,1.08,1.66,2.15,3.08,3.4v3.23l-.91.41-.58,1.41,2.08.66-.84,1.16-1.66.17-2,1.32h-1.49l.41,2.07h1.33l3.75,2.32.66,3.89,1.42.91.75,5.63-1.08,2.24.66,1.07.91-.41v-.91l1.84-2.4-1-2.9-1.42-2.82-.58-5.79-.92-.5-1.49,1.08L272.34,106l1.41-1.16,2-.08,1.83-.66.83-2.74-.25-2.65-1.58-1.57.58-1.57,2.25.5,2,4.71,2.41.92L285.9,100l-.83-3.31h-.58l-1.17,2.07-1.41-.08-1.58-3.23.25-9,1.83-2.64.16-5.72.92-1.32-.83-4-3.17-2.32-2.41-3.22L277,60.39l.25-1.33,3.24.25-.41,3.23.66,2.48,2.66-2.73.17-2-1.75-7.46-5.32-8.69-1.08-4.89-.67-.57.67-1.41,2-.33,1.66,3.47,3,2.57,1.67,5.55L285,53.93l4.16,3.48L292.48,60l.75,4.39h1.16l.17-3h2l2.33,4.47,3.83,5.47,1.18-.24,1.05,4.21-.12,5.08,1,1.83,2,.25,1.16-1.1.67.06L311,83.49l1.53-.12.37-2.51.61-.55s1.71,1,1.76,1.3L316.94,83l.84-2.5h1l.84,2.16,1.09-.33,1.17,1.92-1.34,1.16-1-.41-1.17.16.5,2.34,2.77,1.83L321.54,91l-1,1.08-1.26,4.58-1.67,1.75-1.51,7-1.67,3L313,112.26l-1.18.75.67,2.33,1.43,1.51,1,3.24-.17,2.17,1.68,2.25,2.24,2.13-.92,3.61-1.85,1.25-.67,3.27,3.53,5.45-2,3.19-2.34.67-.84,3.44,1.26,1.76-.09,2-1.26.34-.08.67,1.76,1,2.43,11.15.17,7.21-1.11,2.1-1.59.41-1.93,1.42.09,2,1.84,1.16-.34,2.75-1.25.83-.25,1.92L312,185.34l1.09,5.25.92-.25,1.17,1.16V193l-1.92.84L314,195l1.42.75.17,4.75,1.09,1-.5,6.41,2,.59-.34,3.83,1.26.25.08,1.24-1,.17-1.84,2.75.92,2.33,1.59.58-1.26,2.42h-1l-1.26,1.25.67,3.33,1.84,1.5.09,1.58-1.43,1.33.09,6.58-1.18,2.42,2.71,4.63ZM278.08,32l-.75.74L276,32.4l-.09-1.74-1.24-1.49.25-1.49.58-.16.5.82,1.91.75.75,1.74Zm-.29,20.74-.75.33-1.54-.46-1.5.25-.25-1.16,1.08-.91.09-2,.58-.49.83,1.16.5,1,1.62.95.42,1.08Zm8.52-7.47.94-.65.71-2.39,1.29-1.58-.18-1.82H286.6l-1.53-.76-1.82.7-.06,2.17,1.94,1.17.12,2Zm3.82,9.25-2.41-2L286.84,47l1.06-.77.47-1.11,2.23-.23.06,1.81-.76.82v2.7l.88,1.17.82,2.11Zm2.59-4.33L291.37,49V46l.94-1.46,1.35,1-.82.82Zm2.77,7.67-1.18-.47L294,55.8l-.89-.41-.35-2.17,1.53-.88,1,.29-.23,1L297,55.74,297,57.2Z"/><path id="path7026" class="cls-2" d="M361.48,361.55l7.36,1.17,5.19-2.5.17-1.84,4.52-2,3.51-.67,4.36-2.33,9.87-.5,4.52.83,9.55-1,6.36-1.83,3.51-.5,3.52-3.5,2-3,3.68-1.33,1.17-2.33,6.2-3.33,6.69-2.17,5.36-3.16,3.68-.5,4.69-.17,3.85-2.5,2-4,5.19-2.5,6.53-1.66,1.86-.94h0l3.83-1.56h3.51l4.86,1.17,7.86,4.49,1.51.17,5.86,3,1.34,2.83,5.2,1.82-.51-3,.17-1.66,1.34-.67,1-3.83-1.17-3,2-4.66,1.67-.5,2.51-2.67,1.84-.66.67,1.33,2.68-2.5.17-3.5-1.84-3.16-3-1.66-1-2.67,3.18-4.33.71-2.28-4.58-.55L509.42,287l-3.31-.59a5.87,5.87,0,0,0-1.9-1.18c-.71-.11-4.26-.58-4.26-.58l-1.18-.95-5.21,1.53-4.38.48-3,2.12-3.67.59h-3.08l-5.68,2.47-4.14.61-3.08-1.12-.4-2.46-.82-.41-1.43.21-2.15-.82-.82-2.56-4-3.58-1.43-.1-3-2.56-.2-1.53,1.53-.31.1-2h-1.43l-3-2.26v-1.63l-1-2-1.19-3,2.37-2.12.48-1.88-1.07-1.06-.47-3.3-1.07-.59,1.18-1.89-.11-.7-3.2-1.06-2.51-2,1.09-2.26-1.32-.57.11-2-1.07-.55-3.23-3.11-1.07-2,3.33-7.18.12-1.06-1.18-.23-2,.35-.71-1.3.12-1.53-.94-2-2.49-.12-1.07-.94-3.9-.35-1.19.47h-1.77l-.12,1.41-2.72.47-2-1.18-1.66.59-.36-2.35L418,225l-2.25,1.54-.83-1.18.71-1.65,1.42-.71-.12-.71-3.19.36.23-.83.83-.7.24-2.24-.71-1.53v-2.6l-1.07-.11-1.54,1.06,1.3.47.48,1.65-2.49,1.76-.83-1.05-.94,1.05.59,1.18-1.19.71-1.53-.24-.95.47.47.83-.47,3.89-2.13,1.52-1.3-.7-.48,1.76-2,.59-1.78.36-1.65.82-.24-.82,2-1.42-.35-1-1.42.23-.59-.94-1.07-.12-1.06-1.53-2.61-.35-1.3-1.89-1-.12L390,224l-1.07,1.89L387.73,224,386.9,223l-.94.24-.12,2.12-1.54,1.29-.83-1.18.36-2.59-1.31-.12v1.77l-2,2h-2.37l-.59-3.53-2.13-.82-1.18.58-1.54-.23-2,.59L369.5,225l-1.06.12-1.54-1.88-.29,2.1-1.46,1.11,2.5.29.55,1.79-1.06,3.07h-1.66l-.71-1.42.35-1.76-2.72-.24-1.3-1.41-1.07-.23.12-1.3,1.66-1.06-.24-1.18-.83.24-2.24,2.23-1.42-2.23-1.19,1.06-.83-.95-1.77.12.47,1.18-.95.71-1.3-1.06h-1.77l-.24-1.65-3-.59-1.82-.79,1.06-.47.24-.94,1.18-.47.48-1-2.25-1.06-3.67.59-3.55-2.12V215l-2-1.42-.6,1.3-4.14.71-.83-.71-2.55,1.18-2.39,2,.63,1.82,2.54-.34,1.21.94.47,1.42L328,222l.51,2.34-.34,5-2,.17v1.16l1.68,1.67V234l3.18,1.16.5,3-2.85,1.66H327l-1.34.83.67,2.34-2.18,3.33-1.67.66-2.12-.32-2.27-2-3.77,1.44-2.07-.05-1.45.21-1.31.2-4.33,1.7-3.14.16-3.05-.94-3.72,1.06-.88,3.37,1.07,1.52L292,257.69l-.09,5.41-1,1.42,2.74,3.75,1.5,1.5-.33,2.83-1.51,2.08-1.2,5.17-1.17,2.24-1.17.67-.09,2.08.59,1.58,1.17.33s-.92,1.34-1.42,1.92-.67.42-.67.42l-.84,1.5.67.75-.92,1,1.17,1,.09,1.66-.76.25-1.25-.5-.67.33.16,1.33.93.76,1.53,3.32.7.83-1.17.42.5,1,1.68.75L292.9,308l-.09,2.66-1.84.5.5,1.59.92,1.16-.83,1.75.67,3.17,2.42-.67.42-.59,2.35.42-.42,2.25-1.68.84.42.66,1.93.75-1.34,1.67-.84-.09-1.34,1.33-.79,3,1.26.83.76,1.75,1.84.5-1.26.75-1,.33.92,4.79,1.62,2.05,1.89,1.53,0,2,.51.88-1,2.4-1.15.87.65,2,1.08.76.15,2.34-.51,1.53,2.31,1.38,2.59,3.31,1,2.91,4.78-2.31,2.09-3.09,2.15-2,1.57.92-.2,2.37-.93.54-.15,5.41,4.83,5.81v4.43l1.27.83,6.24-.29,3.61-4.34,1.27-.59.68,1.22h2.2l4-6.39,4.73-1.8,1.42,2.44,4.48,1.07,4.3-1.56,2.78-2.25Z"/><path id="Potosi" class="cls-2" d="M693.92,767.39l-2.3-2.73-6.8-2.34-4.51-4.48.35-1.38-.69-2.88-7.17-1.38-.69.92-3-1-1.27-1.15h-4.39l-14.34-4.72L648,745l-3,.92-3.81-2.07-.81-2L637.08,740l-3.69-.11-4.86-3.22-.58-1.5h-4.74l-3.46.81-6.24-.58-1.62-1.49-2.65-.09-4.36-6-1.5-6.17-1.68-2-1.67-.17-2.18-2.66-2.51-2.5-2-1.34-3.18-.16-.5-.5L587.3,715h-2l-3.35.34-4.19-.67-2.84,1-2.68-2-.33-3.33-1.69-1.85-1.33,2.35-.17,2-2.84.16-1.34,2-2,1.67,1.84,2.66-1,2.84-2.35.49-3.68-.49-3.68,3.32-4.88.25.35,2.42-5.32,9-3.47,3,.93,2-2.08,5.06-3.12.58-1,1.95L539,751.4l.92-2.19,3-1.26,3.12.57,4.28,4.83,4.16,1.27L556,753,567,747l4.39-4.14,9.48-.58,2.08-.92,2.78.81.34,1,5.9,2.3,14.45,14.15,7,4.83h2.08l14.68,9.89,14,6.9,2.43,2.18,65.86,2.13.44-1.38-9.27-2.11-.64-2.73L698,776.65l-.06-3.57Z"/><path id="Ipiales" class="cls-2" d="M646.68,783.48l-2.43-2.18-14-6.9-14.68-9.89h-2.08l-7-4.83L592,745.53l-5.9-2.3-.34-1-2.78-.81-2.08.92-9.48.58L567,747,556,753l-1.51,1.61-4.16-1.27L546,748.52l-3.12-.57-3,1.26L539,751.4,535,749.67l1-1.95,3.12-.58,2.08-5.06-.93-2,3.47-3,5.32-9-.35-2.42,4.88-.25,3.68-3.32,3.68.49,2.35-.49,1-2.84-1.84-2.66,2-1.67,1.34-2,2.84-.16.17-2,1.32-2.37.76-3.68-1.42-1.53-.11-3.65-.6-.47v-3.42l2.25-.94.36-2.48,1.54-1.52,3-.48,1.42.71,1.87-.66-.22-2.17-2.6-2L574,684.72l-2.87.29-2.36,1.89-2.12.1-.13,2.25-1.9,1.89-2.48.11V692l-1.31.47-.59-1.76-2.37.7-1.65,1.06.23.83,1.31.11.11,1.89,1.07,1.06-1.07,1.3-.11,3.17-1.19.71-1.42,3.3-.12,2.36-3.67-.36-.94-2.59.12-1.06-1.54-.7-5.09-.12-.48-1h-.83l-1.06.71-1.89-.35-.24-1.42-.83-1.29-3.43-.71-.48-.94H532.5l-1.74,1.14.21,1.38-1.5,1.08-.42,2.84-1.76.66-3.1-3.33h-2.7l-.06,3,1.34.75.92,2.25,1.34.83-.84,1.5-.83.75-.26,2.4,2.35.29,4,3v1.65l-1.83.66-3.33,2.25L523,724.3l.83,1.65,2.33,2.16-1.83,2.48-3.33.67-3.06,2.12.32,2.37L516.4,738l-.29,3-1.91,1.63,1,2,4.58-.38,3.43,1.24,1.91,3.81-1.15,3.15,2.39,4.39.09,1.71,4.29-.09.48-.86,1.91.47.86,1.05,4.29,1,.19,1.24,5.05.77,2.68,2.29,2.19.28,2.86,1.91-.48,2.1.76,1,3.25.67,3,.28v1.81l5.35,4.2h1.62l2.55,2.28,5,.36,1.27.63.18-.63,6.09-.82,1.09-1.36,8.63-.18.82-.45,2.72-.28,1.18-1.27.91.18,2.73,2.36L599,777l.36,1.9L597,780.31l-.18.82,2.72.54.82,2-1.27.73v.72l.9.91-.54.73-.45,3.09.72,1.36v5.72l-1.54,1.45-1.36,2.18v1.64l-1.82,4-1.73.27-2.18,2-.45,2.45L588,812.37l-.73,1.91v4l-1.63,2.18-.28,3-1.54,2.82v1.9l-.91.91v1.54l1.82,3.19.09,4,.72,1L584.28,843l-1.45,2.08-.73,4.73.46,1.54,1.91,2.18s-.28,2.73-.28,3.46-.91,1-.91,1l.09,2.45,1,.91-.45,1.81-.54.64.08,2.36,1,1-.55,1.9-2.73,1.82V872L580,873l.09.91.91.27.55,1.55,26.79-10.18.46-1.27,1.72.18,2.73-3.45,1.36.09,1.54,1.91,2-.55.73-1.81,2.18.45,1.45,1.18.09,1-.82,1.36.91,3.36,2.09,1.28.46,1.45L627,873.5l3.72,1.72,1.28,1.27,1.9.73.1.91-.82.63.27.55.91.09,3.09,2.36,1.45-.18.18-1.36-2.54-2.45,1-.55,2.72.63v-1.72L641.5,875l2.45,1.63,1.46,2.46,1.18-.37.18-1.27,1,.18.27,1.36,6,1.19,1.25,1.07,4-.8s2.23,1.87,2.5,2.23,0,1.25,0,1.25l1.25.26,1.15-.89.63.54,1.69,3.3,2.14.53,1.34,1.52h2.85l4.28,1.33,4-.71,1.87-1.87,2.5.18.89,1.69,4.27.71,2.86-1.07,1.6,1.43,3.3-.27,1.25-1.61.62,1.26,2.58.17,2.59-1.51H707l.89-.8.09-.72,1.6-.62,1.69-2.5,1.25-.44.8-1.07L713,881l3-1.15,1.78.53.27,1h1.51l1.52-1.07,1.16.36,1.42,2.31,1.78.45,1.34,1.69s3.57.18,3.92.27a2.81,2.81,0,0,1,.89.63l1.7-.45,1.16-1.87,3.47.27.54,1.15,1.42,1.07h.72l1.24.72.81,2.32.6.3,2.41-.58-1.75-2.9.17-1.82,2.33-.17,1.16,1.32,1.5-2,.83-.33.17-.67-2.66-2.15.66-2.15h1.5l1,1.32.83.17.84-1.16-2.5-2.48-.17-2.65-1.71-.44.28-2.15,2.43-1.68,1.32-1.94-2-1.68-.91-.93-2.2.64-1.09-.67-1.41-4.15-.23-2.63,1.83-2.49V853.8l.83-2,.25-2.32-1.83-1-1.25-3.39-2.58-1.41-.25-1.24,1.42-1.16v-2.07l-3.41-3.31.91-1.32.67-2.82-5.91-5.55.25-9.77,1.91-2.73,2.25,2.4h1.75v-2.07l1-.83.59-1.49L740,809.5l-.08-2.07,1.5-.91-.17-2.9h1.25l.25-1.16-3.33-3.64-4.41-.58-8.57,0-5.57-3.39-6-7.41-2.26-1.84Z"/><path id="Pupiales" class="cls-2" d="M550.38,649.91l2.6-.59,3.09,1.3-.25,1.77,1.9,2.47.77,1.78L558,659l.36,3.18-2.72,1.3-1.19-.12-2.72,1.29-1.78,3.89L551,671.7l-.36,2.12.6,1.18,2.95,1.06,2,1.77,2.37.23.47,2.12-.71,2.12,2.13,1.89.59,3.06,1.77.94,1.43-1.18,2.35-.1-.1,2.34-1.9,1.89-2.48.11V692l-1.31.47-.59-1.76-2.37.7-1.65,1.06.23.83,1.31.11.11,1.89,1.07,1.06-1.07,1.3-.11,3.17-1.19.71-1.42,3.3-.12,2.36-3.67-.36-.94-2.59.12-1.06-1.54-.71-5.09-.11-.48-1h-.83l-1.06.71-1.89-.35-.24-1.42-.83-1.29-3.43-.71-.48-.94H532.5l-1.76,1.13-1.19-1.27L526,695.87s-1.51,3.15-2.18,2.65a20,20,0,0,0-3.52-1.33v-1.33l2-1.84-.84-3.16-2.84-3.57.27-2.55,4.92-1,.33-.93-4.91-2.62-.34-2.33,3.85-5.66,1.12-5,1.17-1.83,2.35-2.29.61-1.54.09-1.38,3.09-2.67,3.19-2.66,4-1.34h3l4.18-1.83,3.18-.16,1.58-1.64Z"/><path id="La_cruz" data-name="La cruz" class="cls-2" d="M829.72,457.85l2.79-4.14,5.59-3.92-.08-2.88,1.2-2.66,1.88-.17,1.37-3,1.54-.94.52-2.23-3.26-4.19-.08-6.6,4.88-5.31,2.4-1.46.34-3.68-.94-1.11,2.48-3.6.26-3.59-2.83-3.43-.51-1.54-3.17-1.54-.51-2.06-1.46-1-1.46,1-2.22-.17-.34-1.29-6.26-5.48-2.22-.34-2-3.08-.86-.09-1.47,1.33h-4.41l-1,2.74-2.83,1.75-2.35,2.33-3.55,2.21-1.78-.7-3,1.77-2.25,1-1.77.5-1.77-2.08-1.91-4.58-5.23-3.18L791.71,394l-2,4-3.44,1.54-.35,1.17L779.66,406l-3.18.72,3.07,2.1,4.61-1.17,1,.23-.59,6.48-2.43,6.77-.41,3,.94,2.59,2.61,5.54,4.38,3.07,5.32,4.94,5.92,2.47,4,3.65H808l5.06,4.76h0l1.48.76.56,1.15.88,2.58-.48,1,1.3,1.23h.82l.88,1.49-.36,1.06,3.23,0,5.37-2.6Z"/><path id="barbacoas" class="cls-2" d="M361.48,361.55l7.36,1.17,5.19-2.5.17-1.84,4.52-2,3.51-.67,4.36-2.33,9.87-.5,4.52.83,9.55-1,6.36-1.83,3.51-.5,3.52-3.5,2-3,3.68-1.33,1.17-2.33,6.2-3.33,6.69-2.17,5.36-3.16,3.68-.5,4.69-.17,3.85-2.5,2-4,5.19-2.5,6.53-1.66,1.88-1-.23,2.5L475,323.18v2l-3.07,3.17-.24,1.89-1.18,1.65-1-.94-1.9,1.17.24,2.71-2.72.35-1.18.95-1.07-2-6.27-.12L455,335.31l-7.1.59-3.55,2L442,338l-2,2v1.3l1.3.35,1.65,1.65-.59,1.53.95,4.12,1.07.83-.48,2.36-1.65-.36-.12-.94-1.42.83-.12,1.64,1.18,1.53-.59.71h-4l-.24.94.95,1.77-1.19,1.53-2.13-.59-1.3,2.12-1.54-.47-2,1.53v1.65l-1.19,1.18.48,2-.48,5.3-.82.47-.72,1.53h-3L422.54,373l-1.66-1.06-.24-.94-1.42-.59-3.19.71-.83,1.29h-1.07l-.47,1.42-.83.82.35,1.89,1.9.94.12,1.88,2.6.36,2.37,3.53.35,3.06,4.15.47.94-1.18,2-1.05,2.36,1.88.24,2,2.6,3.18,3.67,1.77,2.14-.12.94,1.41.24,2,1.42,1.77L442.3,402l-.47,1.06,1.06,1.06,1.9-.36.36-.94,1.42,1.65v.94h2l1.3-1.65.83.36,1.3,1.65H453l1.18-.83,1.07.65.35,4.28,1.34,1,.5,2.67,2.34,1,2-1,.17-1.33,1.84.33-.33,2.16.92,2.67-2.6-.67-2,.17v2.33l1.51,2.67-1.34,1.49h-2.68l-1.17,1.5,1.84,2,.17,2.33,5-.66,1.34,1.33L463.09,431l-2.51.17-1,2.17-2.35,1.17V436l2,.34-.67,1.66-2,.17-1.51,2.17,1.34,1.16-1.17,1,.67,3.5-3.85-.84-.83-2-2.35,1.67v1.83l-2.51.67-1.34,3-1.51.66.72,2.61h0l-.38,3.5-1.89,2-1.66,4,.36,4.24-.95,4.12-.83.82,1.18,1.06v5.54l-3.31,3.65-2.72.83-1.9,1.76.36,1.42-1.89-.95h-2l-.83,1.3-1.06-1.65H425.5l-2.14-1.53-2.69,1.74-3.84-3.34-6.43-.76-1.89-.94-.71-1.77-1.06.24-.36.71-1.42.12-.71,1.41-1.18-1.06-.6-1.65-1.3-.59-.23-.35-1.07.23-.83,1.53h-1.77L395.84,478l.24,3.06.83,1.88-1.18.71-.36,1.41h-.95l-.82-2.47-1.07-.35-.71.82.36.71-2,.59-.82-.59-.95.59.12,1.76-2.73,1.3-.47,1.77,1.54,1.64L385.78,492l-1.65-.59-1.31.83.12,1.06-1.77,2.12-1.66.82.47,1.54h2.73l1.06,2.58.47,4.36-1.06.95,1.54,1.88-1.78,6.24-.12,4.6.83,3.65-.71,4.12,1.3,4.48,3.32,3.65.24,1.76-.6.59-1.06,3.3-5.56,1.65-8.41,2.59L370,546.26l-4.14.35-1.19-1.17v-1.18l-3.31-.71-1.78-.23.95,1.06-.24.94h-.59l.95,3.3,1.3.11.71,1.06-.59.71h-1.42v.83l-1.07.59v2h-.71l-.35-1.17-1.3-.23v-1.3l-1.66.47.59.71-.95,1.18-1.42-1-.9.73.35,2.42,2.31.8,2.55.12.8,1.84-.8.69-.35,1.95-1.39.69-.46.58,1.27.8.46,1.61-3.12,1.73-1,2.18,1.39.81L353,572.22,282.34,586l.81-7.6-2.27-1.14-1.63.16L276,573.58l.49-3.24-1.79-1.3h-2.44l-1-1-.65,1.78v1.95l-2.44,1.13h-.81l-.65,2.27h-1.14l-1.47-1.46h-3.25l-2.28,2.75h-4.23l-4.07,1.79.16,3.55-6.18,3.57-2.6-.32-.49-1.3-1-.32-.06-2.18-4.23.86-.81,1.8-1.47,1.3,3.12,2.44-2.5,0L233.08,591l-3.51-.05L228,588l-1.76-3.3V582.3l2.21-2.27-.94-1.4-.59-2.11,1.65-.7,1.29,1.64h1.65l-.71-2.7-2-1.4-.35-2.93-1.53-1-1.41.46.7,2.7-1.53,1.17-2-.94-1.29-.11-.12,1.52-6.24,1.4-2.7-2.46-.12-2.22-1.18-.82-3.29,3.51L205,572.42l1.65-1.29-1.61-1.55,10.38-52.86-.59-2.59.95-.94,1.42.24.59-1.77-2.25-.24-.71-.94,1.66-1.65.11-1.65-2.13-1.41,1.78-.82-.71-2.6H218l.94-1.29-.11-1.65.82-.12,2.13.95L223,498.7l.94-.11,1,1.06,1.42.47.36-1.77,1.3-.47,1.18.59h1.9V496l1.89-1.06.59.95.59-.59,2.49-.83,1.18-1.88.71-.12,1.31.94.71-1.76h1.89l1-2.36.71-.23.83,1.29,1.42-.94,1.42-.35,2.84,2.47,1.89-.59-1.42-2.24-1.54-.12v-1.06l1.42-.82-.47-1.53,2.6,1.06,1-1.89-.24-1.17,1.54-1.18,1.3,1.18-.82,2.59,1.65,1.53.24-1.3.59-.23.59-1.53.71-.24,1.19,2.36.59-1.3,1.18-.82L261,482.45l.82-.82,1.54,2.11,1.3.12,1.66-.82,2-.12,2.49,2.71-1.9.82-.47,1.54,2.61-.12.35.82-.95.95.83.58,1.42-.11.6.35-.48.83.71,1.88,2.13-.24,1.07.83-.48.7,1.31,1.42,2.36.71.6-.71,2.48,1.41.71.71,1.66.35.59.83-.95.82.36,1.65,1.77-.36.6.48,1.3,1.17,1.18-.7,2.13.47-.59-1.3,1.42-.82,1.54.7-.12-1.76,1.42-.83-1.54-1.29.24-3.54-1.3-.94,1.54-.59.71-1.88-1.19-.94-1.17-4,1.07-1.07L296,480l-.47-1.3-.36-6.71.56-3.67-.23-8.71,0-8.86.12-5.06-.95-7.3-.71-4.48,1.54-3.89,1.17-3.06.47-1.06V424.8l1-3.52.24-10.49-.71-3.89-1-1,.8-1.9-.94-1.06,2.24-2.71h.71l2.14-1.77v-1.76l1.3-2.36-.24-2.47h.83l1.89-1.77,1.78.12,2.6-3.18v-2.35l-1.18-2,.24-2-1.19-.71-1.3-4.24-1.77-.47-.6-2.12,2.13-.11,1.19-1.65v-1.77l1.65-.23.83-1.18-1.65-.59,1.53-1.65.27-2.11-.95-1.18-.35-1.41-1.76,1.31L305,361.27l4.77-2.29,2-3,2.32-2.17,1.52.95-.24,2.39-.93.54-.15,5.41,4.83,5.81v4.44l1.27.83,6.24-.29,3.61-4.35,1.27-.58.68,1.21h2.2l4-6.38,4.73-1.81,1.42,2.44,4.48,1.07,4.3-1.56,2.78-2.24Z"/><path id="Buesaco" class="cls-2" d="M749.76,562.28l1.66.46,8.26-3.29,2.13-3.29,3.78-4.7,2.37-1.88.7,1.17,4.26-.46,3.54-3.53,4.73-1.41,4.25-5.41,3.79-2.76,2.46,1,2-1.45.48-2.82,1.48-1.28,4.17,1.77.61,1.84-.1,1.93,3.06,1.12,4.89-.91,5.71-5.3V530l2.89-2.43-1.25-2.21-3.35-.24-1-1.17-2.84.51.33,2-2.85,3.17h-1.84l-.5-2.33-1-1.34-3,.17s.34-2.17-1-2.33a22.39,22.39,0,0,0-2.51-.17l-.34-2.66-4.35-1.17-5,2s-.5,1.33-1.17,1.33-2.85-2.16-2.85-2.16l-.84-1.84-1-1.33-2.18-5.66-3.68-2.83-1.84-2.83-1-7.17-1.17-.5-4.85-6.16L759.9,491l-2.51-5.66H755L750,483l-3.51-1,.33-2.17,4-2.57-.44-.47-4.15-.35-.94-1.89-3.26-2.33-3.61.33-3,1.89-2.84-.6-2.6-2.23-1.9-.24-2.13,1.3-2.6.35-5.09-.82L718,471l-5.48-.62-1.54.83-2.13-.24-3.44,1.06-7.81-1.29-.35-1.07-2.76.16L694,473s-.94,1.18-1.54,1.77-3.67.7-3.67.7l-1.3,2.48.71,8.13,1.78,1.41-.59,2.36,1.89,3.53,3.43.94,5.09,3.89s.24,2.35.24,3.06,1.66,2.36,1.66,2.36l-2.61,9-1.3.59-1.18,2.12v3.65L691.36,528l-2.82,2.41,2.89,5.53-.34,1.66,1.68,4.33,1.67,1.67,4.69,5.67,3.68,1,6.7-1,1.68,1-.68,2.67,3.69,5.33,7.36,4.33,4,3,5.69,1,6.7-2.33,3.35-2.34,2,.67,3.3,3.09Z"/><path id="Imues" class="cls-2" d="M601.4,637.37l3.19-.53.48-2.83,2.36-1.29.36-3.07.94-1.29,1.07.47,2.72-1.53-.47-1.41.76-1-1.47-3.24.71-3.19-1.3-1.53L609,613.64l-4.26-.59-.71-.94h-1.07l-.82-2.48.59-2.94,1.77-.59-1.3-2-1.63-2.33-4.88,2-1.07.94h-3.66l-4.26-3.77-2.73.48v2.47l-3.31.12-5.45,4-2.72.12-1.66,2.83-5.09,1.18-1.42-1.54-2.69-.68.56,1.74-.36,1.65.83,1,2.25.94,1,1.45,1.3.91.24,1.05,3.43.71,1,1.41,4.62,1.54,3.07.23,3.2-2,3.43.47L589,622l-.71,2.83-.83.82-.24,4.36,1.78,1.53v2.12l1.18,1.18H592l1.09,1.18,4.12.12,4.15,1.23Z"/><path id="Contadero" class="cls-2" d="M601.63,672.18l-2.8,3.36-2.09.29-1.86-.16-1.46,1.54-1.14,1.93-3.48,1.05-1.54.24-3.33,3.88-.24,2.34-2.19,1.61H579l-2.62-2.07-2.48-1.49-1.66-2.87L569,679.6l-.36-1.42,1.66-1.41.24-3.42-1.77-1.88,1.42-1.3-.6-1.77L566.71,667l-1.89-2.35L564,663l4.61.24,2.61-1.54,5.56,1.06,5.09,2.59,3,.71,1.78,1.41H588l2.25-1.65,2.84.36,1.89.94,2.84-3.3h2.25l2.61,1.47,1.3,2-.24,1.29-1.77,1.3-.36,2.36Z"/><path id="Gualmatan" class="cls-2" d="M564,663l-.83-1.18-.36-2.12L561,657.45l-2.57-.78L558,659l.36,3.18-2.72,1.3-1.19-.12-2.72,1.29-1.78,3.89L551,671.7l-.36,2.12.6,1.18,2.95,1.06,2,1.77,2.37.23.47,2.12-.71,2.12,2.13,1.89.59,3.06,1.77.94,1.43-1.18,2.37-.1h2.13l2.36-1.89,2.87-.3-1.68-2.88L569,679.6l-.36-1.42,1.66-1.41.24-3.42-1.77-1.88,1.42-1.3-.6-1.77L566.71,667l-1.89-2.36L564,663Z"/><path id="Tuquerres" class="cls-2" d="M560,624.81l1.49-1.16-.24-1.77,1.06-1.3h2.37l2-.94-.35-1.18.45-1.88-.93-1.41-2.25-.94-.83-1,.36-1.65-.57-1.74-.73-.14-.71-1.65-3.67-2-2-5.66s1.89-.59,2-1.05,1.18-5.89,1.42-6.37,3.2-2.7,3.31-3.29.59-2.59.59-2.59l-1.29-2v-2.24l.82-2V579.6l-1.59-1.83-6.1-5-1.54-2.23-3.55-.59-3.08.12L540.32,567l1.53-2.71.24-3.76,1.66-2.12.35-2.83,1.78-.94,2.37-.71.23-3.77,1.9-1.76-.36-3.54,2.13-4.71L551,535.43l1.07-2.24-1-2.8-2.47,4.69-2.13,1-.59,4L541,544.38l-4,1.29L534.28,550l-.83,3.89-1,3.65.83,3.77-.71,2.47-2,1.77-1.42,3.3,3,4.47-1.54,5.78-2.72,2.35v1.65l2.6,1.53-4.26,8.6-5.09,3.53h-2.72l-.71,1.77,2.36,2-2,4.24-1.06.36-.18,3.26,1.12,3.8-.71,6.48,2,4,2.72,1.77,4.73,5.07,6.63,1.06,3.44,1.65,2.6.23.35-1.53,1.31-1.3h2.24l3-1.17,2.13-3.3,4-1.06,7.63.69Z"/></svg>