<svg xmlns="http://www.w3.org/2000/svg" viewBox="0 0 43 54"><defs><style>.cls-1{isolation:isolate;}.cls-2{fill:#cbcbcb;mix-blend-mode:multiply;}.cls-3{fill:#fff;}</style></defs><g class="cls-1"><g id="Capa_1" data-name="Capa 1"><path class="cls-2" d="M30.52,29.69l-6-6-9.9-5.19c0,3.46-.05,6.88-.08,10.35l6,6.05c0-3.47.05-6.9.08-10.36h0Z"/><path class="cls-2" d="M40.49,31.46c0-.64,0-1.28,0-1.93v-.34c0-.63,0-1.25,0-1.86,0-.12,0-.24,0-.36,0-.61-.07-1.21-.12-1.77v0c0-.22,0-.42-.07-.63s0-.28,0-.41-.07-.44-.1-.64,0-.22-.05-.31-.08-.4-.12-.58,0-.17-.05-.24a6.34,6.34,0,0,0-.2-.65l0,0a.41.41,0,0,0,0-.09,3.75,3.75,0,0,0-.4-.74s0-.07-.05-.1a4.32,4.32,0,0,0-.34-.39l-6-6.05a3.72,3.72,0,0,1,.4.49,4.36,4.36,0,0,1,.4.74c0,.05.05.09.07.14s.13.41.2.65l.06.3c0,.17.08.33.11.52s0,.23,0,.34.07.4.09.61,0,.28,0,.41,0,.43.07.65c0,.56.09,1.16.12,1.78,0,.12,0,.23,0,.35,0,.61,0,1.23,0,1.86,0,.11,0,.23,0,.35,0,.64,0,1.28,0,1.92v.06c0,.65-.05,1.28-.1,1.89l0,.46c0,.14,0,.27,0,.41s0,.47-.07.7,0,.26,0,.38-.06.46-.09.67,0,.22,0,.32c-.05.29-.1.57-.16.83a.09.09,0,0,1,0,.05c-.06.26-.12.5-.19.72l-.05.17c-.07.2-.14.39-.21.55a3.48,3.48,0,0,1-.23.38,2.2,2.2,0,0,1-.17.25c0,.07-.11.13-.16.19a3.5,3.5,0,0,1-.39.38L32.3,34a5.23,5.23,0,0,1-.63.41c-1.08.56-7.35.82-13.49.82C12.54,35.19,7,35,5.7,34.55a3.94,3.94,0,0,1-1.55-.93l6,6a3.79,3.79,0,0,0,1.55.93c1.3.43,6.84.65,12.49.65,6.14,0,12.4-.26,13.48-.82a4.54,4.54,0,0,0,.63-.41l.17-.14a4.54,4.54,0,0,0,.38-.38,1.09,1.09,0,0,0,.11-.1L39,39.3a2.13,2.13,0,0,0,.16-.25,1.77,1.77,0,0,0,.12-.17,1.51,1.51,0,0,0,.11-.22,2.37,2.37,0,0,0,.14-.32l.07-.22.06-.18c.06-.22.13-.45.19-.71h0a.07.07,0,0,1,0,0c.05-.26.11-.54.16-.83,0-.1,0-.21,0-.32s.07-.44.1-.67,0-.26,0-.39,0-.46.08-.69l0-.41a2.12,2.12,0,0,0,0-.24c0-.07,0-.15,0-.22,0-.61.08-1.24.1-1.89Z"/><path class="cls-3" d="M33.69,15.67c1.14,3,1.1,14-.28,16.95a3.88,3.88,0,0,1-1.74,1.75c-1.08.56-7.35.82-13.49.82C12.54,35.19,7,35,5.7,34.55a3.73,3.73,0,0,1-2.45-2.39C2.22,29.23,2,17,4.06,14.58a3.94,3.94,0,0,1,2.68-1.42c2.47-.27,7.22-.4,11.9-.4,5.83,0,11.56.2,12.65.6A3.8,3.8,0,0,1,33.69,15.67ZM14.51,28.81l10-5.16-9.9-5.19c0,3.46-.05,6.88-.08,10.35"/></g></g></svg>