<svg xmlns="http://www.w3.org/2000/svg" viewBox="0 0 24.19 24.19"><defs><style>.cls-1{fill:#fff;}.cls-2{fill:#93278f;}</style></defs><title>adjuntar</title><g id="Capa_2" data-name="Capa 2"><g id="Capa_1-2" data-name="Capa 1"><circle class="cls-1" cx="12.1" cy="12.1" r="12.1"/><path class="cls-2" d="M10.35,11.52V9.69a.81.81,0,0,1,.81-.81h1.78a.82.82,0,0,1,.82.81v1.83h.76V9.69a1.58,1.58,0,0,0-1.58-1.58H11.16A1.58,1.58,0,0,0,9.58,9.69v1.83Z"/><path class="cls-2" d="M14.38,11.22H9.72a.53.53,0,0,0-.53.53v3.8a.53.53,0,0,0,.53.53h4.66a.53.53,0,0,0,.53-.53v-3.8A.53.53,0,0,0,14.38,11.22Zm-2,2.36v.95a.26.26,0,0,1-.26.25H12a.26.26,0,0,1-.26-.25v-.95a.59.59,0,0,1-.27-.48.57.57,0,1,1,1.14,0A.59.59,0,0,1,12.35,13.58Z"/><path class="cls-2" d="M12.05,19.56A7.48,7.48,0,0,1,4.58,12.1a.54.54,0,0,1,1.07,0,6.4,6.4,0,1,0,6.4-6.41.53.53,0,0,1,0-1.06,7.47,7.47,0,1,1,0,14.93Z"/><path class="cls-2" d="M3.5,12.26,4.9,9.79a.27.27,0,0,1,.48,0l1.41,2.47a.28.28,0,0,1-.24.42H3.74A.28.28,0,0,1,3.5,12.26Z"/></g></g></svg>