<svg xmlns="http://www.w3.org/2000/svg" viewBox="0 0 24.19 24.19"><defs><style>.cls-1{fill:#fff;}.cls-2{fill:#93278f;}</style></defs><title>celular</title><g id="Capa_2" data-name="Capa 2"><g id="Capa_1-2" data-name="Capa 1"><circle class="cls-1" cx="12.1" cy="12.1" r="12.1"/><path class="cls-2" d="M10.78,5.79l7.61,7.62a.91.91,0,0,1,.27.64v2.53a.91.91,0,0,1-.27.64L17.21,18.4a.89.89,0,0,1-1.28,0L13.6,16.07a.89.89,0,0,1,0-1.28l.41-.41a.91.91,0,0,0,0-1.29l-2.9-2.9a.92.92,0,0,0-1.29,0l-.41.41a.89.89,0,0,1-1.28,0L5.8,8.27A.89.89,0,0,1,5.8,7L7,5.79a.91.91,0,0,1,.64-.27h2.49A.93.93,0,0,1,10.78,5.79Z"/></g></g></svg>