<svg xmlns="http://www.w3.org/2000/svg" viewBox="0 0 24.19 24.19"><defs><style>.cls-1{fill:#fff;}.cls-2{fill:#93278f;}</style></defs><title>descripcion</title><g id="Capa_2" data-name="Capa 2"><g id="Capa_1-2" data-name="Capa 1"><circle class="cls-1" cx="12.1" cy="12.1" r="12.1"/><path class="cls-2" d="M8.9,11V7.58a1.52,1.52,0,0,1,1.52-1.52h3.35a1.52,1.52,0,0,1,1.52,1.52V11h1.43V7.58a3,3,0,0,0-2.95-2.95H10.42a3,3,0,0,0-2.95,3V11Z"/><path class="cls-2" d="M16.93,10.46H7.26a.53.53,0,0,0-.53.53v8a.52.52,0,0,0,.53.52h9.67a.52.52,0,0,0,.53-.52V11A.53.53,0,0,0,16.93,10.46Zm-4.27,4.41v1.78a.49.49,0,0,1-.48.48H12a.48.48,0,0,1-.47-.48V14.87A1,1,0,0,1,11,14a1.08,1.08,0,1,1,2.15,0A1.06,1.06,0,0,1,12.66,14.87Z"/></g></g></svg>