<svg xmlns="http://www.w3.org/2000/svg" viewBox="0 0 44.53 44.53"><defs><style>.cls-1,.cls-2{fill:#fff;}.cls-1{stroke:#fff;stroke-miterlimit:10;stroke-width:0.5px;}</style></defs><g id="Capa_2" data-name="Capa 2"><g id="Capa_1-2" data-name="Capa 1"><circle cx="22.26" cy="22.26" r="22.26"/><g id="I3dmIl.tif"><path class="cls-1" d="M21.61,34.6H13.29a3.12,3.12,0,0,1-3.4-3.4V15.71a3.09,3.09,0,0,1,3.36-3.37h5c.53,0,.82.21.83.59s-.3.63-.86.63H13.33c-1.51,0-2.2.68-2.2,2.17V31.18a1.92,1.92,0,0,0,2.2,2.18h16.6a1.93,1.93,0,0,0,2.21-2.22V26.25c0-.55.2-.82.59-.83s.65.28.65.83v5a3.12,3.12,0,0,1-3.3,3.31Z"/><path class="cls-2" d="M31.85,10a4.66,4.66,0,0,0-.55-.09,2.94,2.94,0,0,0-2.22.93L18.37,21.57a1.46,1.46,0,0,0-.4.69c-.44,1.62-.89,3.23-1.33,4.84-.19.67.18,1,.84.87,1.63-.44,3.25-.9,4.88-1.35a1.29,1.29,0,0,0,.62-.35L33.79,15.46a2.93,2.93,0,0,0,.79-1.36A3.82,3.82,0,0,0,31.85,10ZM18.41,26.44c-.32.1-.32,0-.24-.27.26-.91.5-1.83.73-2.65l2.18,2.18C20.26,25.92,19.33,26.17,18.41,26.44ZM31.22,16.28l-8.55,8.55c-.06.07-.14.13-.23.22l-.21-.2c-.83-.83-1.66-1.67-2.5-2.49-.18-.17-.14-.26,0-.42q4.31-4.28,8.58-8.58c.19-.19.29-.17.46,0,.81.82,1.63,1.65,2.46,2.46C31.43,16,31.39,16.11,31.22,16.28Zm1.19-1.2c-.13.13-.2,0-.27-.09l-2.52-2.53c-.08-.08-.25-.15-.09-.3a3.5,3.5,0,0,1,1.07-.88,1.43,1.43,0,0,1,.61-.11,2.84,2.84,0,0,1,2.21,2.3C33.46,14.2,32.88,14.61,32.41,15.08Z"/></g></g></g></svg>