<svg xmlns="http://www.w3.org/2000/svg" viewBox="0 0 17.29 17.28"><defs><style>.cls-1{fill:#fff;}</style></defs><g id="Capa_2" data-name="Capa 2"><g id="Capa_1-2" data-name="Capa 1"><g id="Hx3i5b.tif"><path class="cls-1" d="M16.69,2.68,14.55.53A1.68,1.68,0,0,0,13.35,0a1.71,1.71,0,0,0-1.22.56L1.79,11a1,1,0,0,0-.25.43Q.81,14,.05,16.64c-.06.2-.1.38.06.53a.49.49,0,0,0,.54.06c1.54-.44,3.08-.9,4.63-1.31a3,3,0,0,0,1.42-.83q5-5,10-9.93A1.58,1.58,0,0,0,16.69,2.68ZM3.12,10.78l7.2-7.27c.16-.16.25-.19.42,0,.32.36.67.7,1,1,.18.16.2.25,0,.44C10,6.69,8.29,8.43,6.56,10.17L4.67,12.05l-.25.24A7.07,7.07,0,0,1,4,11.46.64.64,0,0,0,3.25,11,1.11,1.11,0,0,1,3,11C3,10.88,3.06,10.84,3.12,10.78ZM1,16.32l.49-1.71,1.23,1.22Zm4-1.14-1.17.33a.29.29,0,0,1-.35-.09l-1.6-1.6a.3.3,0,0,1-.1-.36c.15-.48.29-1,.42-1.45,0-.16.1-.25.27-.22s0,0,.07,0a.83.83,0,0,1,1.09.67A2.06,2.06,0,0,0,5,13.76c.5.22.49.24.49.76S5.49,15,5,15.18ZM13.77,7l-6.2,6.14c-.41.4-.8.83-1.2,1.25l-.13,0c.2-.65-.12-1-.67-1.16A4.65,4.65,0,0,1,5,12.88c0-.13.12-.18.2-.25C7.58,10.26,10,7.9,12.3,5.53c.19-.19.29-.19.47,0a11.8,11.8,0,0,0,1,1C14,6.71,14,6.8,13.77,7Zm2.45-2.44c-.5.51-1,1-1.53,1.52-.12.13-.19.12-.31,0L11.23,2.9c-.13-.13-.11-.2,0-.32l1.5-1.5A.79.79,0,0,1,13.37.8a.75.75,0,0,1,.59.27c.76.75,1.52,1.5,2.27,2.26A.78.78,0,0,1,16.22,4.53Z"/></g></g></g></svg>