<svg xmlns="http://www.w3.org/2000/svg" viewBox="0 0 44.53 44.53"><defs><style>.cls-1{fill:#fff;}</style></defs><g id="Capa_2" data-name="Capa 2"><g id="Capa_1-2" data-name="Capa 1"><circle cx="22.26" cy="22.26" r="22.26"/><g id="sVDXQf.tif"><path class="cls-1" d="M15.21,10a.59.59,0,0,1,.46.28l1.53,2.4c.17.27.2.54-.1.72s-.52,0-.69-.25c-.5-.79-1-1.56-1.5-2.35C14.67,10.4,14.83,10,15.21,10Z"/><path class="cls-1" d="M13.9,16.68a.41.41,0,0,1-.62.39c-.93-.47-1.83-1-2.74-1.49A.38.38,0,0,1,10.4,15a.4.4,0,0,1,.56-.22c.92.48,1.83,1,2.74,1.48A.41.41,0,0,1,13.9,16.68Z"/><path class="cls-1" d="M34.18,15.24a.57.57,0,0,1-.32.43L31.37,17c-.26.14-.52.19-.68-.09a.46.46,0,0,1,.23-.69c.85-.46,1.69-.92,2.55-1.36C33.84,14.68,34.2,14.89,34.18,15.24Z"/><path class="cls-1" d="M21.81,10V8.51c0-.3.11-.54.42-.55s.48.23.48.55v2.83c0,.29-.09.53-.42.54s-.48-.22-.48-.54Z"/><path class="cls-1" d="M27.87,13.57c-.42,0-.63-.35-.44-.66.55-.88,1.14-1.73,1.73-2.59a.43.43,0,0,1,.69.5l-1.69,2.55A.4.4,0,0,1,27.87,13.57Z"/><path class="cls-1" d="M29.49,20A7.35,7.35,0,0,0,15.8,18a7.26,7.26,0,0,0,1.09,8.44,5.4,5.4,0,0,1,1.57,4c0,.66.1.76.78.76h6c.72,0,.79-.08.81-.8a5.52,5.52,0,0,1,1.55-3.92A6.91,6.91,0,0,0,29.49,20Zm-2.61,5.93a5.62,5.62,0,0,0-1.62,3.51c-.07.78-.07.78-.86.78H22.22c-.82,0-1.64,0-2.46,0-.29,0-.42-.06-.44-.39a6.24,6.24,0,0,0-1.84-4.11,6.28,6.28,0,0,1-.91-7.36A6.48,6.48,0,0,1,23,15a6.41,6.41,0,0,1,5.58,5.16A6.14,6.14,0,0,1,26.88,25.94Z"/><path class="cls-1" d="M25,31.66c-1.84,0-3.68,0-5.53,0a1.12,1.12,0,0,0-1.26,1.11,1.11,1.11,0,0,0,1.25,1.12H25c.78,0,1.28-.43,1.29-1.08A1.13,1.13,0,0,0,25,31.66ZM24.89,33H19.58c-.18,0-.42.06-.44-.21s.24-.22.41-.22h5.36c.18,0,.44,0,.45.2S25.08,33,24.89,33Z"/><path class="cls-1" d="M24.27,34.34c-1.34,0-2.67,0-4,0a1.11,1.11,0,1,0,0,2.22h4a1.1,1.1,0,0,0,1.19-1.12A1.08,1.08,0,0,0,24.27,34.34Zm-.11,1.31h-3.8c-.18,0-.36,0-.35-.26s.21-.17.35-.17h3.8c.14,0,.33,0,.34.18S24.33,35.65,24.16,35.65Z"/><path class="cls-1" d="M28,21.4v.05c0,.34,0,.68-.44.68s-.44-.31-.46-.63a4.82,4.82,0,0,0-4.65-4.6c-.31,0-.58-.1-.58-.45s.29-.47.63-.45h.05A5.71,5.71,0,0,1,28,21.4Z"/></g></g></g></svg>