<svg xmlns="http://www.w3.org/2000/svg" viewBox="0 0 15.55 20.38"><defs><style>.cls-1{fill:#fff;}</style></defs><g id="Capa_2" data-name="Capa 2"><g id="Capa_1-2" data-name="Capa 1"><g id="_16E5eV.tif" data-name="16E5eV.tif"><path class="cls-1" d="M13.94,3a7.72,7.72,0,0,0-12.62.49,7.4,7.4,0,0,0,0,8.45c1.82,2.82,4,5.4,6,8.09.31.42.72.41,1,0,1.87-2.51,3.83-5,5.61-7.56a7.34,7.34,0,0,0,1.59-4.4A7.85,7.85,0,0,0,13.94,3Zm-.78,8.47c-1.31,2-2.81,3.86-4.23,5.77L8,18.55c-.11.16-.19.22-.33,0C5.9,16.21,4.06,13.94,2.43,11.5a6.32,6.32,0,0,1-.52-6.59,6.51,6.51,0,0,1,6.47-3.7A6.6,6.6,0,0,1,14.15,6.1a7.24,7.24,0,0,1,.2,1.73A6.13,6.13,0,0,1,13.16,11.51Z"/><path class="cls-1" d="M7.94,3.57A4.18,4.18,0,1,0,12,7.8,4.19,4.19,0,0,0,7.94,3.57ZM7.8,10.73a3,3,0,1,1,3-3A3,3,0,0,1,7.8,10.73Z"/></g></g></g></svg>