<svg xmlns="http://www.w3.org/2000/svg" viewBox="0 0 16.4 12.02"><defs><style>.cls-1{fill:#fff;}</style></defs><g id="Capa_2" data-name="Capa 2"><g id="Capa_1-2" data-name="Capa 1"><g id="Li91CF.tif"><path class="cls-1" d="M14.3,0H2.1A1.93,1.93,0,0,0,0,2.08V9.94A1.93,1.93,0,0,0,2.07,12H14.33A1.93,1.93,0,0,0,16.4,9.94V2.08A1.93,1.93,0,0,0,14.3,0Zm0,1.29c0,.1-.09.12-.15.17L8.43,5.69c-.14.1-.23.17-.41,0L2.2,1.4l-.12-.11Zm.85,4.43V9.94c0,.58-.22.8-.79.8H2.06c-.55,0-.78-.23-.78-.78V2.31l.32.24C3.71,4.11,5.83,5.68,7.93,7.26a.37.37,0,0,0,.54,0l6.44-4.79.21-.15Z"/></g></g></g></svg>