<svg xmlns="http://www.w3.org/2000/svg" viewBox="0 0 44.53 44.53"><defs><style>.cls-1{fill:#fff;}</style></defs><g id="Capa_2" data-name="Capa 2"><g id="Capa_1-2" data-name="Capa 1"><circle cx="22.26" cy="22.26" r="22.26"/><g id="ayAhAz.tif"><path class="cls-1" d="M22.83,18.26a2,2,0,0,0-.94-.05c-.65.14-.84.35-.84,1,0,1.75,0,3.5,0,5.25a1.08,1.08,0,0,0,1.32,1.22c.81-.07,1.13-.4,1.13-1.2V21.93c0-.93,0-1.86,0-2.79A.81.81,0,0,0,22.83,18.26Z"/><path class="cls-1" d="M22.28,14.46A1.26,1.26,0,0,0,21,15.56a1.3,1.3,0,0,0,2.57,0A1.22,1.22,0,0,0,22.28,14.46Z"/><path class="cls-1" d="M34.35,18a12.29,12.29,0,1,0-16.19,13.8,1.25,1.25,0,0,1,.64.49c.79,1.2,1.6,2.38,2.4,3.56a1.15,1.15,0,0,0,2.13,0c.78-1.14,1.56-2.27,2.31-3.42a1.7,1.7,0,0,1,.89-.69,12.28,12.28,0,0,0,8-11.52A12.83,12.83,0,0,0,34.35,18Zm-9.1,11.82a1.87,1.87,0,0,0-1.08.8c-.54.83-1.12,1.63-1.65,2.46-.22.34-.32.29-.51,0-.55-.85-1.13-1.66-1.68-2.5a1.72,1.72,0,0,0-1-.74,10.05,10.05,0,1,1,5.93,0Z"/></g></g></g></svg>