<svg xmlns="http://www.w3.org/2000/svg" viewBox="0 0 19.03 19.04"><defs><style>.cls-1{fill:#fff;}</style></defs><g id="Capa_2" data-name="Capa 2"><g id="Capa_1-2" data-name="Capa 1"><path class="cls-1" d="M18.49,0a10.19,10.19,0,0,0-2.06.19A15,15,0,0,0,8.17,4.71a.52.52,0,0,1-.41.19,9.1,9.1,0,0,0-2.59.46,10.1,10.1,0,0,0-4,2.38C1.07,7.88,1,8,1,8.23s.24.26.43.29a1.66,1.66,0,0,0,.22,0l2.7.39-.12.15c-.47.55-.47.58,0,1.09l4.44,4.44c.57.58.56.73,1.35.05.14,1,.27,1.9.4,2.83,0,.21.06.43.31.5a.52.52,0,0,0,.55-.22,10,10,0,0,0,2.78-6.44.67.67,0,0,1,.22-.51,14.6,14.6,0,0,0,3-3.94A13.48,13.48,0,0,0,19,.53C19,.13,18.9,0,18.49,0ZM4.26,8.13C3.65,8,3,7.94,2.28,7.84a9.4,9.4,0,0,1,5-2.12C6.65,6.41,6.07,7,5.55,7.66A1.12,1.12,0,0,1,4.26,8.13Zm6.93,8.63-.37-2.63a.22.22,0,0,1,.1-.22l2.39-2.14A9.47,9.47,0,0,1,11.19,16.76Zm4.38-8.5a14,14,0,0,1-2.07,2.28Q11.58,12.24,9.68,14c-.19.17-.29.21-.5,0C7.82,12.57,6.44,11.2,5.06,9.83c-.16-.16-.19-.25,0-.44C6.27,8,7.46,6.64,8.71,5.3A14,14,0,0,1,17.4.84a2.23,2.23,0,0,1,.37,0c.46,0,.46,0,.45.42A13.83,13.83,0,0,1,15.57,8.26Z"/><path class="cls-1" d="M5.12,13a2.4,2.4,0,0,0-3.31.88A23.76,23.76,0,0,0,0,18.52.39.39,0,0,0,.54,19a24.5,24.5,0,0,0,4.58-1.77,2.21,2.21,0,0,0,1.21-1.91A2.54,2.54,0,0,0,5.12,13Zm-.27,3.46a13.07,13.07,0,0,1-2.6,1.14c-.38.14-.77.26-1.26.42a18.92,18.92,0,0,1,1.6-3.88,1.49,1.49,0,0,1,1.66-.63,1.61,1.61,0,0,1,1.26,1.3A1.53,1.53,0,0,1,4.85,16.48Z"/><path class="cls-1" d="M13.59,3.47a2,2,0,1,0,2,2A2,2,0,0,0,13.59,3.47Zm0,3.16A1.17,1.17,0,0,1,12.4,5.47a1.2,1.2,0,0,1,1.18-1.22,1.22,1.22,0,0,1,1.2,1.21A1.2,1.2,0,0,1,13.58,6.63Z"/></g></g></svg>