<svg xmlns="http://www.w3.org/2000/svg" xmlns:xlink="http://www.w3.org/1999/xlink" viewBox="0 0 458.27 93.45">
    <defs>
        <style>.cls-1{opacity:0.5;}.cls-2{fill:url(#linear-gradient);}.cls-3{fill:url(#linear-gradient-2);}.cls-4{fill:url(#linear-gradient-3);}.cls-5{fill:url(#linear-gradient-4);}.cls-6{fill:url(#linear-gradient-5);}.cls-7{fill:url(#linear-gradient-6);}
        </style>
        <linearGradient id="linear-gradient" x1="350.9" y1="29.97" x2="350.9" y2="93.95" gradientUnits="userSpaceOnUse">
            <stop offset="0" stop-color="#b6f21f"/><stop offset="1" stop-color="#ebf70a" stop-opacity="0"/>
        </linearGradient>
        <linearGradient id="linear-gradient-2" x1="242.18" y1="-4.42" x2="242.18" y2="94.23" xlink:href="#linear-gradient"/>
        <linearGradient id="linear-gradient-3" x1="259.35" y1="34.54" x2="259.35" y2="93.92" xlink:href="#linear-gradient"/>
        <linearGradient id="linear-gradient-4" x1="-4789.69" y1="29.97" x2="-4789.69" y2="93.95" gradientTransform="matrix(-1, 0, 0, 1, -4682.32, 0)" xlink:href="#linear-gradient"/>
        <linearGradient id="linear-gradient-5" x1="-4898.4" y1="-4.42" x2="-4898.4" y2="94.23" gradientTransform="matrix(-1, 0, 0, 1, -4682.32, 0)" xlink:href="#linear-gradient"/>
        <linearGradient id="linear-gradient-6" x1="-4881.24" y1="34.54" x2="-4881.24" y2="93.92" gradientTransform="matrix(-1, 0, 0, 1, -4682.32, 0)" xlink:href="#linear-gradient"/>
    </defs>
    <title>lineas-reg</title>
    <g id="Capa_2" data-name="Capa 2">
        <g id="Capa_1-2" data-name="Capa 1">
            <g class="cls-1">
                <path class="cls-2" d="M458.27,32.83V86.3a7.15,7.15,0,0,1-7.15,7.15H243.52Z"/>
                <path class="cls-3" d="M452.88,93.23a6.85,6.85,0,0,1-1.76.22H31.49L378.11,0Z"/>
                <polygon class="cls-4" points="385.04 93.45 133.66 93.45 346.52 37.2 385.04 93.45"/>
            </g>
        <g class="cls-1">
            <path class="cls-5" d="M0,32.83V86.3a7.15,7.15,0,0,0,7.15,7.15h207.6Z"/>
            <path class="cls-6" d="M5.39,93.23a6.85,6.85,0,0,0,1.76.22H426.78L80.16,0Z"/>
            <polygon class="cls-7" points="73.23 93.45 324.61 93.45 111.75 37.2 73.23 93.45"/>
        </g>
    </g></g>
</svg>