<svg id="Capa_1" data-name="Capa 1" xmlns="http://www.w3.org/2000/svg" viewBox="0 0 153 154"><defs><style>.cls-1{fill:#053962;}</style></defs><path class="cls-1" d="M88,129.74h0a4.29,4.29,0,0,1-4.29-4.31l.09-38.18A4.3,4.3,0,0,1,88.12,83h0a4.3,4.3,0,0,1,4.3,4.31l-.09,38.18A4.31,4.31,0,0,1,88,129.74Z"/><path class="cls-1" d="M88,153a26.43,26.43,0,0,1-17.69-46.49A4.3,4.3,0,1,1,76,113a18.13,18.13,0,1,0,23.87-.31,4.31,4.31,0,1,1,5.75-6.41A26.58,26.58,0,0,1,88.93,153Z"/><path class="cls-1" d="M100.55,53.4a47.29,47.29,0,0,1-6.1-.42,2.87,2.87,0,1,1,.74-5.69c8.19,1.06,14.13-.14,17.65-3.56,2.61-2.55,3.15-5.65,3.83-9.58a37.62,37.62,0,0,1,3-10.5c3.32-6.9,9.71-12.42,19.06-16.46a57.65,57.65,0,0,0-7.54-.41c-6.19.06-19,.2-30.44,9.37A43,43,0,0,0,87.29,35.73a2.87,2.87,0,1,1-5.43-1.86A48.74,48.74,0,0,1,97.13,11.68C110.07,1.26,124.81,1.1,131.1,1a64,64,0,0,1,19.14,2.74,2.87,2.87,0,0,1-.07,5.51C137,12.9,128.46,18.57,124.82,26.14a32.65,32.65,0,0,0-2.49,9c-.76,4.36-1.54,8.87-5.49,12.71C113,51.54,107.57,53.4,100.55,53.4Z"/><path class="cls-1" d="M73.35,79H73C61.15,77.73,52,73.6,46,66.72c-5.36-6.07-6.71-12.43-8-18.58-1.13-5.33-2.2-10.36-5.71-15.69-5.4-8.18-14.93-14.08-28.35-17.51a2.87,2.87,0,0,1,.37-5.63,102,102,0,0,1,28.55,1.2C51.84,14,67.25,22.86,77.37,36.09A66.77,66.77,0,0,1,90.11,66.54a2.88,2.88,0,0,1-5.68.9A60.8,60.8,0,0,0,72.8,39.58C58.24,20.53,35.18,15.72,20,14.78c7.38,3.73,13.06,8.58,17,14.51,4.11,6.23,5.4,12.3,6.54,17.66,1.26,5.92,2.34,11,6.7,16,5.11,5.78,13,9.26,23.4,10.36a2.87,2.87,0,0,1-.3,5.73Z"/><path class="cls-1" d="M70.85,64.38a2.88,2.88,0,0,1-2.77-2.11A32.62,32.62,0,0,0,53.67,43.06a2.87,2.87,0,1,1,3-4.88A38.47,38.47,0,0,1,73.62,60.74a2.9,2.9,0,0,1-2.77,3.64Z"/><path class="cls-1" d="M96.42,43.58a2.22,2.22,0,0,1-.67-.1,2.29,2.29,0,0,1-1.53-2.86,37.82,37.82,0,0,1,17.23-21.8,2.3,2.3,0,0,1,2.31,4A33.24,33.24,0,0,0,98.61,42,2.28,2.28,0,0,1,96.42,43.58Z"/></svg>