<svg id="Capa_1" data-name="Capa 1" xmlns="http://www.w3.org/2000/svg" viewBox="0 0 647 906"><defs><style>.cls-1{fill:#8cae31;}</style></defs><path class="cls-1" d="M647,0c-13.09,34.83-37.47,83.24-85.13,118.91-88.65,66.33-177,28.08-222.95,93.91-30.22,43.31-1.87,74.08-43.24,141.88-20.89,34.23-35.13,37.89-68.91,78.37C180.1,489,156.1,519.6,147.72,564.14c-1.51,8-13.73,78.89,29.73,138.5,53.62,73.57,153.18,76.76,182.41,77.7,85.83,2.75,97.57-34.88,153.37-15.54,74.24,25.74,121.78,116,125,122.29,4,7.72,6.87,14.33,8.78,18.91Z"/></svg>