<svg id="Capa_1" data-name="Capa 1" xmlns="http://www.w3.org/2000/svg" viewBox="0 0 647 906"><defs><style>.cls-1{fill:#8cae31;}.cls-2{fill:none;stroke:#bbd859;stroke-miterlimit:10;stroke-width:2px;}</style></defs><path class="cls-1" d="M647,0c-13.09,34.83-37.47,83.24-85.13,118.91-88.65,66.33-177,28.08-222.95,93.91-30.22,43.31-1.87,74.08-43.24,141.88-20.89,34.23-35.13,37.89-68.91,78.37C180.1,489,156.1,519.6,147.72,564.14c-1.51,8-13.73,78.89,29.73,138.5,53.62,73.57,153.18,76.76,182.41,77.7,85.83,2.75,97.57-34.88,153.37-15.54,74.24,25.74,121.78,116,125,122.29,4,7.72,6.87,14.33,8.78,18.91Z"/><path class="cls-2" d="M328.76,633.42h0a16.3,16.3,0,0,1-16.26-16.34l.35-144.52a16.29,16.29,0,0,1,16.3-16.26h0a16.3,16.3,0,0,1,16.26,16.34l-.35,144.52A16.29,16.29,0,0,1,328.76,633.42Z"/><path class="cls-2" d="M328.7,721.46c-42.86,0-82-26.88-96.08-66.35-13.57-38.2-1.87-82.27,29.12-109.66a16.3,16.3,0,1,1,21.59,24.43c-21.11,18.67-29.15,48.53-20,74.31,9.71,27.29,37.58,45.67,67.72,44.63,27-.92,51.11-17.07,61.33-41.15,11.43-26.94,3.91-58.67-18.71-79a16.3,16.3,0,1,1,21.77-24.27c33,29.6,43.82,76.21,27,116-15.16,35.71-50.58,59.65-90.25,61C331,721.44,329.85,721.46,328.7,721.46Z"/><path class="cls-2" d="M376.15,344.41a180.47,180.47,0,0,1-23.08-1.57,10.87,10.87,0,1,1,2.79-21.56c31,4,53.48-.53,66.81-13.49,9.9-9.62,11.93-21.38,14.5-36.26,2.06-11.9,4.39-25.4,11.28-39.73,12.57-26.15,36.77-47,72.15-62.32a216.23,216.23,0,0,0-28.54-1.57c-23.41.25-72.11.78-115.21,35.48-29.09,23.42-43.74,53.25-50.9,74.14a10.87,10.87,0,0,1-20.56-7c8.09-23.61,24.7-57.34,57.82-84,49-39.43,104.78-40,128.6-40.29a242.65,242.65,0,0,1,72.46,10.35A10.86,10.86,0,0,1,564,177.4c-49.91,13.7-82.2,35.17-96,63.82-5.57,11.6-7.54,23-9.45,34-2.85,16.51-5.81,33.59-20.77,48.14C423.43,337.37,402.74,344.41,376.15,344.41Z"/><path class="cls-2" d="M273.17,441.33a11.07,11.07,0,0,1-1.15-.06c-45-4.77-79.51-20.39-102.55-46.45-20.3-22.95-25.42-47-30.37-70.31-4.29-20.18-8.35-39.24-21.64-59.4-20.41-31-56.51-53.29-107.29-66.29a10.87,10.87,0,0,1,1.39-21.32c5.14-.63,51.88-5.82,108.06,4.53,72.12,13.29,130.48,46.78,168.76,96.85,25.1,32.83,41.32,71.61,48.23,115.28a10.87,10.87,0,1,1-21.47,3.4c-6.34-40.07-21.15-75.55-44-105.47C216,220,128.69,201.76,71.36,198.19c27.94,14.12,49.46,32.5,64.25,55,15.55,23.58,20.44,46.56,24.75,66.84,4.77,22.41,8.88,41.77,25.39,60.43,19.33,21.86,49.12,35.06,88.55,39.23a10.87,10.87,0,0,1-1.13,21.68Z"/><path class="cls-2" d="M263.71,386a10.88,10.88,0,0,1-10.47-8,123.75,123.75,0,0,0-54.55-72.72,10.87,10.87,0,1,1,11.44-18.48,145.5,145.5,0,0,1,64.07,85.43,10.88,10.88,0,0,1-7.6,13.37A11,11,0,0,1,263.71,386Z"/><path class="cls-2" d="M360.51,307.25a9,9,0,0,1-2.54-.38A8.7,8.7,0,0,1,352.19,296a143.29,143.29,0,0,1,65.24-82.53,8.7,8.7,0,0,1,8.75,15,125.84,125.84,0,0,0-57.36,72.56A8.7,8.7,0,0,1,360.51,307.25Z"/></svg>