<svg xmlns="http://www.w3.org/2000/svg" viewBox="0 0 43 54"><defs><style>.cls-1{isolation:isolate;}.cls-2{fill:#cbcbcb;mix-blend-mode:multiply;}.cls-3{fill:#fff;}</style></defs><g class="cls-1"><g id="Capa_1" data-name="Capa 1"><path class="cls-2" d="M17.08,19.07a5.1,5.1,0,0,0-.69.24c-.13.06-.24.13-.36.2a5.28,5.28,0,0,0-.56.35l-.33.27a4.89,4.89,0,0,0-.46.45c0,.06-.12.11-.17.17s-.08.13-.13.18l-.23.34c-.05.08-.11.15-.15.23s-.09.2-.14.29l-.12.25-.06.14a4.54,4.54,0,0,0-.21.69v0a.17.17,0,0,0,0,.07,3.52,3.52,0,0,0-.1.65c0,.11,0,.21,0,.32s0,.38,0,.57l.06.34a1.43,1.43,0,0,0,0,.22,4.11,4.11,0,0,0,.23.8s0,0,0,.06l.07.14a4.42,4.42,0,0,0,.36.68l.11.18.09.13a5.27,5.27,0,0,0,.49.57h0l4.25,4.27c-.22,0-.44,0-.66,0A8,8,0,0,1,14.65,31a8.1,8.1,0,0,1-1.81-1.36h0l6,6A7.87,7.87,0,0,0,24.45,38a8.46,8.46,0,0,0,.87,0l.28,0a3.78,3.78,0,0,0,.57-.1l.31-.08.5-.14.32-.12.47-.19.3-.15c.15-.08.3-.16.44-.25a2.61,2.61,0,0,0,.28-.17,4.37,4.37,0,0,0,.44-.31l.23-.17c.18-.14.36-.3.53-.46l.09-.08c.19-.2.38-.4.55-.61l0,0a.21.21,0,0,1,0-.06,8.4,8.4,0,0,0,.71-1.05l0,0v0a8,8,0,0,0,.44-.94l.05-.11s0-.09,0-.13a8.1,8.1,0,0,0,.24-.8c0-.05,0-.09,0-.13a.06.06,0,0,1,0,0,8.48,8.48,0,0,0,.15-1s0-.06,0-.1,0-.37,0-.55a7.32,7.32,0,0,0,0-.81h0a7.7,7.7,0,0,0-.16-1,2.68,2.68,0,0,0-.07-.27,6.59,6.59,0,0,0-.22-.72c0-.05,0-.1,0-.15l0-.07a8.26,8.26,0,0,0-.4-.85L31.4,26c-.13-.22-.26-.44-.41-.65a1,1,0,0,1-.08-.11.87.87,0,0,0-.08-.1,9.85,9.85,0,0,0-.67-.78h0l-6-6a6.92,6.92,0,0,1,.67.78,1.77,1.77,0,0,1,.16.22,7.06,7.06,0,0,1,.42.64l.09.15a7.2,7.2,0,0,1,.39.85,2,2,0,0,1,.08.22,6.18,6.18,0,0,1,.23.73c0,.09,0,.17.07.26a8,8,0,0,1,.16,1q0,.41,0,.81c0,.21,0,.41,0,.62l-4.26-4.28a5.08,5.08,0,0,0-3.57-1.49h-.05a4.94,4.94,0,0,0-1.1.13A3.37,3.37,0,0,0,17.08,19.07ZM20.41,27a3.27,3.27,0,0,1,.3-.35c.14-.16.29-.31.45-.46l.33-.26a4.73,4.73,0,0,1,.56-.35l.36-.2a5.63,5.63,0,0,1,.69-.24l.34-.11a5.1,5.1,0,0,1,1.11-.12h0a4.92,4.92,0,0,1,1.72.33c0,.14,0,.29-.07.43s0,.11,0,.17c-.07.27-.15.54-.24.8a2.44,2.44,0,0,1-.1.24,7.3,7.3,0,0,1-.43.94l0,.06a7.51,7.51,0,0,1-.72,1.05l-.06.09a8.09,8.09,0,0,1-.56.61.27.27,0,0,1-.08.07c-.17.17-.35.33-.53.48l-.23.16-.44.32-.28.16c-.14.09-.29.17-.44.25l-.31.15-.46.19-.32.12-.5.15-.32.08-.45.08a5.79,5.79,0,0,1-.21-.71l0-.22a4.6,4.6,0,0,1-.08-.91,5.25,5.25,0,0,1,.11-1,.13.13,0,0,0,0-.06,5.64,5.64,0,0,1,.28-.85,1.89,1.89,0,0,1,.11-.25,5.39,5.39,0,0,1,.3-.52A2.54,2.54,0,0,1,20.41,27Z"/><path class="cls-2" d="M11.5,42.89a8.5,8.5,0,0,0,4,2.17,53,53,0,0,0,8.61.45,78.21,78.21,0,0,0,8.55-.34,9.18,9.18,0,0,0,1.44-.35c.14,0,.27-.1.41-.15a7,7,0,0,0,.89-.38c.14-.07.28-.14.41-.22a8.38,8.38,0,0,0,.76-.51l.34-.26a7.65,7.65,0,0,0,.8-.81s.08-.07.11-.11l0,0a8.45,8.45,0,0,0,.72-1.08l0,0c.07-.12.11-.25.17-.37s.25-.5.36-.77a.93.93,0,0,1,0-.1c.12-.33.23-.67.33-1,0-.06,0-.13.05-.21s0-.23.07-.35a.13.13,0,0,1,0-.06q0-.32.09-.69c0-.07,0-.13,0-.2,0-.24.05-.49.07-.75,0,0,0-.06,0-.09v0c0-.3,0-.62.06-1,0-.1,0-.21,0-.32s0-.49,0-.75,0-.27,0-.41l0-.76c0-.13,0-.26,0-.4,0-.31,0-.62,0-.94v-.24c0-.4,0-.8,0-1.21,0-.11,0-.22,0-.33V29c0-.27,0-.54,0-.8v-.39c0-.3,0-.59,0-.88v-.24c0-.37,0-.73,0-1.07v-.19c0-.27,0-.53,0-.77a2.72,2.72,0,0,1,0-.28c0-.2,0-.4,0-.58s0-.17,0-.26,0-.36,0-.52a.86.86,0,0,1,0-.16c0-.19,0-.36,0-.49v0A11.34,11.34,0,0,0,39.59,21a2.8,2.8,0,0,0-.13-.41c-.06-.22-.11-.45-.19-.66a1.51,1.51,0,0,0-.11-.22c0-.12-.1-.23-.16-.35a7.54,7.54,0,0,0-.46-.83l-.2-.31L38.25,18a8.86,8.86,0,0,0-.76-.88l-6-6.05a7.53,7.53,0,0,1,.86,1c.07.1.13.2.19.3a6.92,6.92,0,0,1,.47.84l.16.34a9.12,9.12,0,0,1,.3.88c0,.14.09.27.12.41a8.53,8.53,0,0,1,.23,1.34c0,.15,0,.33,0,.53a1.21,1.21,0,0,1,0,.19c0,.15,0,.31,0,.49h0l-4.38-4.39a5.44,5.44,0,0,0-3.13-1.5,68.61,68.61,0,0,0-7.74-.3c-3.09,0-6.16.09-7.51.23a7.11,7.11,0,0,0-1.06.22l-.32.1a6.11,6.11,0,0,0-.64.26l-.33.17a5.8,5.8,0,0,0-.52.34,3.15,3.15,0,0,0-.29.22,4.78,4.78,0,0,0-.45.45c0,.06-.12.11-.17.17l-.06.09L7,13.9c-.06.09-.13.18-.19.28l0,.1-.15.32c0,.1-.1.2-.14.31l-.06.18c0,.12-.07.25-.11.38a2.29,2.29,0,0,0-.08.28,3.12,3.12,0,0,0-.09.44c0,.17,0,.38-.07.6l0,.25c0,.15,0,.28,0,.44v.07c0,.07,0,.16,0,.24s0,.39,0,.6,0,.21,0,.32,0,.41,0,.63,0,.23,0,.35,0,.47,0,.71,0,.22,0,.33l0,1.07V22c0,.3,0,.61,0,.92,0,.13,0,.27,0,.41v3.38c0,.36,0,.71,0,1.05,0,.09,0,.18,0,.27s0,.48,0,.71,0,.21,0,.32l0,.59a2.81,2.81,0,0,0,0,.29c0,.2,0,.38,0,.56a1.21,1.21,0,0,0,0,.19c0,.23,0,.43,0,.61H6c0,.2,0,.38.06.52A6.1,6.1,0,0,0,6.37,33l0,.15s0,.07.06.1a5,5,0,0,0,.57,1l0,0a5.37,5.37,0,0,0,.44.51l4.42,4.43A16.19,16.19,0,0,1,9.46,39a10,10,0,0,1-1.17-.38,7.71,7.71,0,0,1-2.81-1.79h0ZM33.89,18.07a1.55,1.55,0,0,1,0,.22c0,.11,0,.21,0,.32s0,.46,0,.7a2.26,2.26,0,0,1,0,.26c0,.22,0,.46,0,.69l-2.73-2.75,1.17.12A6.24,6.24,0,0,1,33.89,18.07Zm-6.25-.7-.09.06-.09,0a1.86,1.86,0,0,1-.67.14,1.91,1.91,0,0,1-.86-.25Zm-3,0h1.15l5.72,5.76a1.86,1.86,0,0,0,1.31.54,1.8,1.8,0,0,0,.66-.13l.09,0a2.33,2.33,0,0,0,.41-.24v1.34c0,.4,0,.79,0,1.19A1.85,1.85,0,0,0,34,26c0,.33,0,.65,0,1,0,.13,0,.26,0,.39s0,.52,0,.77,0,.26,0,.39,0,.52,0,.77c0,.1,0,.21,0,.31,0,.34,0,.67-.07,1v.09c0,.27-.05.52-.07.75a1.5,1.5,0,0,0,0,.2c0,.25-.06.48-.1.69,0,0,0,0,0,.06a5.05,5.05,0,0,1-.11.56,11.51,11.51,0,0,1-.38,1.13c-.11.27-.24.52-.36.77s-.13.29-.2.42a8.06,8.06,0,0,1-.73,1.07l-.12.13a8.75,8.75,0,0,1-.8.81l-.35.26q-.36.27-.75.51l-.42.23a8.59,8.59,0,0,1-.88.37l-.42.16a10.12,10.12,0,0,1-1.44.34,74.86,74.86,0,0,1-8.54.35c-2,0-4,0-5.58-.13v0a2.6,2.6,0,0,1-.1-.25,6.49,6.49,0,0,1-.31-1.19c0-.14,0-.32-.06-.52s0-.39,0-.62c0-.06,0-.13,0-.2s0-.35,0-.55,0-.2,0-.3,0-.38,0-.58,0-.22,0-.33,0-.44,0-.67v-.32c0-.33,0-.67,0-1v-.23c0-.29,0-.58,0-.87V30.12c0-.26,0-.52,0-.78V29c0-.32,0-.63,0-.95v-.18c0-.37,0-.73,0-1.08a2.81,2.81,0,0,0,0-.29c0-.25,0-.51,0-.75s0-.22,0-.33l0-.65c0-.1,0-.21,0-.31s0-.42,0-.62,0-.15,0-.22,0-.35.05-.52,0-.17,0-.24c0-.23.05-.43.08-.6a5.55,5.55,0,0,1,.17-.73c0-.12.07-.25.11-.37s.13-.34.2-.5.09-.21.14-.31l.24-.39.25-.36a2.73,2.73,0,0,1,.23-.25,4.78,4.78,0,0,1,.45-.45l.28-.22a3.67,3.67,0,0,1,.53-.34l.32-.18.65-.25.31-.11a7,7,0,0,1,1.07-.21C18.49,17.42,21.56,17.34,24.64,17.34Z"/><path class="cls-3" d="M26.81,13.88h0a1.84,1.84,0,0,1,1.84,1.86,1.89,1.89,0,0,1-1.88,1.86,1.86,1.86,0,0,1,0-3.72Z"/><path class="cls-3" d="M33.79,16.26c.23,2.44.38,14-.33,16.66a7.93,7.93,0,0,1-6.85,6.2,74.86,74.86,0,0,1-8.54.35A52.67,52.67,0,0,1,9.46,39a7.77,7.77,0,0,1-6.17-6.76c-.42-2.61-.46-14.75.29-17.39a7.9,7.9,0,0,1,6.76-6,59.85,59.85,0,0,1,7.76-.35c2.89,0,5.81.08,7.57.17A8.52,8.52,0,0,1,31.32,11,8.08,8.08,0,0,1,33.79,16.26Zm-3,15.48A110.67,110.67,0,0,0,31,16.53a5.21,5.21,0,0,0-4.65-4.94,68.61,68.61,0,0,0-7.74-.3c-3.09,0-6.16.09-7.51.23a5.31,5.31,0,0,0-4.95,4.67,106.61,106.61,0,0,0-.11,15.64,5,5,0,0,0,3.83,4.38,47.54,47.54,0,0,0,8.33.46c3.25,0,6.44-.11,7.64-.24a5.29,5.29,0,0,0,5-4.69"/><path class="cls-3" d="M18.55,16a7.87,7.87,0,0,1,7.88,8,8,8,0,0,1-8,7.94A7.87,7.87,0,0,1,10.54,24,8,8,0,0,1,18.55,16Zm-.11,13.08A5.2,5.2,0,0,0,23.62,24a5.08,5.08,0,0,0-5.05-5.19h-.05a5.2,5.2,0,0,0-5.18,5.09,5.11,5.11,0,0,0,5.05,5.19h.05"/></g></g></svg>