<svg id="Capa_1" data-name="Capa 1" xmlns="http://www.w3.org/2000/svg" viewBox="0 0 162 104"><defs><style>.cls-1{fill:#14395f;}.cls-2{fill:#fff;}</style></defs><path class="cls-1" d="M31.57,60.93l-3.14-7.1H17.5l-3.21,7.1H9.58L23,32.23,36.3,60.93ZM19.16,50.09h7.69L24,43.79q-.24-.6-.51-1.38c-.17-.53-.35-1.11-.53-1.75-.15.61-.31,1.17-.48,1.69s-.34,1-.51,1.44Zm36.22,9.73c0,3.5-.69,6-2.09,7.39s-3.75,2.14-7,2.14a10.07,10.07,0,0,1-5.91-1.56,4.94,4.94,0,0,1-2.24-4.14l4.39,0a2.21,2.21,0,0,0,1.08,1.76,5.27,5.27,0,0,0,2.75.6,5.15,5.15,0,0,0,3.77-1.15A5.35,5.35,0,0,0,51.25,61l0-2.37a6.76,6.76,0,0,1-5.9,3.05,7.37,7.37,0,0,1-6-2.59A10.72,10.72,0,0,1,37.24,52a10.29,10.29,0,0,1,2.23-6.91A7.84,7.84,0,0,1,49,43.35,5.37,5.37,0,0,1,51.29,46V43.06h4.09Zm-4-7.88a6.55,6.55,0,0,0-1.29-4.32,4.44,4.44,0,0,0-3.61-1.55,4.52,4.52,0,0,0-3.65,1.6,6.72,6.72,0,0,0-1.33,4.42,6.66,6.66,0,0,0,1.29,4.39A4.83,4.83,0,0,0,50,56.35,6.73,6.73,0,0,0,51.4,51.94Zm13.73-6a5.86,5.86,0,0,1,1.75-2.62,4.26,4.26,0,0,1,2.69-.85,7,7,0,0,1,1.7.21,8,8,0,0,1,1.65.61l-1.47,3.47a3.56,3.56,0,0,0-1.14-.56A4.84,4.84,0,0,0,68.94,46,3.07,3.07,0,0,0,66,47.61a12.3,12.3,0,0,0-.89,5.48v7.84H61V43h4.09Zm42.1-8.76V60.93h-4.49V37.14H95.4V33.33h19.13v3.81Zm10-1.82a2.44,2.44,0,0,1,.76-1.79,2.52,2.52,0,0,1,1.82-.75,2.48,2.48,0,0,1,2.55,2.54,2.51,2.51,0,0,1-.74,1.84,2.43,2.43,0,0,1-1.81.75,2.5,2.5,0,0,1-1.82-.77A2.45,2.45,0,0,1,117.26,35.32Zm.55,25.61V43.06h4.09V60.93ZM141.1,48.15a6.49,6.49,0,0,0-2.2-1.59,6.79,6.79,0,0,0-2.71-.54,5.21,5.21,0,0,0-4,1.62,6,6,0,0,0-1.51,4.3,6,6,0,0,0,1.52,4.38,5.49,5.49,0,0,0,4.19,1.6,6.11,6.11,0,0,0,2.66-.56,5.68,5.68,0,0,0,2.06-1.69v4.72a9.47,9.47,0,0,1-2.43,1,11.5,11.5,0,0,1-2.74.32A9.23,9.23,0,0,1,129.07,59a9.46,9.46,0,0,1-2.64-6.94,9.25,9.25,0,0,1,2.74-7,9.92,9.92,0,0,1,7.17-2.65,11.37,11.37,0,0,1,2.57.28,8.28,8.28,0,0,1,2.19.84Z"/><path class="cls-2" d="M106.09,72.93a68.9,68.9,0,0,1,3.75-9q1.71-3.34,4.58-8.41A36.18,36.18,0,0,1,117.21,51a1.94,1.94,0,0,1,1.38-.73c.41,0,.62.18.62.54a1.63,1.63,0,0,1-.27.75q-.25.43-1.59,2.58A103.59,103.59,0,0,0,110.89,66q-1.83,4.16-3.16,8.14a6.6,6.6,0,0,1-1,2.12,2.31,2.31,0,0,1-1.7,1c-.53,0-.86-.38-1-1.13a11.21,11.21,0,0,1-.09-1.77,64.31,64.31,0,0,1,.9-10.16,76.21,76.21,0,0,1,1.62-7.88,55.91,55.91,0,0,0-5.49,8.51,52.93,52.93,0,0,0-4.33,9.57,14.38,14.38,0,0,1-.86,2.28,1.47,1.47,0,0,1-1.28.84.77.77,0,0,1-.75-.72A16.16,16.16,0,0,1,94.94,73a79.11,79.11,0,0,1,5.35-10.38q2.22-3.78,5.28-8A16.69,16.69,0,0,1,107.73,52a2,2,0,0,1,1.23-.54.7.7,0,0,1,.44.16.63.63,0,0,1,.27.51,2.32,2.32,0,0,1-.19.87,48.63,48.63,0,0,0-1.9,6.53A52.44,52.44,0,0,0,106,70.94C106,71.37,106.05,72,106.09,72.93Z"/><path class="cls-2" d="M119,72.6a14.57,14.57,0,0,1-1.25,1.88A3.24,3.24,0,0,1,115.34,76a1.78,1.78,0,0,1-1.61-1,3,3,0,0,1-.37-1.5,10.23,10.23,0,0,1,1.35-4.69,12.26,12.26,0,0,1,3.6-4.38,4.51,4.51,0,0,1,2.66-1,1.92,1.92,0,0,1,1.34.5,1.38,1.38,0,0,1,.46,1,3.09,3.09,0,0,1-.33,1.16,1.32,1.32,0,0,1,.29.71,3.17,3.17,0,0,1-.54,1.32,15.09,15.09,0,0,0-1.11,2.49,8.44,8.44,0,0,0-.59,2.65,1.88,1.88,0,0,0,.48,1.32,3.91,3.91,0,0,0,.78.44.81.81,0,0,1,.48.8.77.77,0,0,1-.27.6,1,1,0,0,1-.67.24,2.23,2.23,0,0,1-1.78-.91,2.87,2.87,0,0,1-.61-1.88C118.9,73.61,118.92,73.19,119,72.6Zm2.39-6.3a1.91,1.91,0,0,0-.5-.62,1,1,0,0,0-.57-.2c-1,0-2,.85-3.16,2.55a9.15,9.15,0,0,0-1.88,4.77,1.19,1.19,0,0,0,.18.72.63.63,0,0,0,.55.25c.61,0,1.33-.65,2.14-2a33.63,33.63,0,0,0,1.71-3.16,15.85,15.85,0,0,1,1-1.8A3.22,3.22,0,0,1,121.37,66.3Z"/><path class="cls-2" d="M127,69.46a37.16,37.16,0,0,1,4.33-3.92,17.61,17.61,0,0,1,1.87-1.28,1.87,1.87,0,0,1,.64-.29q.28,0,.57.42a.67.67,0,0,1,.17.42c0,.23-.24.54-.72.94-1.31,1-2,1.81-2,2.34,0,.29.17.44.5.44a6.62,6.62,0,0,0,2.83-1.36,1.08,1.08,0,0,1,.58-.23.47.47,0,0,1,.31.15.53.53,0,0,1,.17.36c0,.39-.54,1-1.61,1.77a5.42,5.42,0,0,1-3.2,1.26,2.07,2.07,0,0,1-1.13-.33,1,1,0,0,1-.44-1,2.06,2.06,0,0,1,.4-1.1,19.39,19.39,0,0,0-3.56,3.68,25.54,25.54,0,0,0-2.35,4c-.3.58-.66.88-1.1.88s-.7-.23-.7-.67a15.07,15.07,0,0,1,1.11-3.49,26.35,26.35,0,0,1,3.44-6.53q1.11-1.44,1.86-1.44a.78.78,0,0,1,.46.16.57.57,0,0,1,.25.48,1.58,1.58,0,0,1-.38.8l-1,1.28A10.56,10.56,0,0,0,127,69.46Z"/><path class="cls-2" d="M140.5,64.29a.69.69,0,0,1,.54.25.72.72,0,0,1,.15.42,2.58,2.58,0,0,1-.56,1.15,36,36,0,0,0-2.83,5.08,42.42,42.42,0,0,0-1.59,4.21q-.3,1-1,1a.71.71,0,0,1-.61-.31.79.79,0,0,1-.21-.53,20.26,20.26,0,0,1,1.22-3.83A26.52,26.52,0,0,1,138.76,66a10.48,10.48,0,0,1,1-1.36A1,1,0,0,1,140.5,64.29Z"/><path class="cls-2" d="M144.2,69.2l.47-.46q4-3.92,5.37-3.91c.49,0,.74.27.74.82a2.23,2.23,0,0,1-.67,1.36c-2.44,2.85-3.65,5.36-3.65,7.53a3.88,3.88,0,0,0,.57,2,1.45,1.45,0,0,1,.27.69.62.62,0,0,1-.23.44.8.8,0,0,1-.6.27,1.55,1.55,0,0,1-1.32-1,4.69,4.69,0,0,1-.51-2.28,11.07,11.07,0,0,1,2-5.72,15.26,15.26,0,0,0-4.85,5.9c-.38.67-.79,1-1.22,1a.71.71,0,0,1-.54-.23.93.93,0,0,1-.27-.69c0-.69.79-2.49,2.36-5.42.84-1.58,1.51-2.73,2-3.45s.9-1,1.25-1a.72.72,0,0,1,.48.23.87.87,0,0,1,.26.61,2.42,2.42,0,0,1-.55,1.21A19.45,19.45,0,0,0,144.2,69.2Zm1.45-11.78a27.37,27.37,0,0,1,4.23.57,5,5,0,0,0,1.08.1,9.82,9.82,0,0,0,2.81-.44,1.9,1.9,0,0,1,.5-.1.63.63,0,0,1,.55.33.75.75,0,0,1,.12.4,1.26,1.26,0,0,1-.88,1.13,6,6,0,0,1-2.59.58,27.27,27.27,0,0,1-4.17-.5,8.07,8.07,0,0,0-1.27-.08l-.57,0-1.11.15a.81.81,0,0,1-.58-.27.92.92,0,0,1-.26-.67C143.51,57.83,144.22,57.42,145.65,57.42Z"/><path class="cls-2" d="M158.14,63.41c1,0,1.57.64,1.57,1.92q0,2.55-2.36,6.45-2.57,4.23-5,4.23a1.71,1.71,0,0,1-1.63-1,2.81,2.81,0,0,1-.26-1.25,10.69,10.69,0,0,1,1.68-5.32,13,13,0,0,1,3.7-4.14A4.11,4.11,0,0,1,158.14,63.41Zm-2,7.24c-.32-.25-.48-.45-.48-.59a2.47,2.47,0,0,1,.61-.84c1.15-1.29,1.72-2.33,1.72-3.13a.58.58,0,0,0-.09-.3.53.53,0,0,0-.48-.29c-.41,0-1,.4-1.8,1.19a12.12,12.12,0,0,0-2.34,3.16,7.3,7.3,0,0,0-.94,3.08.92.92,0,0,0,.18.57.74.74,0,0,0,.63.35c.61,0,1.27-.46,2-1.38a5.63,5.63,0,0,0,.75-1.19A4.55,4.55,0,0,0,156.15,70.65Z"/><path class="cls-2" d="M85.43,52.76h0A1.76,1.76,0,0,1,83.67,51l0-15.65a1.78,1.78,0,0,1,1.77-1.76h0a1.75,1.75,0,0,1,1.76,1.77L87.2,51A1.78,1.78,0,0,1,85.43,52.76Z"/><path class="cls-2" d="M85.42,62.29a10.84,10.84,0,0,1-7.25-19.06,1.77,1.77,0,1,1,2.34,2.65,7.43,7.43,0,1,0,9.78-.13,1.77,1.77,0,0,1,2.36-2.63A10.89,10.89,0,0,1,85.8,62.28Z"/><path class="cls-2" d="M90.56,21.46a18.53,18.53,0,0,1-2.5-.17,1.17,1.17,0,0,1,.3-2.33c3.36.43,5.8-.06,7.24-1.46,1.07-1,1.29-2.31,1.57-3.93a15.28,15.28,0,0,1,1.22-4.3c1.36-2.83,4-5.09,7.81-6.75a24.51,24.51,0,0,0-3.09-.17c-2.53,0-7.81.09-12.47,3.85a17.54,17.54,0,0,0-5.51,8,1.18,1.18,0,0,1-2.23-.76,20,20,0,0,1,6.26-9.1C94.46.09,100.5,0,103.08,0a26.52,26.52,0,0,1,7.85,1.12,1.19,1.19,0,0,1,.84,1.14,1.18,1.18,0,0,1-.87,1.12c-5.4,1.49-8.9,3.81-10.39,6.91a13.28,13.28,0,0,0-1,3.69c-.31,1.78-.63,3.63-2.25,5.21A9.24,9.24,0,0,1,90.56,21.46Z"/><path class="cls-2" d="M79.41,32h-.12c-4.88-.51-8.61-2.21-11.11-5-2.19-2.48-2.75-5.09-3.28-7.61a17.3,17.3,0,0,0-2.35-6.43C60.34,9.52,56.44,7.11,50.94,5.7a1.18,1.18,0,0,1,.15-2.31,42.32,42.32,0,0,1,11.7.49C70.6,5.32,76.91,9,81.06,14.37a27.26,27.26,0,0,1,5.22,12.48,1.17,1.17,0,1,1-2.32.37A25,25,0,0,0,79.19,15.8C73.22,8,63.77,6,57.56,5.63a17.6,17.6,0,0,1,7,6,19.82,19.82,0,0,1,2.68,7.24c.51,2.43,1,4.52,2.75,6.54,2.09,2.37,5.32,3.8,9.58,4.25A1.18,1.18,0,0,1,79.41,32Z"/><path class="cls-2" d="M78.39,26a1.19,1.19,0,0,1-1.14-.86,13.32,13.32,0,0,0-5.9-7.87,1.18,1.18,0,0,1,1.24-2,15.86,15.86,0,0,1,4.81,4.63,15.64,15.64,0,0,1,2.12,4.62,1.17,1.17,0,0,1-.82,1.45A1.1,1.1,0,0,1,78.39,26Z"/><path class="cls-2" d="M88.87,17.44a.93.93,0,0,1-.9-1.21A15.46,15.46,0,0,1,95,7.29a.94.94,0,1,1,1,1.63,13.75,13.75,0,0,0-3.41,2.8,13.55,13.55,0,0,0-2.8,5A1,1,0,0,1,88.87,17.44Z"/><path class="cls-2" d="M160.56,83.86a723.91,723.91,0,0,0-79.91,3.45q-9.47.94-18.9,2.13h0c-29,3-50.21,5.41-55.08,6a9.88,9.88,0,0,0-5.21,2h0A3.29,3.29,0,0,0,0,100.05a2.64,2.64,0,0,0,0,.28v.07a.36.36,0,0,1,0,.1,1.31,1.31,0,0,0,.06.27l0,.1a.74.74,0,0,1,0,.14l0,0c.6,1.58,2.6,2.73,5,2.73a7.35,7.35,0,0,0,1.06-.07h0a4.37,4.37,0,0,0,.79-.18,5,5,0,0,0,2.7-1.71c2-1.53,5-2.28,10.84-3.75,19.9-3.74,40.18-6.65,60.49-8.66A718.22,718.22,0,0,1,160.51,86h0c.8,0,1.46-.47,1.47-1S161.37,83.87,160.56,83.86Z"/></svg>