<svg id="Capa_1" data-name="Capa 1" xmlns="http://www.w3.org/2000/svg" viewBox="0 0 743 1341"><defs><style>.cls-1{fill:#8cae31;}.cls-2{fill:none;stroke:#bbd859;stroke-miterlimit:10;stroke-width:2px;}</style></defs><path class="cls-1" d="M0,1341c19.37-51.55,55.46-123.21,126-176,131.21-98.18,262-41.56,330-139,44.73-64.11,2.77-109.64,64-210,30.91-50.67,52-56.09,102-116,69.08-82.76,104.6-128.08,117-194,2.24-11.89,20.32-116.76-44-205C615.63,192.12,468.26,187.39,425,186c-127-4.08-144.41,51.63-227,23C88.11,170.91,17.74,37.24,13,28,7.14,16.56,2.83,6.78,0,0Z"/><path class="cls-2" d="M341.76,810.42h0a16.3,16.3,0,0,1-16.26-16.34l.35-144.52a16.29,16.29,0,0,1,16.3-16.26h0a16.3,16.3,0,0,1,16.26,16.34l-.35,144.52A16.29,16.29,0,0,1,341.76,810.42Z"/><path class="cls-2" d="M341.7,898.46c-42.86,0-82.05-26.88-96.08-66.35-13.57-38.2-1.87-82.27,29.12-109.66a16.3,16.3,0,1,1,21.59,24.43c-21.11,18.67-29.15,48.53-20,74.31,9.71,27.29,37.58,45.67,67.72,44.63,27-.92,51.11-17.07,61.33-41.15,11.43-26.94,3.91-58.67-18.71-79a16.3,16.3,0,1,1,21.77-24.27c33,29.6,43.82,76.21,27,116-15.16,35.71-50.58,59.65-90.25,61C344,898.44,342.85,898.46,341.7,898.46Z"/><path class="cls-2" d="M389.15,521.41a180.47,180.47,0,0,1-23.08-1.57,10.87,10.87,0,1,1,2.79-21.56c31,4,53.48-.53,66.81-13.49,9.9-9.62,11.93-21.38,14.5-36.26,2.06-11.9,4.39-25.4,11.28-39.73,12.57-26.15,36.77-47,72.15-62.32a216.23,216.23,0,0,0-28.54-1.57c-23.41.25-72.11.78-115.21,35.48-29.09,23.42-43.74,53.25-50.9,74.14a10.87,10.87,0,0,1-20.56-7c8.09-23.61,24.7-57.34,57.82-84,49-39.43,104.78-40,128.6-40.29a242.65,242.65,0,0,1,72.46,10.35A10.86,10.86,0,0,1,577,354.4c-49.91,13.7-82.2,35.17-96,63.82-5.57,11.6-7.54,23-9.45,34-2.85,16.51-5.81,33.59-20.77,48.14C436.43,514.37,415.74,521.41,389.15,521.41Z"/><path class="cls-2" d="M286.17,618.33a11.07,11.07,0,0,1-1.15-.06c-45-4.77-79.51-20.39-102.55-46.45-20.3-23-25.42-47-30.37-70.31-4.29-20.18-8.35-39.24-21.64-59.4-20.41-31-56.51-53.29-107.29-66.29a10.87,10.87,0,0,1,1.39-21.32c5.14-.63,51.88-5.82,108.06,4.53,72.12,13.29,130.48,46.78,168.76,96.85,25.1,32.83,41.32,71.61,48.23,115.28a10.87,10.87,0,1,1-21.47,3.4c-6.34-40.07-21.15-75.55-44-105.47C229,397,141.69,378.76,84.36,375.19c27.94,14.12,49.46,32.5,64.25,55,15.55,23.58,20.44,46.56,24.75,66.84,4.77,22.41,8.88,41.77,25.39,60.43,19.33,21.86,49.12,35.06,88.55,39.23a10.87,10.87,0,0,1-1.13,21.68Z"/><path class="cls-2" d="M276.71,563a10.88,10.88,0,0,1-10.47-8,123.75,123.75,0,0,0-54.55-72.72,10.87,10.87,0,1,1,11.44-18.48,145.5,145.5,0,0,1,64.07,85.43,10.88,10.88,0,0,1-7.6,13.37A11,11,0,0,1,276.71,563Z"/><path class="cls-2" d="M373.51,484.25a9,9,0,0,1-2.54-.38A8.7,8.7,0,0,1,365.19,473a143.29,143.29,0,0,1,65.24-82.53,8.7,8.7,0,0,1,8.75,15,125.84,125.84,0,0,0-57.36,72.56A8.7,8.7,0,0,1,373.51,484.25Z"/></svg>