<svg xmlns="http://www.w3.org/2000/svg" xmlns:xlink="http://www.w3.org/1999/xlink" viewBox="0 0 218 359"><defs><style>.cls-1{fill:none;}.cls-2{isolation:isolate;}.cls-3{clip-path:url(#clip-path);}.cls-4{fill:url(#linear-gradient);}.cls-5{fill:#ffff96;mix-blend-mode:screen;}.cls-11,.cls-19,.cls-5{opacity:0.3;}.cls-10,.cls-14,.cls-15,.cls-16,.cls-17,.cls-18,.cls-22,.cls-6,.cls-7,.cls-8,.cls-9{mix-blend-mode:overlay;}.cls-10,.cls-14,.cls-15,.cls-16,.cls-17,.cls-18,.cls-6,.cls-7,.cls-8,.cls-9{opacity:0.2;}.cls-6{fill:url(#linear-gradient-2);}.cls-7{fill:url(#linear-gradient-3);}.cls-8{fill:url(#linear-gradient-4);}.cls-9{fill:url(#linear-gradient-5);}.cls-10{fill:url(#linear-gradient-6);}.cls-11,.cls-12,.cls-19,.cls-20,.cls-23{mix-blend-mode:multiply;}.cls-11{fill:url(#linear-gradient-7);}.cls-12,.cls-20,.cls-23{opacity:0.4;}.cls-12{fill:url(#linear-gradient-8);}.cls-13{fill:url(#linear-gradient-9);}.cls-14{fill:url(#linear-gradient-10);}.cls-15{fill:url(#linear-gradient-11);}.cls-16{fill:url(#linear-gradient-12);}.cls-17{fill:url(#linear-gradient-13);}.cls-18{fill:url(#linear-gradient-14);}.cls-19{fill:url(#linear-gradient-15);}.cls-20{fill:url(#linear-gradient-16);}.cls-21{fill:url(#linear-gradient-17);}.cls-22{opacity:0.5;fill:url(#linear-gradient-18);}.cls-23{fill:url(#linear-gradient-19);}</style><clipPath id="clip-path"><rect class="cls-1" width="218" height="359"/></clipPath><linearGradient id="linear-gradient" x1="-2842.38" y1="334.61" x2="-2786.74" y2="168.65" gradientTransform="matrix(-1, 0, 0, 1, -2735.83, -1.22)" gradientUnits="userSpaceOnUse"><stop offset="0" stop-color="#91b848"/><stop offset="0.37" stop-color="#a0ca57"/><stop offset="0.44" stop-color="#95c44e"/><stop offset="0.82" stop-color="#60a723"/><stop offset="1" stop-color="#4b9c12"/></linearGradient><linearGradient id="linear-gradient-2" x1="-2822.97" y1="267.68" x2="-2793.95" y2="181.12" xlink:href="#linear-gradient"/><linearGradient id="linear-gradient-3" x1="-2824.84" y1="271.62" x2="-2795.82" y2="185.07" xlink:href="#linear-gradient"/><linearGradient id="linear-gradient-4" x1="-2822.93" y1="264.95" x2="-2793.92" y2="178.4" xlink:href="#linear-gradient"/><linearGradient id="linear-gradient-5" x1="-2818.14" y1="261.22" x2="-2789.13" y2="174.66" xlink:href="#linear-gradient"/><linearGradient id="linear-gradient-6" x1="-2831.76" y1="287.7" x2="-2802.74" y2="201.14" xlink:href="#linear-gradient"/><linearGradient id="linear-gradient-7" x1="-2842.38" y1="334.61" x2="-2786.74" y2="168.65" xlink:href="#linear-gradient"/><linearGradient id="linear-gradient-8" x1="-2840.5" y1="335.24" x2="-2784.86" y2="169.28" xlink:href="#linear-gradient"/><linearGradient id="linear-gradient-9" x1="36.7" y1="280.78" x2="102.69" y2="83.96" gradientTransform="translate(81.01 49.76) rotate(2.01)" xlink:href="#linear-gradient"/><linearGradient id="linear-gradient-10" x1="61.68" y1="200.15" x2="95.79" y2="98.41" gradientTransform="translate(81.01 49.76) rotate(2.01)" xlink:href="#linear-gradient"/><linearGradient id="linear-gradient-11" x1="60.02" y1="205.02" x2="94.13" y2="103.29" gradientTransform="translate(81.01 49.76) rotate(2.01)" xlink:href="#linear-gradient"/><linearGradient id="linear-gradient-12" x1="61.68" y1="196.77" x2="95.79" y2="95.03" gradientTransform="translate(81.01 49.76) rotate(2.01)" xlink:href="#linear-gradient"/><linearGradient id="linear-gradient-13" x1="65.98" y1="192.17" x2="100.09" y2="90.44" gradientTransform="translate(81.01 49.76) rotate(2.01)" xlink:href="#linear-gradient"/><linearGradient id="linear-gradient-14" x1="53.93" y1="224.91" x2="88.04" y2="123.18" gradientTransform="translate(81.01 49.76) rotate(2.01)" xlink:href="#linear-gradient"/><linearGradient id="linear-gradient-15" x1="36.7" y1="280.78" x2="102.69" y2="83.96" gradientTransform="translate(81.01 49.76) rotate(2.01)" xlink:href="#linear-gradient"/><linearGradient id="linear-gradient-16" x1="40.25" y1="281.97" x2="106.24" y2="85.16" gradientTransform="translate(81.01 49.76) rotate(2.01)" xlink:href="#linear-gradient"/><linearGradient id="linear-gradient-17" x1="-48.88" y1="182.21" x2="-144.07" y2="-39.02" gradientTransform="matrix(1, 0.08, -0.08, 1, 185.95, 120.16)" xlink:href="#linear-gradient"/><linearGradient id="linear-gradient-18" x1="-68.48" y1="102.68" x2="-127.13" y2="-33.63" gradientTransform="matrix(1, 0.08, -0.08, 1, 185.95, 120.16)" xlink:href="#linear-gradient"/><linearGradient id="linear-gradient-19" x1="-53.56" y1="183.76" x2="-148.59" y2="-37.13" gradientTransform="matrix(1, 0.08, -0.08, 1, 185.95, 120.16)" xlink:href="#linear-gradient"/></defs><g class="cls-2"><g id="Imagenes"><g class="cls-3"><path class="cls-4" d="M31,168s23.18,7.85,39.61,33.19,34.69,72.17,39,86.54,7.65,31,7.41,37.95-3.67,10.35-4.34,7.11,2-21-6.16-39.32-39.67-65.3-51.28-84.35S31,168,31,168Z"/><path class="cls-5" d="M57.56,200.17A97.53,97.53,0,0,0,37.3,178.88L38,180a97.41,97.41,0,0,1,19.42,20.63c12.75,18.3,26.65,47.27,35.78,68.65l1.29,2.15C85.37,249.86,70.84,219.23,57.56,200.17ZM31.08,168.09l.47.83a98.07,98.07,0,0,1,33.32,29.86c18.67,26.78,39.79,76.43,44.81,91.67,1.78,5.38,3.42,11.07,4.81,16.51-.49-2.35-1-4.78-1.65-7.25-.93-3.27-1.93-6.56-3-9.73-5-15.24-26.14-64.89-44.81-91.67A98.07,98.07,0,0,0,31.08,168.09Zm81.51,157.62a45.09,45.09,0,0,1,.59,6.92c0,.4,0,.77-.06,1.14a.57.57,0,0,0,.14.13c.06-.55.1-1.13.11-1.74a51.14,51.14,0,0,0-.79-8.16C112.59,324.59,112.59,325.16,112.59,325.71ZM34.67,174.33c.17.31.36.62.55.95a97.88,97.88,0,0,1,26,25.39c18.61,26.71,39.66,76.14,44.76,91.53.2.44.41.87.59,1.28s.43,1,.64,1.51c-.33-1.05-.66-2.09-1-3.12-5-15.23-26.14-64.88-44.81-91.66A97.89,97.89,0,0,0,34.67,174.33Zm76.77,135.91c.17,1,.32,2.06.44,3.06,1.92,8.15,3.11,15.31,3,19.35,0,.19,0,.37,0,.55a1.93,1.93,0,0,0,.17-.21c0-.27,0-.52,0-.81C115.18,327.71,113.72,319.45,111.44,310.24ZM33.07,171.56l.5.87A98,98,0,0,1,64.1,200.7c18.67,26.79,39.79,76.44,44.81,91.67A228,228,0,0,1,117,324.21c0-.73-.07-1.54-.15-2.39a235.26,235.26,0,0,0-7.77-29.92c-5-15.23-26.15-64.88-44.81-91.67A98.2,98.2,0,0,0,33.07,171.56Zm26.54,28.63a97.41,97.41,0,0,0-23.84-23.94l.6,1a97.8,97.8,0,0,1,23.06,23.39C74.72,222.6,91.66,259.87,100,281c.42.73.83,1.46,1.22,2.16C93.3,262.65,75.57,223.08,59.61,200.19Z"/><path class="cls-6" d="M97.89,265.37c-12.69-21-29.75-46.75-37.63-59.68-4.93-8.1-10-16.72-14.28-24a89.27,89.27,0,0,1,22.7,23.86C79,221.48,90,245.87,97.89,265.37Z"/><path class="cls-7" d="M99.76,269.32c-12.69-21-29.75-46.76-37.63-59.69-4.93-8.09-10-16.71-14.28-24a89.05,89.05,0,0,1,22.7,23.85C80.87,225.43,91.91,249.82,99.76,269.32Z"/><path class="cls-8" d="M97.86,262.65c-12.7-21-29.76-46.75-37.64-59.68-4.93-8.1-10-16.72-14.27-24a89.11,89.11,0,0,1,22.7,23.86C79,218.76,90,243.15,97.86,262.65Z"/><path class="cls-9" d="M93.07,258.91c-12.69-21-29.75-46.75-37.63-59.69-4.93-8.09-10-16.71-14.28-24a89.21,89.21,0,0,1,22.7,23.85C74.18,215,85.22,239.41,93.07,258.91Z"/><path class="cls-10" d="M106.66,285.4C94,264.43,76.91,238.65,69,225.71c-4.93-8.09-10-16.71-14.27-24a89.36,89.36,0,0,1,22.7,23.85C87.78,241.51,98.82,265.9,106.66,285.4Z"/><path class="cls-11" d="M115,325.67c.24-6.93-3.12-23.59-7.4-37.95s-22.55-61.2-39-86.54a87.35,87.35,0,0,0-37-32.15L31,168s23.18,7.85,39.61,33.19,34.69,72.17,39,86.54,7.65,31,7.41,37.95c-.22,6.55-3.3,10-4.2,7.57C113.86,332,114.89,329.36,115,325.67Z"/><path class="cls-12" d="M112.56,329.93a16.27,16.27,0,0,0,.12,2.87c.67,3.24,4.11-.19,4.34-7.11,0-.57,0-1.22,0-1.92v.07c-.23,6.93-3.67,10.36-4.34,7.12A6.39,6.39,0,0,1,112.56,329.93ZM31,168s12.6,22.06,24.21,41.12,43.16,66,51.28,84.35c5,11.16,5.9,22.11,6,29.7,0-7.59-.71-19.44-6.07-31.55C98.37,273.3,70,225.44,58.37,206.39c-9.34-15.33-22.46-31.7-26-37.87C31.51,168.17,31,168,31,168Z"/><path class="cls-13" d="M194.45,132.82s-21.26,8.73-37,39.48-33.8,88.1-38.15,105.75-7.94,38.19-7.95,46.8,3,13,3.7,9-1.09-26.16,6.87-48.57S160,206,171.17,182.82,194.45,132.82,194.45,132.82Z"/><path class="cls-5" d="M133.6,258.48l1.24-2.62c9-26.14,22.51-61.51,34.67-83.68a110.53,110.53,0,0,1,18.27-24.76l.64-1.37a109.66,109.66,0,0,0-19.06,25.54C156.7,194.68,142.53,232.08,133.6,258.48Zm29-89.53c-17.8,32.45-38.56,93.17-43.61,111.87-1,3.9-2.06,7.93-3,12-.63,3-1.21,6-1.74,8.93,1.44-6.69,3.12-13.69,4.9-20.3,5-18.7,25.81-79.42,43.61-111.87,10.35-18.87,22.67-29.78,31.17-35.61.23-.5.38-.85.45-1C185.89,138.65,173.22,149.63,162.63,169ZM115.45,323a86,86,0,0,0-1,10.1c0,.76,0,1.47,0,2.17a.7.7,0,0,0,.13-.16c0-.46,0-.92,0-1.42a77.08,77.08,0,0,1,.77-8.57C115.4,324.39,115.43,323.68,115.45,323Zm50.47-151.48c-17.79,32.45-38.56,93.17-43.6,111.87-.34,1.26-.68,2.54-1,3.82.2-.61.41-1.23.63-1.85l.57-1.56c5.13-18.89,25.82-79.34,43.56-111.69a106.61,106.61,0,0,1,24.35-30.39l.53-1.16A106.06,106.06,0,0,0,165.92,171.47ZM112.9,333c0,.35,0,.67,0,1,0,.1.1.18.15.27,0-.23,0-.45,0-.69.07-5,1.38-13.86,3.38-23.9.15-1.23.31-2.49.5-3.77C114.57,317.25,113,327.45,112.9,333Zm50.36-161.62c-17.79,32.44-38.56,93.16-43.6,111.86-3.36,12.45-6.36,26.26-8,36.81-.09,1.06-.17,2.06-.21,3a366,366,0,0,1,8.39-39.17c5-18.71,25.81-79.43,43.6-111.87,9.35-17.05,20.3-27.59,28.6-33.77l.48-1C184.12,143.25,172.85,153.9,163.26,171.38ZM127,272.76l1.18-2.64c8.29-25.88,24.85-71.42,39.43-98a108.16,108.16,0,0,1,21.66-28l.57-1.24a107.8,107.8,0,0,0-22.38,28.68C152.29,199.25,134.93,247.61,127,272.76Z"/><path class="cls-14" d="M130.68,250.79c12.19-25.48,28.49-56.75,36.06-72.46,4.73-9.83,9.63-20.32,13.72-29.14a100.18,100.18,0,0,0-21.36,28.62C149.23,197.12,138.43,226.92,130.68,250.79Z"/><path class="cls-15" d="M128.86,255.61c12.18-25.48,28.49-56.75,36-72.47,4.73-9.83,9.64-20.31,13.72-29.14a100.06,100.06,0,0,0-21.35,28.63C147.41,201.93,136.6,231.74,128.86,255.61Z"/><path class="cls-16" d="M130.8,247.41c12.19-25.48,28.49-56.75,36-72.46,4.74-9.83,9.64-20.32,13.73-29.14a100.18,100.18,0,0,0-21.36,28.62C149.35,193.74,138.55,223.54,130.8,247.41Z"/><path class="cls-17" d="M135.26,243c12.19-25.48,28.49-56.75,36.06-72.47,4.73-9.83,9.63-20.31,13.72-29.14A100.33,100.33,0,0,0,163.68,170C153.81,189.3,143,219.1,135.26,243Z"/><path class="cls-18" d="M122.07,275.27c12.19-25.48,28.49-56.75,36.06-72.46,4.73-9.83,9.64-20.32,13.72-29.14a100.33,100.33,0,0,0-21.36,28.62C140.62,221.6,129.82,251.4,122.07,275.27Z"/><path class="cls-19" d="M113.19,324.91c0-8.61,3.6-29.15,8-46.8s22.44-75,38.15-105.75c12.55-24.54,28.62-35.05,34.6-38.29l.56-1.25s-21.26,8.73-37,39.48-33.8,88.1-38.15,105.75-7.94,38.19-7.95,46.8c0,8.14,2.67,12.52,3.57,9.6C114,332.88,113.18,329.5,113.19,324.91Z"/><path class="cls-20" d="M115.15,331.59c-.71,4-3.71-.42-3.7-9v-.09c0,.86-.08,1.67-.08,2.38,0,8.61,3,13,3.7,9a27.75,27.75,0,0,0,.21-3.57A10.66,10.66,0,0,1,115.15,331.59ZM193.23,133.4c-3.41,7.51-15.84,27.26-24.81,45.88C157.28,202.43,130,260.62,122,283c-5.26,14.8-6.25,29.49-6.53,38.91.38-9.42,1.6-23,6.45-36.62,8-22.4,38.09-79.33,49.23-102.49s23.28-50,23.28-50S194,133,193.23,133.4Z"/><path class="cls-21" d="M44.71,33s33,51.67,48.89,111.9S116,252,116.15,285.64s2.62,53.24-2,51.61-5.89-12.84-4.24-29.16,2.37-44.58-3.06-66.83-35.51-102-43.33-129.81S44.71,33,44.71,33Z"/><path class="cls-5" d="M60,81.47c-2.81-6.73-5.86-13.63-9-20.27.11.49.23,1,.34,1.48,2.78,6.05,5.52,12.28,8,18.35C68.89,103.7,96,181.29,104.91,228.85c.78,4.14,1.38,8.14,1.85,12,0,.13.08.28.11.4.31,1.29.6,2.61.88,3.94-.51-5.06-1.24-10.36-2.29-15.92C96.51,181.73,69.44,104.14,60,81.47Zm47.75,149.58c-9-47.55-36-125.15-45.47-147.81-2-4.73-4.07-9.55-6.21-14.31C54.38,65.43,52.68,62,51,58.72c3.68,7.78,7.39,16.06,10.73,24.08,9.44,22.67,36.51,100.26,45.47,147.82a178.5,178.5,0,0,1,3.15,33.16q.27,3.21.43,6.41A175.61,175.61,0,0,0,107.75,231.05Zm-52-151.86c.28.78.56,1.56.82,2.36.22.64.44,1.33.67,2,8.77,21.11,32.3,88.33,42.94,135.87.48,1.43.93,2.83,1.37,4.18C91.37,175.81,66.68,105.24,57.74,83.8Q56.78,81.51,55.79,79.19Zm11.63,42.57c5,14.43,10.59,31.31,15.79,48.44,1,2.75,1.93,5.5,2.89,8.24C79.77,157,72.66,135.5,66.54,118.1ZM62.5,101.94c9.14,24.8,22.61,65,31.76,99.93L96,207c-9.64-38-25-83.37-34.49-108.7C61.86,99.5,62.18,100.71,62.5,101.94Z"/><path class="cls-22" d="M54.15,56.24c3.68,15.92,8.26,34.95,12.08,48.54,7.83,27.81,37.9,107.56,43.33,129.81.38,1.54.72,3.12,1,4.71C107.08,213.55,101.06,183.47,92,149,82,111.1,65.21,76.63,54.15,56.24Z"/><path class="cls-23" d="M113.34,313.08c1.65-16.32,1.87-54.3-3.56-76.56S72.49,135.84,64.67,108C57.48,82.49,49.89,46.08,48.34,39c-2.27-3.85-3.63-6-3.63-6s11,50.64,18.83,78.45S101.43,219,106.87,241.26s4.71,50.51,3.06,66.83c-1.62,16.05-.39,27.13,4,29.05C112.45,332.07,112.27,323.66,113.34,313.08Z"/></g></g></g></svg>