<svg xmlns="http://www.w3.org/2000/svg" viewBox="0 0 43 54"><defs><style>.cls-1{isolation:isolate;}.cls-2{fill:#cbcbcb;mix-blend-mode:multiply;}.cls-3{fill:#fff;}</style></defs><g class="cls-1"><g id="Capa_1" data-name="Capa 1"><polygon class="cls-2" points="21.07 32.18 15.04 26.14 9.68 26.14 15.71 32.18 21.07 32.18"/><path class="cls-2" d="M21.6,26.16,21.48,42H14.92L21,48h6.56l.12-15.81H33c.31-2.09.58-4.17.89-6.33l-5.8-5.82c0-.06.07-.13.11-.18a.56.56,0,0,1,.05-.08,1.14,1.14,0,0,1,.11-.11,1.57,1.57,0,0,1,.27-.25l.16-.1a2.1,2.1,0,0,1,.3-.15l.19-.07a3.29,3.29,0,0,1,.37-.1l.17,0a5.54,5.54,0,0,1,.6-.06l1.39,0h2.3l0-5.64-6-6,0,5.63H25.74l-1.39,0a3.7,3.7,0,0,0-.59,0l-.18,0a2.22,2.22,0,0,0-.37.09l-.18.07a1.77,1.77,0,0,0-.31.15l-.15.1a1.6,1.6,0,0,0-.27.25l-.09.08,0,0-.06.08c0,.05-.08.11-.11.17s0,.09-.07.14l0,.09,0,.07a3.25,3.25,0,0,0-.11.37v0l0,.16c0,.11,0,.22,0,.34a.86.86,0,0,1,0,.16c0,1.34-.08,4.31-.08,4.47l5.46,5.48-.12.85Z"/><path class="cls-3" d="M23.49,7c.94,0,1.88,0,2.81.09.61,0,1.22.11,1.79.18l0,5.63H25.74l-1.39,0c-1.49,0-2.59.6-2.67,2.47,0,1.34-.08,4.31-.08,4.47h6.22c-.3,2.16-.58,4.24-.88,6.33H21.6L21.48,42H14.92L15,26.14H9.68l.05-6.3h5.39v-.47c0-1.27,0-2.54,0-3.81a15,15,0,0,1,.21-2.41,7.18,7.18,0,0,1,2.87-4.71A8.24,8.24,0,0,1,23,7Z"/></g></g></svg>