<svg id="Capa_1" data-name="Capa 1" xmlns="http://www.w3.org/2000/svg" viewBox="0 0 687 43"><defs><style>.cls-1{fill:#efefef;}.cls-2{fill:#053962;}</style></defs><rect class="cls-1" width="687" height="43" rx="4.83"/><path class="cls-2" d="M682.17,1A3.84,3.84,0,0,1,686,4.83V38.17A3.84,3.84,0,0,1,682.17,42H4.83A3.84,3.84,0,0,1,1,38.17V4.83A3.84,3.84,0,0,1,4.83,1H682.17m0-1H4.83A4.83,4.83,0,0,0,0,4.83V38.17A4.83,4.83,0,0,0,4.83,43H682.17A4.83,4.83,0,0,0,687,38.17V4.83A4.83,4.83,0,0,0,682.17,0Z"/></svg>