<svg id="Capa_1" data-name="Capa 1" xmlns="http://www.w3.org/2000/svg" viewBox="0 0 687 259"><defs><style>.cls-1{fill:#efefef;}.cls-2{fill:#053962;}</style></defs><rect class="cls-1" width="687" height="259" rx="4.54"/><path class="cls-2" d="M682.46,1A3.55,3.55,0,0,1,686,4.54V254.46a3.55,3.55,0,0,1-3.54,3.54H4.54A3.55,3.55,0,0,1,1,254.46V4.54A3.55,3.55,0,0,1,4.54,1H682.46m0-1H4.54A4.54,4.54,0,0,0,0,4.54V254.46A4.54,4.54,0,0,0,4.54,259H682.46a4.54,4.54,0,0,0,4.54-4.54V4.54A4.54,4.54,0,0,0,682.46,0Z"/></svg>