<svg id="Capa_1" data-name="Capa 1" xmlns="http://www.w3.org/2000/svg" xmlns:xlink="http://www.w3.org/1999/xlink" viewBox="0 0 1920 457"><defs><style>.cls-1{fill:none;}.cls-2{clip-path:url(#clip-path);}.cls-3{fill:#053962;}.cls-4{fill:#d6d6d6;}.cls-5{fill:#8bad31;}.cls-6{fill:#fff;}</style><clipPath id="clip-path"><rect class="cls-1" x="-1940" width="1920" height="1520"/></clipPath></defs><g class="cls-2"><image width="6000" height="4000" transform="translate(-1953 -1) scale(0.38)" xlink:href="../../../../../../../FOTOS%20GOOGLE%20DRIVE%20MAURICIO/Fotos%20Socializaci%C3%B3n%20UMATAS%20funes/_PIP1991.jpg"/></g><rect class="cls-3" x="932" y="-532" width="56" height="1920" transform="translate(532 1388) rotate(-90)"/><rect class="cls-4" width="1920" height="400"/><path class="cls-5" d="M1261,216H1551a9,9,0,0,1,9,9V400a0,0,0,0,1,0,0H1252a0,0,0,0,1,0,0V225A9,9,0,0,1,1261,216Z"/><rect class="cls-6" x="1248" y="246" width="22" height="3" rx="1.5"/><rect class="cls-6" x="1248" y="271.67" width="22" height="3" rx="1.5"/><rect class="cls-6" x="1248" y="297.33" width="22" height="3" rx="1.5"/><rect class="cls-6" x="1248" y="323" width="22" height="3" rx="1.5"/></svg>