<svg id="Capa_1" data-name="Capa 1" xmlns="http://www.w3.org/2000/svg" viewBox="0 0 21 28"><defs><style>.cls-1{fill:#14395f;}</style></defs><path class="cls-1" d="M14.36,4.45H6.64A2.83,2.83,0,0,0,3.82,7.28V20.72a2.83,2.83,0,0,0,2.82,2.83h7.72a2.83,2.83,0,0,0,2.82-2.83V7.28A2.83,2.83,0,0,0,14.36,4.45ZM6.64,5.75h7.72a1.53,1.53,0,0,1,1.52,1.53V18.05H5.12V7.28A1.53,1.53,0,0,1,6.64,5.75Zm7.72,16.5H6.64a1.53,1.53,0,0,1-1.52-1.53V19.35H15.88v1.37A1.53,1.53,0,0,1,14.36,22.25Z"/><path class="cls-1" d="M10.32,7.63a.52.52,0,1,0-.52-.52A.52.52,0,0,0,10.32,7.63Z"/><path class="cls-1" d="M10.32,20.17a.52.52,0,1,0,.52.52A.52.52,0,0,0,10.32,20.17Z"/></svg>