<svg id="Capa_1" data-name="Capa 1" xmlns="http://www.w3.org/2000/svg" viewBox="0 0 21 28"><defs><style>.cls-1{fill:#053962;}</style></defs><path class="cls-1" d="M10.67,24.52h0a.75.75,0,0,1-.56-.25c-.33-.35-8-8.72-8-13.3a8.62,8.62,0,1,1,17.23,0c0,4.58-7.73,13-8,13.3A.77.77,0,0,1,10.67,24.52Zm0-20.63A7.08,7.08,0,0,0,3.6,11c0,3,4.67,8.93,7.07,11.63C13.07,19.9,17.75,14,17.75,11A7.09,7.09,0,0,0,10.67,3.89Z"/><path class="cls-1" d="M10.67,14.47a3.88,3.88,0,1,1,3.88-3.88A3.88,3.88,0,0,1,10.67,14.47Zm0-6.22A2.34,2.34,0,1,0,13,10.59,2.34,2.34,0,0,0,10.67,8.25Z"/></svg>