<svg id="Capa_1" data-name="Capa 1" xmlns="http://www.w3.org/2000/svg" viewBox="0 0 913 44"><defs><style>.cls-1{fill:#efefef;}.cls-2{fill:#053962;}</style></defs><rect class="cls-1" x="0.5" y="0.5" width="912" height="43" rx="4.83"/><path class="cls-2" d="M907.68,44H5.32A5.33,5.33,0,0,1,0,38.67V5.33A5.33,5.33,0,0,1,5.32,0H907.68A5.33,5.33,0,0,1,913,5.33V38.67A5.33,5.33,0,0,1,907.68,44ZM5.32,1A4.33,4.33,0,0,0,1,5.33V38.67A4.33,4.33,0,0,0,5.32,43H907.68A4.33,4.33,0,0,0,912,38.67V5.33A4.33,4.33,0,0,0,907.68,1Z"/></svg>