<svg id="Capa_1" data-name="Capa 1" xmlns="http://www.w3.org/2000/svg" viewBox="0 0 380 44"><defs><style>.cls-1{fill:#efefef;}.cls-2{fill:#053962;}.cls-3{fill:none;stroke:#053962;stroke-miterlimit:10;}</style></defs><rect class="cls-1" x="0.48" y="0.81" width="379" height="43" rx="4.83"/><path class="cls-2" d="M374.68,44H5.32A5.33,5.33,0,0,1,0,38.67V5.33A5.33,5.33,0,0,1,5.32,0H374.68A5.33,5.33,0,0,1,380,5.33V38.67A5.33,5.33,0,0,1,374.68,44ZM5.32,1A4.33,4.33,0,0,0,1,5.33V38.67A4.33,4.33,0,0,0,5.32,43H374.68A4.33,4.33,0,0,0,379,38.67V5.33A4.33,4.33,0,0,0,374.68,1Z"/><path class="cls-2" d="M360.27,14.32H343.7A1.71,1.71,0,0,0,342.29,17l8.28,12.1a1.71,1.71,0,0,0,2.83,0L361.68,17A1.71,1.71,0,0,0,360.27,14.32Z"/><line class="cls-3" x1="326.48" y1="4.19" x2="326.48" y2="39.19"/></svg>