<svg id="Capa_1" data-name="Capa 1" xmlns="http://www.w3.org/2000/svg" xmlns:xlink="http://www.w3.org/1999/xlink" viewBox="0 0 913 180"><defs><style>.cls-1{fill:none;}.cls-2{clip-path:url(#clip-path);}.cls-3{fill:#efefef;}.cls-4{fill:#053962;}</style><clipPath id="clip-path"><rect class="cls-1" x="-1941" y="-1" width="1921" height="1521"/></clipPath></defs><g class="cls-2"><image width="6000" height="4000" transform="translate(-2095 122) scale(0.51)" xlink:href="../../../../../../FOTOS%20PROMETEUS/Capacitaci%C3%B3n%20BPM%20Cebadal%20-%20La%20cocha/_PIP5157.jpg"/></g><rect class="cls-3" x="0.5" y="0.5" width="912.53" height="179" rx="4.54"/><path class="cls-4" d="M908.49,180H5A5.05,5.05,0,0,1,0,175V5.05A5.05,5.05,0,0,1,5,0H908.49a5.05,5.05,0,0,1,5,5.05V175A5.05,5.05,0,0,1,908.49,180ZM5,1A4.05,4.05,0,0,0,1,5.05V175A4.05,4.05,0,0,0,5,179H908.49a4.05,4.05,0,0,0,4-4.05V5.05a4.05,4.05,0,0,0-4-4Z"/></svg>