<svg xmlns="http://www.w3.org/2000/svg" viewBox="0 0 1920 1080"><defs><style>.cls-1{fill:#14395f;}.cls-2{fill:#9bbe30;}</style></defs><g id="Capa_2" data-name="Capa 2"><path class="cls-1" d="M611,603.84l-22.11-50.19H511.65L489,603.84H455.73l94.4-202.65L644.4,603.84Zm-87.61-76.56h54.32l-20-44.47c-1.16-2.84-2.35-6.1-3.6-9.79s-2.48-7.78-3.72-12.31q-1.6,6.39-3.4,11.92t-3.66,10.18ZM779.14,596q0,37-14.78,52.12t-49.79,15.12q-26.1,0-41.68-11T657.05,623l31-.14a15.26,15.26,0,0,0,7.59,12.39q6.92,4.26,19.44,4.26,18.51,0,26.63-8.12T750,604.24l.27-16.77A48,48,0,0,1,708.57,609q-26.76,0-42.14-18.31T651.06,540.6q0-30.22,15.71-48.8t41-18.58q15.44,0,26.43,6.46a37.85,37.85,0,0,1,16,18.58V477.62h28.89Zm-28.09-55.66q0-19.58-9.12-30.49t-25.5-10.92q-16.38,0-25.76,11.25t-9.39,31.23q0,20.1,9.05,31t25.57,10.92a31.36,31.36,0,0,0,25.36-11.85Q751.06,559.64,751.05,540.33ZM848,497.72q4.66-12.51,12.32-18.5t19-6a49.88,49.88,0,0,1,12.05,1.47A59,59,0,0,1,903,479l-10.38,24.5a26.69,26.69,0,0,0-8.06-3.93,34.49,34.49,0,0,0-9.65-1.26q-14.39,0-20.64,11.51T848,548.45v55.39H819.09V477.35H848Zm297.19-61.91v168h-31.69v-168h-51.79v-26.9h135v26.9ZM1216,423a17.17,17.17,0,0,1,5.4-12.65,17.63,17.63,0,0,1,12.84-5.33,17.53,17.53,0,0,1,18,18,17.76,17.76,0,0,1-5.19,13,17.26,17.26,0,0,1-12.79,5.26A18.42,18.42,0,0,1,1216,423Zm3.87,180.81V477.62h28.89V603.84Zm164.43-90.27a45.25,45.25,0,0,0-15.51-11.19,47.32,47.32,0,0,0-19.1-3.86q-17.71,0-28.36,11.45t-10.66,30.36q0,19.71,10.72,31T1351,582.54a43.14,43.14,0,0,0,18.77-3.93,40.53,40.53,0,0,0,14.51-11.92V600a67.47,67.47,0,0,1-17.1,6.79,80.23,80.23,0,0,1-19.38,2.27q-29.68,0-48.4-18.91t-18.7-49q0-30.5,19.37-49.2t50.66-18.71a79.39,79.39,0,0,1,18.11,1.94,59.37,59.37,0,0,1,15.44,5.92Z"/><path class="cls-2" d="M1137.13,688.53a481.51,481.51,0,0,1,26.5-63.68q12-23.65,32.31-59.35,15-26.37,19.74-31.5t9.74-5.14q4.32,0,4.32,3.78a11.33,11.33,0,0,1-1.89,5.28q-1.75,3.11-11.22,18.25-31.23,50.83-45.56,83.56-13,29.32-22.31,57.46-3.39,10.14-7.44,15-6,7.3-12,7.3-5.55,0-7-8-.67-3.25-.68-12.44,0-32.31,6.35-71.79,5.68-34.62,11.5-55.57-13,14.32-38.81,60-20.41,36.22-30.55,67.6-4.2,13-6.09,16.09-3.51,5.94-9,5.95a5,5,0,0,1-3.92-1.9,5.09,5.09,0,0,1-1.36-3.24q0-5.14,8.79-27.18,11.36-28.67,37.72-73.28,15.69-26.62,37.32-56.64,10.27-14.34,15.28-18.53,4.59-3.78,8.65-3.78a4.84,4.84,0,0,1,3.11,1.08,4.49,4.49,0,0,1,1.89,3.65,16.61,16.61,0,0,1-1.35,6.08q-6.49,16.64-13.38,46.11-11,47.44-11,80.71Q1136.72,679.08,1137.13,688.53Z"/><path class="cls-2" d="M1228.12,686.23a101.72,101.72,0,0,1-8.79,13.25q-8.52,10.54-16.9,10.55-7.31,0-11.36-6.9a20.75,20.75,0,0,1-2.56-10.54q0-15,9.46-33.13,10.54-20.15,25.42-31,9.73-7,18.79-7a13.32,13.32,0,0,1,9.46,3.52,9.49,9.49,0,0,1,3.25,7q0,3-2.3,8.25a9,9,0,0,1,2,5q0,2.84-3.79,9.33a104.7,104.7,0,0,0-7.84,17.57q-4.18,11.64-4.19,18.66a13.19,13.19,0,0,0,3.38,9.33,25.5,25.5,0,0,0,5.54,3.11,5.76,5.76,0,0,1,3.38,5.68,5.27,5.27,0,0,1-1.89,4.19,7,7,0,0,1-4.73,1.76q-7.31,0-12.57-6.49-4.34-5.28-4.33-13.25Q1227.58,692.46,1228.12,686.23Zm16.9-44.48a13.36,13.36,0,0,0-3.52-4.39,6.6,6.6,0,0,0-4-1.42q-10.28,0-22.31,18-13.25,19.88-13.25,33.67a8.59,8.59,0,0,0,1.29,5.13,4.43,4.43,0,0,0,3.85,1.76q6.48,0,15.14-13.79a225.37,225.37,0,0,0,12-22.31,119.72,119.72,0,0,1,6.9-12.71A20,20,0,0,1,1245,641.75Z"/><path class="cls-2" d="M1284.63,664.06a265.32,265.32,0,0,1,30.56-27.72,126,126,0,0,1,13.25-9.05c2.34-1.36,3.83-2,4.46-2,1.35,0,2.71,1,4.06,3a5.12,5.12,0,0,1,1.21,3q0,2.43-5.13,6.62-13.8,10.95-13.79,16.5,0,3.1,3.51,3.11,5.82,0,20-9.6a7.93,7.93,0,0,1,4.06-1.63,3.13,3.13,0,0,1,2.16,1.09,3.63,3.63,0,0,1,1.22,2.57q0,4.05-11.36,12.43-11.89,8.93-22.58,8.93a14.74,14.74,0,0,1-8-2.3c-2.07-1.26-3.11-3.52-3.11-6.76q0-3.37,2.84-7.71-10.68,7.57-25.14,26a187,187,0,0,0-16.63,28q-3.12,6.21-7.71,6.22-5,0-5-4.74,0-4.59,7.84-24.6,11.63-29.74,24.34-46.11,7.83-10.14,13.11-10.14a5.39,5.39,0,0,1,3.24,1.08,4.11,4.11,0,0,1,1.76,3.39q0,2-2.7,5.67l-7.17,9.06A71.85,71.85,0,0,0,1284.63,664.06Z"/><path class="cls-2" d="M1380.09,627.56a4.73,4.73,0,0,1,3.78,1.75,5.08,5.08,0,0,1,1.08,3q0,2.43-3.92,8.11-14.05,21.76-20,35.83A304.29,304.29,0,0,0,1349.8,706q-2.16,6.76-6.76,6.76a5.16,5.16,0,0,1-4.33-2.16,5.74,5.74,0,0,1-1.48-3.78q0-4.06,8.65-27,6.76-18.11,21.9-40a75.11,75.11,0,0,1,7.31-9.61A7,7,0,0,1,1380.09,627.56Z"/><path class="cls-2" d="M1406.18,662.17c1.17-1.08,2.3-2.17,3.38-3.25q28.26-27.57,37.86-27.58,5.26,0,5.27,5.82,0,4.05-4.73,9.6-25.83,30.15-25.83,53.13a27.24,27.24,0,0,0,4.06,14.2q1.89,3.1,1.89,4.86a4.26,4.26,0,0,1-1.62,3.11,5.54,5.54,0,0,1-4.19,1.9q-5.55,0-9.33-7-3.64-6.61-3.65-16.08,0-18.26,13.79-40.43-18.39,11.76-34.21,41.64-4,7.17-8.65,7.17a4.9,4.9,0,0,1-3.78-1.62,6.57,6.57,0,0,1-1.9-4.87q0-7.31,16.63-38.26,8.92-16.77,14.06-24.34t8.79-7.44a4.8,4.8,0,0,1,3.38,1.63,6,6,0,0,1,1.89,4.32q0,3-3.92,8.52A144.65,144.65,0,0,0,1406.18,662.17ZM1416.46,579q8.37,0,29.87,4.06a37.65,37.65,0,0,0,7.58.67,68.23,68.23,0,0,0,19.87-3.11,12.35,12.35,0,0,1,3.52-.67,4.51,4.51,0,0,1,3.92,2.29,5.47,5.47,0,0,1,.81,2.84q0,5.14-6.22,8a42,42,0,0,1-18.25,4.06q-9.46,0-29.48-3.52a55.7,55.7,0,0,0-8.92-.54c-1.71,0-3.07,0-4.06.14q-7.57,1.08-7.84,1.08a5.65,5.65,0,0,1-4-1.9,6.39,6.39,0,0,1-1.9-4.73Q1401.31,579,1416.46,579Z"/><path class="cls-2" d="M1504.61,621.34q11.09,0,11.08,13.52,0,18-16.63,45.56-18.12,29.88-35,29.88-7.85,0-11.5-7.3a18.89,18.89,0,0,1-1.89-8.79q0-17.3,11.9-37.58,11.09-18.79,26.09-29.21Q1497.44,621.35,1504.61,621.34Zm-14.06,51.1c-2.26-1.8-3.38-3.2-3.38-4.19q0-1.08,4.32-6,12.18-13.65,12.17-22a4.09,4.09,0,0,0-.68-2.17,3.57,3.57,0,0,0-3.37-2q-4.33,0-12.71,8.39a85.23,85.23,0,0,0-16.5,22.31q-6.63,13.11-6.62,21.76a7,7,0,0,0,1.21,4.06,5.31,5.31,0,0,0,4.46,2.43q6.49,0,13.93-9.73a42,42,0,0,0,5.27-8.39A25,25,0,0,0,1490.55,672.44Z"/><path class="cls-2" d="M991.29,546.1h0a12.47,12.47,0,0,1-12.44-12.5l.27-110.47a12.46,12.46,0,0,1,12.46-12.43h0A12.46,12.46,0,0,1,1004,423.19l-.26,110.47A12.48,12.48,0,0,1,991.29,546.1Z"/><path class="cls-2" d="M991.24,613.39c-32.77,0-62.72-20.55-73.44-50.72-10.38-29.2-1.44-62.88,22.25-83.82a12.46,12.46,0,1,1,16.51,18.67c-16.14,14.27-22.28,37.1-15.28,56.8C948.7,575.19,970,589.23,993,588.44c20.67-.7,39.07-13,46.88-31.45,8.74-20.6,3-44.86-14.3-60.37a12.46,12.46,0,1,1,16.64-18.55c25.22,22.62,33.5,58.25,20.61,88.65-11.59,27.3-38.66,45.6-69,46.63C993,613.38,992.12,613.39,991.24,613.39Z"/><path class="cls-2" d="M1027.51,325.17a138.33,138.33,0,0,1-17.64-1.2,8.31,8.31,0,1,1,2.13-16.48c23.7,3.07,40.88-.41,51.07-10.31,7.56-7.36,9.12-16.34,11.08-27.72,1.58-9.1,3.36-19.41,8.63-30.37,9.61-20,28.1-36,55.15-47.64a164.17,164.17,0,0,0-21.82-1.2c-17.9.19-55.12.6-88.07,27.13-22.23,17.9-33.43,40.69-38.91,56.67a8.3,8.3,0,0,1-15.71-5.39c6.19-18.05,18.88-43.84,44.2-64.23,37.44-30.14,80.09-30.6,98.3-30.8a185.62,185.62,0,0,1,55.39,7.91,8.31,8.31,0,0,1-.2,16c-38.15,10.47-62.83,26.88-73.36,48.78-4.26,8.87-5.77,17.58-7.22,26-2.19,12.63-4.44,25.68-15.88,36.8C1063.65,319.79,1047.84,325.17,1027.51,325.17Z"/><path class="cls-2" d="M948.79,399.25a8.77,8.77,0,0,1-.88,0c-34.4-3.64-60.78-15.59-78.39-35.5C854,346.16,850.09,327.76,846.3,310c-3.28-15.43-6.38-30-16.53-45.41-15.61-23.69-43.21-40.74-82-50.67a8.31,8.31,0,0,1,1.06-16.3c3.93-.48,39.66-4.44,82.61,3.47,55.13,10.15,99.74,35.75,129,74,19.18,25.09,31.58,54.74,36.87,88.12a8.31,8.31,0,0,1-16.42,2.6c-4.84-30.63-16.17-57.75-33.65-80.63-42.14-55.12-108.87-69-152.69-71.77,21.36,10.79,37.8,24.84,49.11,42,11.88,18,15.62,35.59,18.92,51.09,3.64,17.14,6.79,31.93,19.41,46.2,14.77,16.71,37.55,26.79,67.69,30a8.31,8.31,0,0,1-.87,16.57Z"/><path class="cls-2" d="M941.56,356.94a8.32,8.32,0,0,1-8-6.11,94.49,94.49,0,0,0-41.69-55.58,8.31,8.31,0,1,1,8.74-14.13,111.21,111.21,0,0,1,49,65.3,8.31,8.31,0,0,1-5.8,10.22A8.46,8.46,0,0,1,941.56,356.94Z"/><path class="cls-2" d="M1015.55,296.76a6.57,6.57,0,0,1-1.94-.29,6.64,6.64,0,0,1-4.42-8.29,109.53,109.53,0,0,1,49.88-63.09,6.65,6.65,0,0,1,6.68,11.5,96.17,96.17,0,0,0-43.84,55.46A6.65,6.65,0,0,1,1015.55,296.76Z"/><path class="cls-2" d="M1521.71,765.68a5112.82,5112.82,0,0,0-564.19,24.4q-66.78,6.61-133.43,15h0c-205,21.41-354.52,38.2-388.89,42.59-6.87.88-25,3.38-36.81,13.92l-.13.12c-6.28,4.74-10.16,11.16-10.16,18.24a19.39,19.39,0,0,0,.14,2c0,.16,0,.32,0,.49s.08.44.12.67a15.27,15.27,0,0,0,.4,1.92c.07.24.15.48.23.73s.17.62.29.93c.05.12.12.23.17.35,4.3,11.11,18.38,19.28,35.14,19.28a50.42,50.42,0,0,0,7.45-.56h0a32.36,32.36,0,0,0,5.59-1.22c8.17-2.26,14.94-6.56,19.06-12.07,14.35-10.86,35.31-16.14,76.54-26.48,140.44-26.42,283.66-46.95,427-61.16a5084.82,5084.82,0,0,1,561-24.26h.18c5.63,0,10.25-3.27,10.34-7.36S1527.42,765.75,1521.71,765.68Z"/></g></svg>