<svg xmlns="http://www.w3.org/2000/svg" viewBox="0 0 74 74"><defs><style>.cls-1{fill:#fff;}.cls-2{fill:#053962;}</style></defs><g id="Titulares_noticias" data-name="Titulares noticias"><circle class="cls-1" cx="37" cy="37" r="37"/><path class="cls-1" d="M39.4,53.79,57.9,37.34,42.14,20.21"/><path class="cls-2" d="M39.4,58.29a4.5,4.5,0,0,1-3-7.87L51.49,37,38.83,23.26a4.5,4.5,0,1,1,6.62-6.09L61.21,34.3a4.46,4.46,0,0,1,1.18,3.27,4.53,4.53,0,0,1-1.5,3.14L42.39,57.15A4.51,4.51,0,0,1,39.4,58.29Z"/><path class="cls-1" d="M20.9,53.79,39.4,37.34,23.64,20.21"/><path class="cls-2" d="M20.9,58.29a4.5,4.5,0,0,1-3-7.87L33,37,20.33,23.26A4.5,4.5,0,1,1,27,17.17L42.71,34.3a4.46,4.46,0,0,1,1.18,3.27,4.53,4.53,0,0,1-1.5,3.14L23.89,57.15A4.51,4.51,0,0,1,20.9,58.29Z"/></g></svg>