<svg xmlns="http://www.w3.org/2000/svg" xmlns:xlink="http://www.w3.org/1999/xlink" viewBox="0 0 1920 711"><defs><style>.cls-1{fill:none;}.cls-2{isolation:isolate;}.cls-3{fill:#14395f;}.cls-4{clip-path:url(#clip-path);}.cls-5{fill:#686868;mix-blend-mode:multiply;}.cls-6,.cls-7{fill:#fff;}.cls-7{stroke:#053962;stroke-linecap:round;stroke-linejoin:round;stroke-width:9px;}</style><clipPath id="clip-path"><path class="cls-1" d="M1920,711.28H809L940.66,214.06A52.48,52.48,0,0,1,991.4,175H1920Z"/></clipPath></defs><g class="cls-2"><g id="Otras_noticias" data-name="Otras noticias"><rect class="cls-3" width="1920" height="674"/><g class="cls-4"><image width="6000" height="4000" transform="translate(809 -34.07) scale(0.23)" xlink:href="../../../../../../../FOTOS%20GOOGLE%20DRIVE%20MAURICIO/Fotos%20Proveedores%20Buesaco%20Santa%20Maria%20Villamoreno/Editadas%20en%20campo/_PIP3120.jpg"/></g><polygon class="cls-5" points="330.06 289 1458 289 1458 198 349.37 198 330.06 289"/><circle class="cls-6" cx="148" cy="467" r="37"/><path class="cls-7" d="M145.6,450.21l-18.5,16.45,15.76,17.13"/><path class="cls-7" d="M164.1,450.21l-18.5,16.45,15.76,17.13"/><circle class="cls-6" cx="1708" cy="467" r="37"/><path class="cls-7" d="M1710.4,483.79l18.5-16.45-15.76-17.13"/><path class="cls-7" d="M1691.9,483.79l18.5-16.45-15.76-17.13"/></g></g></svg>