<svg xmlns="http://www.w3.org/2000/svg" xmlns:xlink="http://www.w3.org/1999/xlink" viewBox="0 0 140 261"><defs><style>.cls-1{isolation:isolate;}.cls-2{fill:url(#linear-gradient);}.cls-3{fill:#ffff93;mix-blend-mode:screen;}.cls-17,.cls-3,.cls-9{opacity:0.3;}.cls-12,.cls-13,.cls-14,.cls-15,.cls-16,.cls-20,.cls-4,.cls-5,.cls-6,.cls-7,.cls-8{mix-blend-mode:overlay;}.cls-12,.cls-13,.cls-14,.cls-15,.cls-16,.cls-4,.cls-5,.cls-6,.cls-7,.cls-8{opacity:0.2;}.cls-4{fill:url(#linear-gradient-2);}.cls-5{fill:url(#linear-gradient-3);}.cls-6{fill:url(#linear-gradient-4);}.cls-7{fill:url(#linear-gradient-5);}.cls-8{fill:url(#linear-gradient-6);}.cls-10,.cls-17,.cls-18,.cls-21,.cls-9{mix-blend-mode:multiply;}.cls-9{fill:url(#linear-gradient-7);}.cls-10,.cls-18,.cls-21{opacity:0.4;}.cls-10{fill:url(#linear-gradient-8);}.cls-11{fill:url(#linear-gradient-9);}.cls-12{fill:url(#linear-gradient-10);}.cls-13{fill:url(#linear-gradient-11);}.cls-14{fill:url(#linear-gradient-12);}.cls-15{fill:url(#linear-gradient-13);}.cls-16{fill:url(#linear-gradient-14);}.cls-17{fill:url(#linear-gradient-15);}.cls-18{fill:url(#linear-gradient-16);}.cls-19{fill:url(#linear-gradient-17);}.cls-20{opacity:0.5;fill:url(#linear-gradient-18);}.cls-21{fill:url(#linear-gradient-19);}</style><linearGradient id="linear-gradient" x1="2229.98" y1="260.42" x2="2277.71" y2="118.05" gradientTransform="matrix(-1, 0, 0, 1, 2294.74, 0.54)" gradientUnits="userSpaceOnUse"><stop offset="0" stop-color="#8eb548"/><stop offset="0.37" stop-color="#9dc757"/><stop offset="0.43" stop-color="#95c350"/><stop offset="0.81" stop-color="#60a523"/><stop offset="1" stop-color="#4b9912"/></linearGradient><linearGradient id="linear-gradient-2" x1="2246.63" y1="203" x2="2271.53" y2="128.75" xlink:href="#linear-gradient"/><linearGradient id="linear-gradient-3" x1="2245.02" y1="206.38" x2="2269.92" y2="132.13" xlink:href="#linear-gradient"/><linearGradient id="linear-gradient-4" x1="2246.66" y1="200.66" x2="2271.56" y2="126.41" xlink:href="#linear-gradient"/><linearGradient id="linear-gradient-5" x1="2250.77" y1="197.45" x2="2275.67" y2="123.21" xlink:href="#linear-gradient"/><linearGradient id="linear-gradient-6" x1="2239.09" y1="220.17" x2="2263.99" y2="145.92" xlink:href="#linear-gradient"/><linearGradient id="linear-gradient-7" x1="2229.98" y1="260.41" x2="2277.71" y2="118.05" xlink:href="#linear-gradient"/><linearGradient id="linear-gradient-8" x1="2231.59" y1="260.96" x2="2279.32" y2="118.59" xlink:href="#linear-gradient"/><linearGradient id="linear-gradient-9" x1="-35.06" y1="295.38" x2="21.54" y2="126.54" gradientTransform="translate(111.29 -37.78) rotate(2.01)" xlink:href="#linear-gradient"/><linearGradient id="linear-gradient-10" x1="-13.64" y1="226.21" x2="15.62" y2="138.94" gradientTransform="translate(111.29 -37.78) rotate(2.01)" xlink:href="#linear-gradient"/><linearGradient id="linear-gradient-11" x1="-15.06" y1="230.39" x2="14.2" y2="143.12" gradientTransform="translate(111.29 -37.78) rotate(2.01)" xlink:href="#linear-gradient"/><linearGradient id="linear-gradient-12" x1="-13.64" y1="223.31" x2="15.62" y2="136.04" gradientTransform="translate(111.29 -37.78) rotate(2.01)" xlink:href="#linear-gradient"/><linearGradient id="linear-gradient-13" x1="-9.95" y1="219.37" x2="19.31" y2="132.1" gradientTransform="translate(111.29 -37.78) rotate(2.01)" xlink:href="#linear-gradient"/><linearGradient id="linear-gradient-14" x1="-20.28" y1="247.45" x2="8.98" y2="160.18" gradientTransform="translate(111.29 -37.78) rotate(2.01)" xlink:href="#linear-gradient"/><linearGradient id="linear-gradient-15" x1="-35.06" y1="295.37" x2="21.54" y2="126.54" gradientTransform="translate(111.29 -37.78) rotate(2.01)" xlink:href="#linear-gradient"/><linearGradient id="linear-gradient-16" x1="-32.02" y1="296.4" x2="24.59" y2="127.56" gradientTransform="translate(111.29 -37.78) rotate(2.01)" xlink:href="#linear-gradient"/><linearGradient id="linear-gradient-17" x1="-156.98" y1="322.58" x2="-238.63" y2="132.8" gradientTransform="matrix(1, 0.08, -0.08, 1, 261.07, -81.6)" xlink:href="#linear-gradient"/><linearGradient id="linear-gradient-18" x1="-173.79" y1="254.35" x2="-224.1" y2="137.42" gradientTransform="matrix(1, 0.08, -0.08, 1, 261.07, -81.6)" xlink:href="#linear-gradient"/><linearGradient id="linear-gradient-19" x1="-160.99" y1="323.9" x2="-242.51" y2="134.42" gradientTransform="matrix(1, 0.08, -0.08, 1, 261.07, -81.6)" xlink:href="#linear-gradient"/></defs><g class="cls-1"><g id="Capa_1" data-name="Capa 1"><path class="cls-2" d="M0,115.82s19.88,6.73,34,28.47,29.76,61.91,33.43,74.23,6.56,26.62,6.36,32.56S70.62,260,70,257.18s1.69-18-5.28-33.73-34-56-44-72.36S0,115.82,0,115.82Z"/><path class="cls-3" d="M22.76,143.4A84,84,0,0,0,5.38,125.14l.56,1a83.41,83.41,0,0,1,16.66,17.7c10.94,15.7,22.86,40.55,30.69,58.89.38.62.75,1.23,1.11,1.84C46.61,186,34.15,159.76,22.76,143.4ZM0,115.89l.41.71A84.12,84.12,0,0,1,29,142.21c16,23,34.13,65.57,38.44,78.64,1.52,4.62,2.93,9.5,4.13,14.17-.43-2-.91-4.11-1.42-6.22-.8-2.81-1.66-5.63-2.55-8.35-4.31-13.08-22.43-55.66-38.44-78.64A84.13,84.13,0,0,0,0,115.89ZM70,251.1a38.41,38.41,0,0,1,.51,5.94c0,.34,0,.66,0,1l.12.11c0-.48.08-1,.09-1.49a43.81,43.81,0,0,0-.67-7ZM3.12,121.24l.47.81a84,84,0,0,1,22.26,21.79c16,22.91,34,65.31,38.4,78.51l.51,1.1c.19.43.37.86.55,1.29-.28-.89-.57-1.78-.86-2.67C60.14,209,42,166.41,26,143.44A84,84,0,0,0,3.12,121.24ZM69,237.83c.14.89.27,1.77.38,2.62,1.64,7,2.66,13.13,2.61,16.6l0,.48.14-.18c0-.24,0-.46,0-.7C72.18,252.82,70.93,245.73,69,237.83Zm-67.23-119c.13.24.28.49.43.75a84.11,84.11,0,0,1,26.19,24.25c16,23,34.13,65.57,38.44,78.64a195.62,195.62,0,0,1,7,27.31c0-.62-.07-1.32-.13-2.05A203.79,203.79,0,0,0,67,222.1C62.66,209,44.54,166.44,28.53,143.46A84.25,84.25,0,0,0,1.75,118.86Zm22.77,24.56A84,84,0,0,0,4.07,122.88c.17.29.33.58.51.88a83.77,83.77,0,0,1,19.78,20.06C37.48,162.65,52,194.62,59.2,212.76c.36.63.71,1.25,1,1.86C53.42,197,38.2,163.06,24.52,143.42Z"/><path class="cls-4" d="M57.35,199.34c-10.89-18-25.52-40.11-32.28-51.2-4.23-6.94-8.61-14.34-12.25-20.57A76.53,76.53,0,0,1,32.3,148C41.15,161.69,50.62,182.61,57.35,199.34Z"/><path class="cls-5" d="M59,202.72c-10.89-18-25.52-40.1-32.28-51.2-4.23-6.94-8.61-14.34-12.25-20.56A76.46,76.46,0,0,1,33.9,151.42C42.75,165.07,52.23,186,59,202.72Z"/><path class="cls-6" d="M57.32,197C46.44,179,31.8,156.9,25,145.8c-4.23-6.94-8.6-14.34-12.25-20.56A76.47,76.47,0,0,1,32.27,145.7C41.12,159.35,50.59,180.28,57.32,197Z"/><path class="cls-7" d="M53.22,193.79c-10.89-18-25.53-40.1-32.29-51.2-4.23-6.94-8.6-14.34-12.24-20.56a76.46,76.46,0,0,1,19.47,20.46C37,156.14,46.48,177.06,53.22,193.79Z"/><path class="cls-8" d="M64.88,216.52c-10.89-18-25.52-40.11-32.28-51.2C28.37,158.38,24,151,20.35,144.75a76.53,76.53,0,0,1,19.48,20.47C48.68,178.87,58.15,199.79,64.88,216.52Z"/><path class="cls-9" d="M72,251.06c.2-5.94-2.68-20.23-6.35-32.55S46.35,166,32.25,144.27A75,75,0,0,0,.5,116.69c-.32-.57-.5-.87-.5-.87s19.88,6.73,34,28.47,29.76,61.91,33.43,74.23,6.56,26.62,6.36,32.56c-.19,5.62-2.84,8.55-3.61,6.5C71.05,256.53,71.94,254.23,72,251.06Z"/><path class="cls-10" d="M69.93,254.72a15,15,0,0,0,.11,2.46c.58,2.78,3.53-.16,3.73-6.1,0-.49,0-1.05,0-1.64v.05c-.2,5.95-3.15,8.89-3.73,6.11A7.54,7.54,0,0,1,69.93,254.72ZM0,115.82s10.8,18.93,20.76,35.27,37,56.64,44,72.36a65.64,65.64,0,0,1,5.18,25.48c0-6.51-.6-16.68-5.2-27.07-7-15.72-31.33-56.77-41.29-73.12-8-13.15-19.27-27.19-22.31-32.49C.41,116,0,115.82,0,115.82Z"/><path class="cls-11" d="M140.19,85.63S122,93.12,108.47,119.5s-29,75.57-32.73,90.71S68.93,243,68.92,250.36s2.56,11.17,3.17,7.75-.93-22.45,5.89-41.66,32.68-68.06,42.24-87.92S140.19,85.63,140.19,85.63Z"/><path class="cls-3" d="M88,193.43l1.06-2.25c7.7-22.43,19.31-52.76,29.74-71.78a94.86,94.86,0,0,1,15.68-21.24c.18-.4.36-.8.54-1.18a94.6,94.6,0,0,0-16.35,21.91C107.8,138.7,95.65,170.78,88,193.43Zm24.9-76.8c-15.26,27.83-33.08,79.92-37.41,96-.9,3.34-1.77,6.8-2.59,10.26-.53,2.6-1,5.17-1.48,7.66,1.23-5.74,2.67-11.74,4.2-17.41,4.33-16,22.14-68.14,37.41-96,8.88-16.19,19.45-25.55,26.74-30.55.19-.43.33-.72.39-.86C132.85,90.63,122,100.05,112.89,116.63ZM72.42,248.73a71.79,71.79,0,0,0-.84,8.67c0,.65,0,1.26,0,1.85a.77.77,0,0,0,.12-.13c0-.4,0-.79,0-1.21a65.34,65.34,0,0,1,.65-7.36C72.38,250,72.4,249.36,72.42,248.73Zm43.29-129.94c-15.26,27.83-33.07,79.92-37.4,96-.29,1.08-.58,2.18-.87,3.28l.54-1.58.5-1.34c4.39-16.21,22.14-68.07,37.36-95.81a91.37,91.37,0,0,1,20.89-26.08l.46-1A91,91,0,0,0,115.71,118.79ZM70.23,257.35c0,.3,0,.58,0,.87l.12.23c0-.2,0-.39,0-.59.07-4.31,1.19-11.89,2.91-20.5.12-1.06.27-2.14.43-3.24C71.66,243.84,70.29,252.59,70.23,257.35Zm43.2-138.64c-15.26,27.83-33.08,79.92-37.4,96a322.18,322.18,0,0,0-6.89,31.57c-.08.91-.14,1.77-.18,2.54a316,316,0,0,1,7.19-33.6c4.33-16.05,22.15-68.13,37.41-96,8-14.63,17.42-23.67,24.53-29,.15-.32.28-.62.42-.91C131.33,94.58,121.65,103.71,113.43,118.71Zm-31.07,87,1-2.27c7.11-22.2,21.32-61.27,33.82-84.07a93,93,0,0,1,18.59-24l.49-1.07a92.3,92.3,0,0,0-19.2,24.61C104,142.62,89.12,184.1,82.36,205.68Z"/><path class="cls-12" d="M85.48,186.83c10.46-21.86,24.44-48.68,30.93-62.16,4.06-8.44,8.27-17.43,11.77-25a86,86,0,0,0-18.32,24.55C101.4,140.79,92.13,166.35,85.48,186.83Z"/><path class="cls-13" d="M83.92,191c10.45-21.85,24.44-48.68,30.93-62.16,4.06-8.43,8.26-17.43,11.77-25a86,86,0,0,0-18.32,24.56C99.83,144.92,90.56,170.48,83.92,191Z"/><path class="cls-14" d="M85.58,183.93C96,162.08,110,135.25,116.51,121.77c4.06-8.43,8.27-17.43,11.77-25A86,86,0,0,0,110,121.33C101.5,137.89,92.23,163.45,85.58,183.93Z"/><path class="cls-15" d="M89.41,180.13c10.46-21.86,24.44-48.69,30.93-62.17,4.06-8.43,8.27-17.42,11.77-25a86,86,0,0,0-18.32,24.55C105.33,134.08,96.06,159.65,89.41,180.13Z"/><path class="cls-16" d="M78.1,207.83C88.55,186,102.54,159.15,109,145.67c4.06-8.43,8.27-17.43,11.77-25a86.21,86.21,0,0,0-18.32,24.56C94,161.79,84.75,187.35,78.1,207.83Z"/><path class="cls-17" d="M70.48,250.42c0-7.39,3.09-25,6.82-40.15S96.55,145.92,110,119.55c10.76-21.06,24.55-30.07,29.67-32.85l.49-1.07S122,93.12,108.47,119.5s-29,75.57-32.73,90.71S68.93,243,68.92,250.36c0,7,2.29,10.74,3.06,8.23C71.2,257.25,70.47,254.35,70.48,250.42Z"/><path class="cls-18" d="M72.16,256.14c-.61,3.43-3.19-.36-3.17-7.75v-.07c0,.74-.07,1.44-.07,2,0,7.39,2.56,11.17,3.17,7.75a23.39,23.39,0,0,0,.18-3.06A8.24,8.24,0,0,1,72.16,256.14Zm67-170c-2.93,6.44-13.59,23.38-21.28,39.36-9.56,19.86-33,69.77-39.81,89-4.51,12.69-5.36,25.29-5.6,33.38.33-8.08,1.37-19.71,5.53-31.41,6.83-19.22,32.68-68.06,42.24-87.92s20-42.9,20-42.9S139.81,85.79,139.14,86.13Z"/><path class="cls-19" d="M11.73,0S40,44.33,53.67,96,72.92,187.83,73,216.73s2.25,45.67-1.7,44.27-5-11-3.64-25,2-38.24-2.63-57.34S34.59,91.15,27.88,67.3,11.73,0,11.73,0Z"/><path class="cls-3" d="M24.85,41.58c-2.41-5.77-5-11.69-7.68-17.39l.3,1.27C19.85,30.65,22.2,36,24.37,41.2c8.1,19.45,31.32,86,39,126.81.67,3.55,1.18,7,1.59,10.3,0,.11.06.24.08.34.27,1.11.52,2.24.76,3.38-.43-4.34-1.06-8.88-2-13.65C56.17,127.59,33,61,24.85,41.58Zm41,128.32c-7.68-40.8-30.9-107.36-39-126.81C25.12,39,23.31,34.9,21.48,30.82c-1.45-3-2.91-5.94-4.35-8.76,3.16,6.68,6.34,13.78,9.2,20.66,8.1,19.45,31.32,86,39,126.81A153,153,0,0,1,68,198c.16,1.84.28,3.67.37,5.5A150.14,150.14,0,0,0,65.81,169.9ZM21.24,39.62c.24.67.48,1.34.71,2s.37,1.15.56,1.75C30,61.5,50.23,119.16,59.35,159.94c.41,1.23.8,2.43,1.18,3.59C51.76,122.51,30.58,62,22.91,43.58,22.37,42.27,21.81,41,21.24,39.62Zm10,36.52C35.52,88.52,40.3,103,44.76,117.7c.83,2.35,1.65,4.71,2.48,7.07C41.81,106.4,35.71,87.93,30.46,73,30.71,74,31,75.08,31.21,76.14ZM27,59.14c7.84,21.27,19.4,55.74,27.25,85.73.51,1.49,1,3,1.51,4.41C47.49,116.72,34.32,77.76,26.17,56,26.44,57.05,26.72,58.09,27,59.14Z"/><path class="cls-20" d="M19.83,19.94C23,33.6,26.92,49.92,30.2,61.58c6.71,23.85,32.5,92.26,37.17,111.35.32,1.33.61,2.68.89,4-3-22.1-8.19-47.9-16-77.5C43.69,67,29.32,37.43,19.83,19.94Z"/><path class="cls-21" d="M70.61,240.26c1.41-14,1.6-46.58-3.06-65.67s-32-86.37-38.7-110.22c-6.16-21.92-12.67-53.15-14-59.24C12.9,1.83,11.73,0,11.73,0s9.44,43.44,16.15,67.3,32.51,92.26,37.17,111.35,4,43.34,2.63,57.34c-1.39,13.76-.33,23.27,3.46,24.91C69.84,256.56,69.69,249.34,70.61,240.26Z"/></g></g></svg>