<svg id="Capa_1" data-name="Capa 1" xmlns="http://www.w3.org/2000/svg" xmlns:xlink="http://www.w3.org/1999/xlink" viewBox="0 0 230 299"><defs><style>.cls-1{fill:url(#linear-gradient);}.cls-2{fill:url(#linear-gradient-2);}.cls-3{fill:url(#linear-gradient-3);}.cls-4{fill:url(#linear-gradient-4);}.cls-5{fill:url(#linear-gradient-5);}.cls-6{fill:url(#linear-gradient-6);}.cls-7{fill:url(#linear-gradient-7);}.cls-8{fill:#80a835;}</style><linearGradient id="linear-gradient" x1="91.79" y1="108.92" x2="121.85" y2="85.24" gradientTransform="translate(-18.18 5.5) rotate(-0.31)" gradientUnits="userSpaceOnUse"><stop offset="0" stop-color="#2e6510"/><stop offset="1" stop-color="#7dc300"/></linearGradient><linearGradient id="linear-gradient-2" x1="128.34" y1="62.39" x2="121.1" y2="293.69" gradientTransform="translate(-18.18 5.5) rotate(-0.31)" gradientUnits="userSpaceOnUse"><stop offset="0" stop-color="#2e6510"/><stop offset="0.24" stop-color="#7f7f17"/><stop offset="0.43" stop-color="#85ac00"/><stop offset="0.59" stop-color="#6c4124"/><stop offset="0.72" stop-color="#839d00"/><stop offset="1" stop-color="#a9683c"/></linearGradient><linearGradient id="linear-gradient-3" x1="108.6" y1="215.65" x2="185.84" y2="154.8" xlink:href="#linear-gradient"/><linearGradient id="linear-gradient-4" x1="135.04" y1="98.6" x2="201.09" y2="46.56" xlink:href="#linear-gradient"/><linearGradient id="linear-gradient-5" x1="118.62" y1="59.53" x2="145.26" y2="38.55" xlink:href="#linear-gradient"/><linearGradient id="linear-gradient-6" x1="102.24" y1="71.42" x2="137.11" y2="43.96" xlink:href="#linear-gradient"/><linearGradient id="linear-gradient-7" x1="97.49" y1="241.89" x2="34.61" y2="195.4" xlink:href="#linear-gradient"/></defs><path class="cls-1" d="M85.2,38.6c-.38,1.14,5.14,34.27,9.78,46.82s11.28,50,11.31,57.19-.72,14.52-.72,14.52-5.36-19.91-12.33-40.45-9.63-19.77-12.8-41.09-.18-34.68-.18-34.68Z"/><path class="cls-2" d="M114.72,72.74s-2.55,20.21-5.09,44.61-8.1,52.63-9.56,64.07-1.3,42.31.32,59.83,7.36,57.88,7.36,57.88,5.14-1.17,4.75-2.31S105,245,103.72,222.56s.18-37.25.11-50.69,10-49.59,11.08-64.46,2.48-34.69,2.48-34.69Z"/><path class="cls-3" d="M102.69,244.28c0-2.66-2.51-41.9,13-63.7s25.36-31.39,34.11-34.48,22.81-8.89,22.81-8.89,11.81-.45,17.53-.1S213.81,145,213.81,145,200,133.63,185.93,133.71s-33.12,6.27-38.81,10.11S113.7,174.52,108.47,186,102.69,244.28,102.69,244.28Z"/><path class="cls-4" d="M111.08,103.81c1.9-.58,7.14-19.66,22.66-37.65S160.24,34,178.52,31.62s25.92-.14,32,3.64,19.13,13.23,19.13,13.23-18.39-18.57-27.93-20-14.12-4.12-22.87-1.79S146.57,41.7,136.36,57s-21.53,35.17-21.53,35.17Z"/><path class="cls-5" d="M122,12.11s3.2,27.42.21,38.1-6,38.23-5.88,37.09-2-24.34-.2-37.56S122,12.11,122,12.11Z"/><path class="cls-6" d="M106,0s-7.77,15.28-4.54,27.84,2.56,28.57,4.9,38.85,5.89,48.82,4.83,47.6,9-44.51,5-64.55-5.07-17.38-5.52-29.95S106,0,106,0Z"/><path class="cls-7" d="M99.2,232.11s4.34.74,3.28-4.59-12.62-30.8-17.61-38.2-22.61-23.7-41.63-16S11.71,191,6.07,205.55-.53,254,.22,251.31.41,215.87,11,203.24s25.79-23.76,38-22.69,21,8.27,28.26,12,14.69,7.54,15.21,14S99.2,232.11,99.2,232.11Z"/><path class="cls-8" d="M89.3,44.94a26.06,26.06,0,0,1,4.37,8.39,43.32,43.32,0,0,0-4.39-15.48c-.52-1-6.69,1.68-7.34,2.12C84.79,41.39,87.19,42.24,89.3,44.94Z"/></svg>