<svg id="Capa_1" data-name="Capa 1" xmlns="http://www.w3.org/2000/svg" viewBox="0 0 475 199"><defs><style>.cls-1{fill:#053962;}</style></defs><path class="cls-1" d="M152.4,159.8H130.75v38H78.32v-38H-.06v-39L81.68,1.29h49.07V120.14H152.4ZM78.32,120.14V97.28q0-3.09.13-7.8T78.79,80c.13-3.18.27-5.87.4-8.07a24.65,24.65,0,0,1,.34-3.56H78.05q-2.55,6-4.71,10T67.7,87.74l-21.78,32.4Z"/><path class="cls-1" d="M308.22,99.84a214.49,214.49,0,0,1-3.77,42.28q-3.76,18.62-12,31.66a54.57,54.57,0,0,1-21.85,19.9q-13.57,6.85-33.34,6.85-24.6,0-40.33-12T173.71,154q-7.47-22.51-7.47-54.11,0-31.87,6.79-54.52t22.39-34.76Q211-1.53,237.23-1.53q24.6,0,40.27,12t23.19,34.69Q308.22,67.84,308.22,99.84Zm-89.14,0a308,308,0,0,0,1.41,32.26q1.41,13.05,5.38,19.56a13.09,13.09,0,0,0,22.66,0q3.89-6.51,5.37-19.49a292.48,292.48,0,0,0,1.48-32.33A296,296,0,0,0,253.9,67.3q-1.47-13-5.37-19.7T237.23,41q-7.39,0-11.36,6.65t-5.38,19.7A311.45,311.45,0,0,0,219.08,99.84Z"/><path class="cls-1" d="M475.06,159.8H453.42v38H401v-38H322.6v-39L404.35,1.29h49.07V120.14h21.64ZM401,120.14V97.28q0-3.09.13-7.8t.34-9.47q.19-4.77.4-8.07a21.64,21.64,0,0,1,.34-3.56h-1.48q-2.57,6-4.71,10t-5.65,9.35l-21.78,32.4Z"/></svg>