<svg id="Capa_1" data-name="Capa 1" xmlns="http://www.w3.org/2000/svg" viewBox="0 0 1199 731"><defs><style>.cls-1{fill:#f9f9f9;}.cls-2,.cls-3,.cls-4{fill:#053962;}.cls-3{font-size:46.99px;}.cls-3,.cls-4{font-family:OpenSans-Regular, Open Sans;}.cls-4{font-size:15px;}.cls-5{fill:#8aad30;}.cls-6{font-size:28.46px;fill:#fff;font-family:OpenSans-Bold, Open Sans;font-weight:700;}</style></defs><rect class="cls-1" width="1199" height="731" rx="29.38"/><path class="cls-2" d="M608,157h0a3.32,3.32,0,0,1-3.31-3.33l.07-29.41a3.32,3.32,0,0,1,3.32-3.31h0a3.33,3.33,0,0,1,3.31,3.33l-.07,29.41A3.32,3.32,0,0,1,608,157Z"/><path class="cls-2" d="M608,174.88a20.36,20.36,0,0,1-13.63-35.82,3.32,3.32,0,0,1,4.39,5,14,14,0,1,0,18.39-.24,3.32,3.32,0,1,1,4.43-4.94,20.48,20.48,0,0,1-12.88,36Z"/><path class="cls-2" d="M617.64,98.14a35.55,35.55,0,0,1-4.69-.32,2.21,2.21,0,0,1,.56-4.38c6.31.81,10.89-.11,13.6-2.75,2-2,2.43-4.35,2.95-7.38a29.13,29.13,0,0,1,2.3-8.08c2.55-5.32,7.48-9.57,14.68-12.69a45.16,45.16,0,0,0-5.81-.32c-4.76.06-14.67.16-23.45,7.23a33.08,33.08,0,0,0-10.35,15.08,2.21,2.21,0,1,1-4.19-1.43A37.57,37.57,0,0,1,615,66c10-8,21.32-8.15,26.17-8.2a49.42,49.42,0,0,1,14.75,2.11,2.21,2.21,0,0,1-.06,4.25c-10.15,2.78-16.72,7.15-19.53,13a25.31,25.31,0,0,0-1.92,6.93c-.58,3.36-1.18,6.83-4.23,9.79S623.05,98.14,617.64,98.14Z"/><path class="cls-2" d="M596.69,117.87l-.24,0c-9.16-1-16.18-4.14-20.87-9.45-4.13-4.67-5.17-9.57-6.18-14.31-.87-4.1-1.7-8-4.4-12.09-4.16-6.3-11.5-10.84-21.84-13.49a2.21,2.21,0,0,1,.29-4.33,78.55,78.55,0,0,1,22,.92c14.67,2.7,26.55,9.52,34.34,19.71a51.32,51.32,0,0,1,9.82,23.46,2.21,2.21,0,0,1-4.37.69,47,47,0,0,0-9-21.46c-11.22-14.68-29-18.39-40.65-19.11a33.09,33.09,0,0,1,13.07,11.18c3.17,4.8,4.16,9.48,5,13.6,1,4.57,1.81,8.5,5.16,12.3,3.94,4.45,10,7.14,18,8a2.21,2.21,0,0,1-.23,4.41Z"/><path class="cls-2" d="M594.76,106.6a2.21,2.21,0,0,1-2.13-1.62,25.17,25.17,0,0,0-11.1-14.8,2.21,2.21,0,1,1,2.33-3.76,29.56,29.56,0,0,1,13,17.38,2.2,2.2,0,0,1-1.54,2.72A2,2,0,0,1,594.76,106.6Z"/><path class="cls-2" d="M614.46,90.58a1.61,1.61,0,0,1-.52-.08,1.76,1.76,0,0,1-1.17-2.2A29.14,29.14,0,0,1,626,71.5a1.77,1.77,0,1,1,1.78,3.06,25.68,25.68,0,0,0-11.67,14.77A1.76,1.76,0,0,1,614.46,90.58Z"/><text class="cls-3" transform="translate(359.54 508.21)">Página no encontrada</text><text class="cls-4" transform="translate(348.14 544.8)">¡Lo sentimos, la página que has buscado no existe en nuestro sitio web! <tspan x="17.09" y="18">¿Quizás ir a nuestra página de inicio o intentar usar una búsqueda?</tspan></text><path class="cls-2" d="M514.67,393H493v38H440.59V393H362.21V354L444,234.46H493V353.31h21.65Zm-74.08-39.66V330.45q0-3.09.13-7.8t.34-9.47c.13-3.18.27-5.87.4-8.07a24.65,24.65,0,0,1,.34-3.56h-1.48c-1.71,4-3.27,7.37-4.71,10s-3.31,5.76-5.64,9.35l-21.78,32.4Z"/><path class="cls-2" d="M670.49,333a214.49,214.49,0,0,1-3.77,42.28q-3.76,18.61-12,31.66a54.57,54.57,0,0,1-21.85,19.9q-13.58,6.86-33.34,6.86-24.6,0-40.33-12T536,387.12q-7.47-22.51-7.47-54.11,0-31.86,6.79-54.52t22.39-34.75q15.59-12.11,41.81-12.1,24.6,0,40.27,12T663,278.36Q670.49,301,670.49,333Zm-89.14,0a307.9,307.9,0,0,0,1.41,32.26q1.41,13.05,5.38,19.57a12.58,12.58,0,0,0,11.36,6.52,12.43,12.43,0,0,0,11.29-6.52q3.9-6.52,5.38-19.5A292.48,292.48,0,0,0,617.65,333a296,296,0,0,0-1.48-32.54q-1.47-13-5.38-19.69t-11.29-6.66q-7.39,0-11.36,6.66t-5.38,19.69A311.45,311.45,0,0,0,581.35,333Z"/><path class="cls-2" d="M837.33,393H815.69v38H763.25V393H684.87V354l81.75-119.52h49.07V353.31h21.64Zm-74.08-39.66V330.45q0-3.09.14-7.8t.34-9.47q.19-4.77.4-8.07a23.91,23.91,0,0,1,.33-3.56H763q-2.57,6-4.71,10t-5.65,9.35l-21.78,32.4Z"/><rect class="cls-5" x="445.5" y="651.2" width="308" height="49.25" rx="6.81"/><text class="cls-6" transform="translate(474.87 683.77)">Regresar al inicio</text></svg>