<svg id="Capa_1" data-name="Capa 1" xmlns="http://www.w3.org/2000/svg" viewBox="0 0 129 161"><defs><style>.cls-1{fill:#053962;}</style></defs><path class="cls-1" d="M73,121.12h0a3.32,3.32,0,0,1-3.31-3.32l.07-29.41a3.32,3.32,0,0,1,3.32-3.31h0a3.32,3.32,0,0,1,3.31,3.32l-.07,29.41A3.32,3.32,0,0,1,73,121.12Z"/><path class="cls-1" d="M73,139a20.36,20.36,0,0,1-13.63-35.82,3.32,3.32,0,0,1,4.39,5A14,14,0,1,0,82.14,108,3.32,3.32,0,1,1,86.57,103a20.48,20.48,0,0,1-12.88,36Z"/><path class="cls-1" d="M82.64,62.31A37.34,37.34,0,0,1,78,62a2.21,2.21,0,0,1,.56-4.39c6.31.82,10.89-.11,13.6-2.75,2-2,2.43-4.35,3-7.37a29.19,29.19,0,0,1,2.3-8.09c2.55-5.32,7.48-9.57,14.68-12.68a41.83,41.83,0,0,0-5.81-.32c-4.76.05-14.67.16-23.45,7.22A33.05,33.05,0,0,0,72.43,48.7a2.22,2.22,0,0,1-4.19-1.44A37.63,37.63,0,0,1,80,30.16c10-8,21.32-8.14,26.17-8.2a49.42,49.42,0,0,1,14.75,2.11,2.21,2.21,0,0,1-.06,4.25c-10.15,2.79-16.72,7.16-19.53,13a25.35,25.35,0,0,0-1.92,6.92c-.58,3.36-1.18,6.84-4.23,9.8S88.05,62.31,82.64,62.31Z"/><path class="cls-1" d="M61.69,82h-.24c-9.16-1-16.18-4.15-20.87-9.45C36.45,67.9,35.41,63,34.4,58.26c-.87-4.11-1.7-8-4.4-12.09C25.84,39.86,18.5,35.32,8.16,32.68a2.21,2.21,0,0,1,.29-4.34,79,79,0,0,1,22,.92C45.11,32,57,38.78,64.78,49A51.32,51.32,0,0,1,74.6,72.43a2.21,2.21,0,1,1-4.37.69,47,47,0,0,0-9-21.46C50.05,37,32.28,33.28,20.62,32.55A33.09,33.09,0,0,1,33.69,43.73c3.17,4.8,4.16,9.48,5,13.61,1,4.56,1.81,8.5,5.16,12.3,3.94,4.44,10,7.13,18,8A2.21,2.21,0,0,1,61.69,82Z"/><path class="cls-1" d="M59.76,70.76a2.21,2.21,0,0,1-2.13-1.62,25.17,25.17,0,0,0-11.1-14.8,2.21,2.21,0,1,1,2.33-3.76,29.67,29.67,0,0,1,9,8.69,29.36,29.36,0,0,1,4,8.7,2.19,2.19,0,0,1-1.54,2.71A2,2,0,0,1,59.76,70.76Z"/><path class="cls-1" d="M79.46,54.74a1.91,1.91,0,0,1-.52-.07,1.77,1.77,0,0,1-1.17-2.21,29,29,0,0,1,6-10.81,29.36,29.36,0,0,1,7.27-6,1.77,1.77,0,0,1,1.78,3.06A25.94,25.94,0,0,0,86.43,44a25.65,25.65,0,0,0-5.28,9.51A1.76,1.76,0,0,1,79.46,54.74Z"/></svg>